<svg width="30" height="30" viewBox="0 0 30 30" fill="none" xmlns="http://www.w3.org/2000/svg">
<path d="M9.69995 4.32904L3.39995 13.7921C3.29995 13.9935 3.19995 14.1948 3.19995 14.4968C3.19995 14.7988 3.29995 15.0002 3.39995 15.2015L9.69995 24.6646C9.79995 24.866 9.99995 24.9666 10.1 25.0673C10.3 25.168 10.5 25.168 10.7 25.168H25.5C25.8 25.168 26.0999 25.0673 26.2999 24.866C26.4999 24.6646 26.6 24.3626 26.6 24.0606V4.93307C26.6 4.63105 26.4999 4.32904 26.2999 4.1277C26.0999 3.92635 25.8 3.82568 25.5 3.82568H10.6C10.4 3.82568 10.2 3.82568 9.99995 3.92635C9.89995 4.02703 9.79995 4.1277 9.69995 4.32904ZM24.2 6.14112V22.6512H11.2L5.69995 14.3962L11.2 6.14112H24.2V6.14112ZM14.4 11.074L16.1 12.7854L17.8 11.074L19.5 12.7854L17.8 14.4968L19.5 16.2082L17.8 17.9196L16 16.0069L14.3 17.7183L12.7 16.1076L14.4 14.3962L12.7 12.6847L14.4 11.074Z" fill="#F90000"/>
</svg>
