<svg width="127" height="127" viewBox="0 0 127 127" fill="none" xmlns="http://www.w3.org/2000/svg">
<g clip-path="url(#clip0_111_2682)">
<path d="M64.7862 88.6493C70.8591 88.6828 76.805 86.9104 81.8684 83.5573C86.9318 80.2042 90.8843 75.4218 93.2238 69.8175C95.5633 64.2132 96.1842 58.0399 95.0076 52.082C93.831 46.124 90.9101 40.6503 86.6158 36.356C82.3215 32.0617 76.8478 29.1408 70.8898 27.9642C64.9319 26.7876 58.7587 27.4085 53.1544 29.748C47.55 32.0875 42.7676 36.04 39.4145 41.1034C36.0614 46.1668 34.289 52.1127 34.3225 58.1856C34.3757 66.2486 37.6024 73.9663 43.3039 79.6679C49.0055 85.3694 56.7232 88.5961 64.7862 88.6493ZM64.7862 33.1715C69.7001 33.1715 74.5036 34.6286 78.5893 37.3586C82.675 40.0886 85.8595 43.9688 87.7399 48.5086C89.6204 53.0484 90.1124 58.0439 89.1537 62.8633C88.1951 67.6828 85.8288 72.1097 82.3542 75.5843C78.8796 79.0589 74.4527 81.4252 69.6332 82.3838C64.8138 83.3425 59.8183 82.8505 55.2785 80.97C50.7387 79.0896 46.8585 75.9051 44.1285 71.8194C41.3985 67.7337 39.9414 62.9302 39.9414 58.0163C39.9414 51.4271 42.5589 45.1077 47.2183 40.4483C51.8776 35.789 58.197 33.1715 64.7862 33.1715Z" fill="#FF0000"/>
<path d="M119.147 96.6374C117.731 94.122 115.402 92.2479 112.642 91.4034C109.881 90.559 106.902 90.809 104.321 92.1017L88.9541 99.3791C87.7504 97.3824 86.0675 95.7176 84.0579 94.5355C82.0483 93.3534 79.7756 92.6914 77.4455 92.6094L62.586 92.2032C60.3572 92.1297 58.1724 91.5632 56.1886 90.5446L54.6993 89.7661C50.9623 87.847 46.8364 86.8068 42.6363 86.7246C38.4362 86.6425 34.2728 87.5207 30.4637 89.2922V87.2613C30.4772 86.8807 30.415 86.5011 30.2808 86.1447C30.1465 85.7882 29.9427 85.462 29.6814 85.1849C29.42 84.9078 29.1063 84.6854 28.7583 84.5305C28.4103 84.3756 28.035 84.2914 27.6542 84.2827L11.3731 83.8426C10.6067 83.8243 9.86398 84.1091 9.30629 84.6351C8.74859 85.1611 8.42091 85.8859 8.39438 86.6521L7.48047 122.396C7.48718 123.119 7.76607 123.814 8.26162 124.341C8.75716 124.868 9.43299 125.188 10.1545 125.239L26.5372 125.68C27.2887 125.68 28.0105 125.386 28.5481 124.861C29.0858 124.336 29.3967 123.621 29.4144 122.87V121.855L33.2054 119.824C34.6761 119.025 36.4003 118.83 38.0119 119.282L63.4661 126.424C65.3462 126.828 67.2636 127.032 69.1865 127.033C73.3485 127.05 77.4629 126.149 81.2366 124.393L81.6089 124.19L118.267 100.496C118.873 100.082 119.3 99.4549 119.464 98.7393C119.627 98.0238 119.514 97.2731 119.147 96.6374ZM63.7707 103.407C63.3666 103.353 62.9556 103.384 62.5644 103.499C62.1732 103.614 61.8104 103.81 61.4997 104.074C61.189 104.338 60.9372 104.664 60.7606 105.032C60.584 105.399 60.4866 105.8 60.4747 106.207C60.4628 106.615 60.5366 107.02 60.6914 107.398C60.8462 107.775 61.0785 108.115 61.3733 108.397C61.6681 108.679 62.0187 108.895 62.4026 109.033C62.7864 109.17 63.1949 109.226 63.6015 109.195L88.1079 109.872C88.8626 109.873 89.5881 109.58 90.1312 109.056C90.6742 108.532 90.9925 107.817 91.0188 107.063C91.0704 106.33 91.0704 105.595 91.0188 104.863L107.029 97.2805C107.856 96.8699 108.773 96.6733 109.695 96.7088C110.618 96.7443 111.517 97.0107 112.31 97.4836L78.698 119.214C74.4566 121.131 69.7197 121.664 65.1585 120.738L39.9413 113.663C36.906 112.785 33.647 113.138 30.8699 114.645L29.7529 115.085L30.4637 95.9604C33.6845 93.9103 37.3879 92.7436 41.2022 92.5772C45.0165 92.4109 48.8074 93.2508 52.1945 95.0127L53.7177 95.825C56.4835 97.2275 59.5209 98.0128 62.6199 98.1267L77.4455 98.5329C79.1064 98.577 80.7146 99.1251 82.0567 100.104C83.3987 101.084 84.4113 102.448 84.9599 104.016L63.7707 103.407ZM24.6756 89.8677L23.8632 119.824L13.3363 119.553L14.1486 89.563L24.6756 89.8677Z" fill="#FF0000"/>
<path d="M64.7862 25.319C65.1669 25.3234 65.5447 25.2523 65.8977 25.1097C66.2506 24.9672 66.5718 24.7559 66.8426 24.4883C67.1133 24.2207 67.3283 23.902 67.475 23.5507C67.6217 23.1994 67.6972 22.8225 67.6972 22.4418V2.91118C67.7017 2.52765 67.6295 2.14708 67.4849 1.79185C67.3402 1.43662 67.1259 1.11391 66.8547 0.842692C66.5835 0.571474 66.2608 0.357223 65.9056 0.21254C65.5503 0.0678568 65.1698 -0.00433784 64.7862 0.000201511C64.02 0.00014971 63.2847 0.302191 62.7397 0.840806C62.1948 1.37942 61.8842 2.11117 61.8752 2.87733V22.4418C61.8842 23.208 62.1948 23.9397 62.7397 24.4784C63.2847 25.017 64.02 25.319 64.7862 25.319Z" fill="#FF0000"/>
<path d="M80.1874 25.3192C80.9505 25.3192 81.6823 25.016 82.2219 24.4765C82.7614 23.9369 83.0646 23.2051 83.0646 22.442V13.2014C83.0646 12.4383 82.7614 11.7065 82.2219 11.1669C81.6823 10.6273 80.9505 10.3242 80.1874 10.3242C79.4244 10.3242 78.6926 10.6273 78.153 11.1669C77.6134 11.7065 77.3103 12.4383 77.3103 13.2014V22.442C77.3103 22.8199 77.3847 23.194 77.5293 23.5431C77.6739 23.8921 77.8858 24.2093 78.153 24.4765C78.4202 24.7436 78.7373 24.9556 79.0864 25.1001C79.4355 25.2447 79.8096 25.3192 80.1874 25.3192Z" fill="#FF0000"/>
<path d="M49.3513 25.3188C49.732 25.3233 50.1098 25.2522 50.4628 25.1096C50.8157 24.967 51.1369 24.7558 51.4077 24.4882C51.6785 24.2205 51.8934 23.9019 52.0401 23.5506C52.1868 23.1993 52.2623 22.8224 52.2623 22.4417V13.201C52.3063 12.7946 52.2643 12.3836 52.1389 11.9946C52.0135 11.6056 51.8076 11.2473 51.5346 10.9431C51.2616 10.639 50.9276 10.3957 50.5544 10.2292C50.1811 10.0626 49.777 9.97656 49.3683 9.97656C48.9595 9.97656 48.5554 10.0626 48.1822 10.2292C47.8089 10.3957 47.4749 10.639 47.2019 10.9431C46.9289 11.2473 46.723 11.6056 46.5976 11.9946C46.4722 12.3836 46.4302 12.7946 46.4742 13.201V22.4417C46.4742 22.8195 46.5486 23.1936 46.6932 23.5427C46.8378 23.8918 47.0497 24.2089 47.3169 24.4761C47.5841 24.7433 47.9012 24.9552 48.2503 25.0998C48.5994 25.2444 48.9735 25.3188 49.3513 25.3188Z" fill="#FF0000"/>
<path d="M58.2195 60.7247C60.4874 61.5371 60.9951 62.0109 60.9951 63.1618C60.9951 64.3127 60.8259 64.7865 58.6596 64.7865C56.9765 64.7521 55.3091 64.4551 53.7177 63.9065C53.4918 63.7933 53.2426 63.7344 52.9899 63.7344C52.7372 63.7344 52.4881 63.7933 52.2622 63.9065C52.0522 64.0249 51.8725 64.1905 51.7374 64.3902C51.6023 64.59 51.5154 64.8183 51.4836 65.0573L51.2129 66.5467C51.0924 66.9909 51.144 67.4643 51.3574 67.8721C51.5707 68.28 51.9301 68.5924 52.3637 68.7468C54.529 69.5484 56.8249 69.9387 59.1334 69.8977C60.1269 69.9962 61.13 69.8873 62.0793 69.5779C63.0285 69.2685 63.9031 68.7654 64.6477 68.1003C65.3923 67.4353 65.9906 66.6228 66.4049 65.7145C66.8191 64.8061 67.0401 63.8216 67.054 62.8233C67.054 59.4385 64.9215 57.1706 60.5212 55.6474L59.8781 55.4443C57.9149 54.7673 57.1702 54.4289 57.1702 53.4473C57.1702 52.4656 57.9149 51.9241 59.3704 51.9241C60.6936 51.9703 61.9941 52.2811 63.1953 52.838C63.4341 52.9683 63.7017 53.0366 63.9738 53.0366C64.2458 53.0366 64.5135 52.9683 64.7523 52.838C64.9485 52.7318 65.1178 52.582 65.2469 52.4001C65.376 52.2181 65.4616 52.0089 65.497 51.7887L65.8355 50.1301C65.9506 49.6803 65.9054 49.2045 65.7078 48.7845C65.5101 48.3644 65.1722 48.0263 64.7523 47.8284C62.9672 47.0194 61.0254 46.6149 59.0657 46.6437C58.0942 46.5203 57.1075 46.602 56.1695 46.8835C55.2314 47.165 54.3628 47.64 53.6197 48.2779C52.8766 48.9158 52.2754 49.7024 51.855 50.587C51.4346 51.4715 51.2043 52.4344 51.179 53.4134C51.0436 58.1861 54.6316 59.4723 58.2195 60.7247Z" fill="#FF0000"/>
<path d="M67.0204 71.691C67.1456 71.9021 67.312 72.0858 67.5097 72.2312C67.7074 72.3766 67.9324 72.4807 68.1712 72.5372L69.6606 72.9434C69.8624 72.9751 70.068 72.9751 70.2698 72.9434C70.6376 72.9455 70.9952 72.8228 71.2842 72.5953C71.5732 72.3678 71.7764 72.049 71.8607 71.691L80.0859 47.1169C80.18 46.8977 80.2285 46.6616 80.2285 46.423C80.2285 46.1845 80.18 45.9484 80.0859 45.7291C79.969 45.5248 79.8081 45.349 79.6149 45.2143C79.4218 45.0797 79.2011 44.9896 78.9689 44.9506L77.5134 44.5106C77.2945 44.4209 77.059 44.379 76.8226 44.3879C76.5862 44.3967 76.3544 44.456 76.1428 44.5618C75.9312 44.6676 75.7447 44.8175 75.5958 45.0013C75.4469 45.1851 75.339 45.3986 75.2794 45.6276L67.0204 70.3371C66.9208 70.5489 66.8691 70.78 66.8691 71.014C66.8691 71.2481 66.9208 71.4792 67.0204 71.691Z" fill="#FF0000"/>
</g>
<defs>
<clipPath id="clip0_111_2682">
<rect width="127" height="127" fill="white"/>
</clipPath>
</defs>
</svg>
