<svg width="26" height="26" viewBox="0 0 26 26" fill="none" xmlns="http://www.w3.org/2000/svg">
<path d="M24.6094 4.6875H18.75V1.17188C18.75 0.861074 18.6265 0.563003 18.4068 0.343234C18.187 0.123465 17.8889 0 17.5781 0H8.20312C7.89232 0 7.59425 0.123465 7.37448 0.343234C7.15472 0.563003 7.03125 0.861074 7.03125 1.17188V4.6875H1.17188C0.861074 4.6875 0.563003 4.81097 0.343234 5.03073C0.123465 5.2505 0 5.54857 0 5.85938C0 6.17018 0.123465 6.46825 0.343234 6.68802C0.563003 6.90778 0.861074 7.03125 1.17188 7.03125H2.41523L3.51562 24.6832C3.53443 24.981 3.66614 25.2605 3.88391 25.4645C4.10167 25.6686 4.38908 25.7818 4.6875 25.7812H21.0938C21.3922 25.7818 21.6796 25.6686 21.8973 25.4645C22.1151 25.2605 22.2468 24.981 22.2656 24.6832L23.366 7.03125H24.6094C24.9202 7.03125 25.2182 6.90778 25.438 6.68802C25.6578 6.46825 25.7812 6.17018 25.7812 5.85938C25.7812 5.54857 25.6578 5.2505 25.438 5.03073C25.2182 4.81097 24.9202 4.6875 24.6094 4.6875ZM9.375 2.34375H16.4062V4.6875H9.375V2.34375ZM19.9934 23.4375H5.78789L4.7625 7.03125H21.0188L19.9934 23.4375ZM9.375 11.7188V18.75C9.375 19.0608 9.25153 19.3589 9.03177 19.5786C8.812 19.7984 8.51393 19.9219 8.20312 19.9219C7.89232 19.9219 7.59425 19.7984 7.37448 19.5786C7.15472 19.3589 7.03125 19.0608 7.03125 18.75V11.7188C7.03125 11.4079 7.15472 11.1099 7.37448 10.8901C7.59425 10.6703 7.89232 10.5469 8.20312 10.5469C8.51393 10.5469 8.812 10.6703 9.03177 10.8901C9.25153 11.1099 9.375 11.4079 9.375 11.7188ZM14.0625 11.7188V18.75C14.0625 19.0608 13.939 19.3589 13.7193 19.5786C13.4995 19.7984 13.2014 19.9219 12.8906 19.9219C12.5798 19.9219 12.2818 19.7984 12.062 19.5786C11.8422 19.3589 11.7188 19.0608 11.7188 18.75V11.7188C11.7188 11.4079 11.8422 11.1099 12.062 10.8901C12.2818 10.6703 12.5798 10.5469 12.8906 10.5469C13.2014 10.5469 13.4995 10.6703 13.7193 10.8901C13.939 11.1099 14.0625 11.4079 14.0625 11.7188ZM17.5781 10.5469C17.8889 10.5469 18.187 10.6703 18.4068 10.8901C18.6265 11.1099 18.75 11.4079 18.75 11.7188V18.75C18.75 19.0608 18.6265 19.3589 18.4068 19.5786C18.187 19.7984 17.8889 19.9219 17.5781 19.9219C17.2673 19.9219 16.9693 19.7984 16.7495 19.5786C16.5297 19.3589 16.4062 19.0608 16.4062 18.75V11.7188C16.4062 11.4079 16.5297 11.1099 16.7495 10.8901C16.9693 10.6703 17.2673 10.5469 17.5781 10.5469Z" fill="#F90000"/>
</svg>
