<svg width="17" height="14" viewBox="0 0 17 14" fill="none" xmlns="http://www.w3.org/2000/svg">
<path d="M15.8695 2.52424L6.51421 12.8558C6.43136 12.9481 6.31857 13 6.2009 13C6.08324 13 5.97045 12.9481 5.88759 12.8558L1.13053 7.60232C1.04699 7.51082 1 7.38625 1 7.25631C1 7.12637 1.04699 7.00181 1.13053 6.9103L1.74833 6.22802C1.83119 6.13576 1.94398 6.08387 2.06164 6.08387C2.17931 6.08387 2.2921 6.13576 2.37496 6.22802L6.19649 10.4484L14.625 1.1402C14.7996 0.953268 15.0771 0.953268 15.2517 1.1402L15.8695 1.83222C15.953 1.92372 16 2.04829 16 2.17823C16 2.30817 15.953 2.43273 15.8695 2.52424Z" fill="white" stroke="white"/>
</svg>
