<svg width="24" height="24" viewBox="0 0 24 24" fill="none" xmlns="http://www.w3.org/2000/svg">
<path d="M12.9998 12.9998V17.4998C12.9998 17.765 12.8944 18.0194 12.7069 18.2069C12.5193 18.3945 12.265 18.4998 11.9998 18.4998C11.7346 18.4998 11.4802 18.3945 11.2927 18.2069C11.1051 18.0194 10.9998 17.765 10.9998 17.4998V12.9998C10.9998 12.7346 11.1051 12.4802 11.2927 12.2927C11.4802 12.1052 11.7346 11.9998 11.9998 11.9998C12.265 11.9998 12.5193 12.1052 12.7069 12.2927C12.8944 12.4802 12.9998 12.7346 12.9998 12.9998ZM11.9998 10.9998C12.1976 10.9998 12.3909 10.9412 12.5553 10.8313C12.7198 10.7214 12.848 10.5652 12.9236 10.3825C12.9993 10.1998 13.0191 9.9987 12.9806 9.80472C12.942 9.61074 12.8467 9.43255 12.7069 9.2927C12.567 9.15285 12.3888 9.05761 12.1949 9.01902C12.0009 8.98044 11.7998 9.00024 11.6171 9.07593C11.4344 9.15162 11.2782 9.27979 11.1683 9.44424C11.0584 9.60869 10.9998 9.80203 10.9998 9.99981C10.9998 10.265 11.1051 10.5194 11.2927 10.7069C11.4802 10.8945 11.7346 10.9998 11.9998 10.9998ZM1.12477 20.4848C1.03825 20.3286 0.995117 20.1521 0.999865 19.9736C1.00461 19.7951 1.05706 19.6212 1.15177 19.4698L11.1518 3.46981C11.2476 3.33343 11.3749 3.22212 11.5229 3.14527C11.6708 3.06843 11.8351 3.02832 12.0018 3.02832C12.1685 3.02832 12.3327 3.06843 12.4807 3.14527C12.6286 3.22212 12.7559 3.33343 12.8518 3.46981L22.8518 19.4698C22.9466 19.6215 22.9989 19.7958 23.0035 19.9746C23.008 20.1534 22.9645 20.3301 22.8775 20.4863C22.7904 20.6426 22.6631 20.7726 22.5087 20.863C22.3544 20.9533 22.1786 21.0005 21.9998 20.9998H1.99977C1.82123 20.9999 1.64592 20.9522 1.49205 20.8616C1.33818 20.7711 1.21136 20.6409 1.12477 20.4848ZM3.79977 18.9998H20.1998L11.9998 5.88681L3.79977 18.9998Z" fill="#F90000"/>
</svg>
