<svg width="180" height="63" viewBox="0 0 180 63" fill="none" xmlns="http://www.w3.org/2000/svg">
<path fill-rule="evenodd" clip-rule="evenodd" d="M125.25 25.0936H121.692L123.459 19.8801H123.496L125.25 25.0936ZM126.411 28.3473L127.474 31.1821H132.032L125.843 14.8392H121.174L114.849 31.1821H119.382L120.519 28.3473H126.411ZM107.993 14.8269V25.6112C107.993 26.5233 108.03 28.0146 106.77 28.0146C106.201 28.0146 105.534 27.2751 105.053 26.6218L102.582 29.1978C103.57 30.7014 104.991 31.6135 106.807 31.6135C110.463 31.6135 112.267 29.3087 112.267 25.8577V14.8269H107.993ZM94.1693 25.0936H90.6239L92.3904 19.8801H92.4398L94.1693 25.0936ZM95.3305 28.3473L96.3928 31.1821H100.951L94.7622 14.8392H90.105L83.7801 31.1821H88.3138L89.4503 28.3473H95.3305ZM80.8277 15.2213C79.5553 14.7036 78.2953 14.3955 76.924 14.3955C74.614 14.3955 72.2792 15.3938 70.6609 17.0454C69.092 18.6476 68.2397 20.7922 68.2397 23.0353C68.2397 25.4633 69.0673 27.5832 70.8833 29.2101C72.588 30.7507 74.7622 31.6258 77.0599 31.6258C78.3817 31.6258 79.4194 31.293 80.8277 30.8616V25.7714C79.9259 26.819 78.5423 27.4969 77.134 27.4969C74.4781 27.4969 72.6869 25.6359 72.6869 23.0599C72.6869 20.521 74.4534 18.5244 77.0599 18.5244C78.53 18.5244 79.9382 19.1529 80.8153 20.3238V15.2213H80.8277ZM170.908 39.0454C173.465 39.0454 175.553 41.1037 175.553 43.3591C175.553 46.1692 173.453 48.2398 170.908 48.2398C168.351 48.2398 166.251 46.1692 166.251 43.3591C166.251 41.1037 168.351 39.0454 170.908 39.0454ZM170.908 34.9165C166.164 34.9165 161.804 38.3798 161.804 43.3345C161.804 48.6219 165.633 52.3563 170.908 52.3563C176.183 52.3563 180 48.6219 180 43.3345C180 38.3922 175.639 34.9165 170.908 34.9165ZM155.627 35.4588H151.353V51.814H160.754V48.2151H155.627V35.4588ZM143.471 35.4588H139.209V51.814H148.61V48.2151H143.471V35.4588ZM134.614 35.4588H130.34V51.814H134.614V35.4588ZM121.124 35.4588V46.2432C121.124 47.1552 121.161 48.6465 119.901 48.6465C119.333 48.6465 118.654 47.907 118.184 47.2538L115.701 49.842C116.689 51.3457 118.098 52.2577 119.938 52.2577C123.582 52.2577 125.386 49.953 125.386 46.5143V35.4712H121.124V35.4588ZM109.314 35.4588V44.074C109.314 46.1939 109.166 48.5109 106.424 48.5109C103.669 48.5109 103.521 46.1939 103.521 44.074V35.4588H99.2465V44.6532C99.2465 46.7608 99.3329 48.8437 100.976 50.4213C102.335 51.7647 104.509 52.2454 106.424 52.2454C108.338 52.2454 110.5 51.7647 111.872 50.4213C113.515 48.8437 113.601 46.7608 113.601 44.6532V35.4588H109.314ZM87.622 38.7126H88.042C89.4379 38.7126 91.0068 38.9714 91.0068 40.7462C91.0068 42.5333 89.4379 42.7922 88.042 42.7922H87.622V38.7126ZM91.8592 45.1216C94.194 44.7025 95.454 42.7552 95.454 40.4997C95.454 37.0118 92.9833 35.4588 89.7344 35.4588H83.3478V51.814H87.622V45.5283H87.6591L91.6986 51.814H97.0229L91.8592 45.1216ZM76.0346 39.07H79.58V35.4588H68.2397V39.07H71.7727V51.814H76.047V39.07H76.0346Z" fill="white"/>
<path fill-rule="evenodd" clip-rule="evenodd" d="M11.1921 47.9687C11.1921 50.1132 12.761 51.814 14.9104 51.814H8.69672H8.52378H2.49537C1.12415 51.814 0 50.7048 0 49.3491V41.609V22.7272C0 18.3642 3.55775 14.8146 7.95553 14.8146H47.9432C52.3286 14.8146 55.8987 18.3518 55.8987 22.7272V48.8561V49.3491C55.8987 50.7171 54.7622 51.814 53.4033 51.814H47.3626H47.1896H40.9759C43.1377 51.814 44.7066 50.1132 44.7066 47.9687V40.7462H11.1921V47.9687ZM11.1921 25.9317V27.7804V31.4902H44.719V25.944C44.719 23.8981 43.0513 22.2465 40.9883 22.2465H39.1229H16.7634H14.9104C12.8474 22.2342 11.1921 23.8857 11.1921 25.9317Z" fill="white"/>
<path fill-rule="evenodd" clip-rule="evenodd" d="M22.3718 5.55855C22.3718 2.48964 24.8672 0 27.9555 0C31.0439 0 33.5516 2.48964 33.5516 5.55855C33.5516 8.62746 31.0439 11.1171 27.9555 11.1171C24.8672 11.1171 22.3718 8.61513 22.3718 5.55855Z" fill="#F9CF00"/>
<path fill-rule="evenodd" clip-rule="evenodd" d="M56.4546 55.7334C57.9864 56.2017 58.6906 56.3866 59.2835 56.6701C58.987 56.7563 58.5794 57.0891 58.3323 57.2C58.5917 57.4219 58.8388 57.4589 59.1353 57.6807C58.5423 57.693 57.9494 57.8286 57.3935 57.4219L57.1587 57.767C57.8382 58.1121 58.567 58.2723 61.433 59.3939C58.9376 59.1227 59.6047 58.5928 53.5145 58.0874C56.9611 58.7653 58.1347 59.628 59.1723 60.0224C59.0364 60.1334 58.9376 60.0717 58.8141 60.1827C59.3453 60.4908 60.0618 60.6633 63.3725 61.3042L59.6294 60.8482C59.4812 60.8236 59.2465 60.9961 59.1229 61.1194C60.0865 61.5384 61.26 61.8219 62.4336 62.2409C61.47 62.1547 60.1235 61.9575 59.3206 62.204C58.3941 61.6986 57.4429 61.1933 57.0723 61.1194C56.714 61.0331 56.1581 61.1687 55.9111 61.2796C56.1705 61.5014 56.8005 61.7972 57.3193 62.0561C54.2557 61.5384 51.6245 61.4028 48.2273 60.7619C27.202 57.4712 3.34775 59.283 3.34775 59.283C1.853 59.0365 0.3706 58.9995 0.0617676 57.4219C2.87832 55.9552 23.6813 52.9849 48.3014 54.5995C48.2644 54.5871 54.9351 55.2527 56.4546 55.7334Z" fill="#F9CF00"/>
</svg>
