<svg width="24" height="24" viewBox="0 0 24 24" fill="none" xmlns="http://www.w3.org/2000/svg">
<g clip-path="url(#clip0_506_3851)">
<path fill-rule="evenodd" clip-rule="evenodd" d="M1.20346e-10 20.487C0.0016906 19.8245 0.129134 19.1903 0.354475 18.7231C0.579815 18.2559 0.884725 17.9936 1.20256 17.9937H22.791C23.094 18.0398 23.3774 18.3232 23.5842 18.787C23.791 19.2507 23.906 19.8605 23.906 20.4936C23.906 21.1268 23.791 21.7365 23.5842 22.2003C23.3774 22.664 23.094 22.9475 22.791 22.9936H1.20896C1.0505 22.9954 0.893432 22.9318 0.746791 22.8067C0.600151 22.6815 0.466826 22.4971 0.35448 22.2642C0.242133 22.0312 0.152981 21.7543 0.0921474 21.4493C0.0313136 21.1443 -2.2416e-06 20.8173 1.20346e-10 20.487H1.20346e-10Z" fill="white"/>
<path fill-rule="evenodd" clip-rule="evenodd" d="M1.20895 10.8011H22.791C23.094 10.8471 23.3774 11.1298 23.5842 11.5923C23.791 12.0548 23.906 12.6629 23.906 13.2944C23.906 13.9259 23.791 14.534 23.5842 14.9966C23.3774 15.4591 23.094 15.7418 22.791 15.7878H1.20895C1.04409 15.8128 0.878505 15.7669 0.72255 15.653C0.566596 15.539 0.423617 15.3595 0.302542 15.1255C0.181468 14.8915 0.0848981 14.6081 0.0188633 14.2931C-0.0471715 13.9781 -0.0812531 13.6381 -0.0812531 13.2944C-0.0812531 12.9508 -0.0471715 12.6108 0.0188633 12.2958C0.0848981 11.9807 0.181468 11.6974 0.302542 11.4634C0.423617 11.2294 0.566596 11.0498 0.72255 10.9359C0.878505 10.8219 1.04409 10.776 1.20895 10.8011Z" fill="white"/>
<path fill-rule="evenodd" clip-rule="evenodd" d="M1.20895 3.61114H22.791C23.094 3.65717 23.3774 3.93984 23.5842 4.40236C23.791 4.86489 23.906 5.47299 23.906 6.10449C23.906 6.73599 23.791 7.3441 23.5842 7.80662C23.3774 8.26914 23.094 8.55182 22.791 8.59784H1.20895C1.04409 8.62289 0.878505 8.577 0.72255 8.46305C0.566596 8.3491 0.423617 8.16953 0.302542 7.93555C0.181468 7.70157 0.0848981 7.41821 0.0188633 7.10316C-0.0471715 6.78812 -0.0812531 6.44815 -0.0812531 6.10449C-0.0812531 5.76084 -0.0471715 5.42087 0.0188633 5.10582C0.0848981 4.79078 0.181468 4.50742 0.302542 4.27344C0.423617 4.03946 0.566596 3.85989 0.72255 3.74593C0.878505 3.63198 1.04409 3.58609 1.20895 3.61114Z" fill="white"/>
</g>
<defs>
<clipPath id="clip0_506_3851">
<rect width="24" height="24" fill="white"/>
</clipPath>
</defs>
</svg>
