<svg width="26" height="26" viewBox="0 0 26 26" fill="none" xmlns="http://www.w3.org/2000/svg">
<path d="M25.1802 13.1897C23.0818 16.5935 20.1923 19.0199 16.2249 20.0721C13.9144 20.6815 11.5925 20.6068 9.2935 19.9513C9.26483 19.9456 9.23616 19.9226 9.17883 19.8938C9.58016 19.5028 9.97001 19.1176 10.3713 18.7439C10.4115 18.7094 10.5089 18.7036 10.5663 18.7151C14.3731 19.4971 17.7098 18.5139 20.6624 16.1278C21.723 15.2711 22.6289 14.2764 23.4143 13.1667C23.5003 13.046 23.5003 12.9655 23.4143 12.8447C22.5142 11.5856 21.4536 10.4816 20.2152 9.53867C20.135 9.47542 20.0547 9.41793 19.9859 9.36043C20.3528 8.9982 20.7083 8.64747 21.0924 8.27374C22.7321 9.52717 24.1367 11.0106 25.1802 12.8102C25.1802 12.9367 25.1802 13.0632 25.1802 13.1897Z" fill="#F90000"/>
<path d="M6.15174 18.6404C5.48669 18.1517 4.83311 17.7032 4.21966 17.1972C2.96409 16.168 1.90918 14.9606 1.01481 13.6094C0.739613 13.1897 0.728147 12.8275 1.00907 12.4078C2.98702 9.44668 5.57269 7.21581 9.05847 6.12913C12.1257 5.16893 15.1643 5.34717 18.1284 6.58335C18.3004 6.6581 18.3978 6.6466 18.5354 6.51435C19.2807 5.7669 20.0375 5.03669 20.7886 4.30073C21.1268 3.973 21.5797 3.9615 21.8951 4.25473C22.2161 4.55947 22.1989 5.01369 21.8664 5.35292C21.8607 5.35867 21.8549 5.36442 21.8492 5.37017C16.2995 10.8094 10.744 16.2485 5.18857 21.6877C4.83311 22.0385 4.36299 22.0557 4.04766 21.7337C3.73807 21.4232 3.761 20.9748 4.11073 20.6355C4.79298 19.9686 5.47522 19.3016 6.15174 18.6404ZM17.1537 7.82528C17.1251 7.80803 17.1079 7.79078 17.0849 7.78503C14.4763 6.81334 11.8448 6.75009 9.21326 7.65854C6.3868 8.63598 4.24259 10.4759 2.5341 12.8505C2.4481 12.9712 2.45384 13.0517 2.54557 13.1552C3.16475 13.8739 3.74954 14.6214 4.40885 15.2998C5.25163 16.168 6.24347 16.881 7.29838 17.4675C7.94623 16.8293 8.58261 16.2025 9.219 15.5758C7.80863 13.5289 8.39342 11.2636 9.57445 10.0044C10.2338 9.30294 11.0307 8.83147 11.9824 8.62448C13.301 8.34275 14.5165 8.60723 15.6115 9.33169C16.1332 8.82572 16.6377 8.33125 17.1537 7.82528ZM14.4878 10.4356C13.3297 9.66517 11.5925 9.9699 10.6351 11.0853C9.67765 12.2123 9.79805 13.7417 10.3771 14.4604C11.7416 13.1265 13.1118 11.7868 14.4878 10.4356Z" fill="#F90000"/>
<path d="M11.8104 17.3122C12.2633 16.8695 12.6876 16.4555 13.1176 16.0416C13.1749 15.9898 13.2724 15.9611 13.3527 15.9496C14.7343 15.7828 15.8179 14.7191 15.9899 13.368C16.0014 13.2875 16.03 13.1955 16.0816 13.138C16.5002 12.7125 16.9302 12.2985 17.3601 11.873C17.7672 12.8447 17.578 14.6041 16.5002 15.8691C15.2274 17.3525 13.2667 17.7492 11.8104 17.3122Z" fill="#F90000"/>
</svg>
