<svg width="24" height="24" viewBox="0 0 24 24" fill="none" xmlns="http://www.w3.org/2000/svg">
<path d="M24 2.55886L13.9638 0.991699L13.7719 1.39468C13.0381 3.1105 12.541 4.91809 12.2942 6.76782C11.0149 6.76782 6.86994 6.8062 6.24947 8.80193L6.03198 9.51835C5.60341 10.932 4.81663 13.5482 4.19616 13.996C3.57135 14.4424 2.99278 14.9503 2.46908 15.512L1.06183 14.4245L0 15.9405L0.965885 16.5802L1.33049 16.0557L5.34115 19.19L6.57569 20.1431L7.59275 20.9299L6.34542 22.2092L7.18337 23.0279L9.36461 20.8211L7.88699 19.6825C8.94883 19.2987 10.5928 18.7039 11.565 18.3265C11.4883 18.7422 11.4115 19.1324 11.322 19.465L11.1365 20.1495L20.661 20.8467L20.7761 20.3606C21.3166 17.6704 21.5611 14.9291 21.5053 12.1857C21.467 8.19426 22.1066 5.3094 23.4627 3.35204L24 2.55886ZM4.84861 14.9427C5.74414 14.3414 6.39659 12.384 7.15778 9.85737L7.36887 9.15375C7.65032 8.25822 10.3049 7.91281 12.1855 7.94479C12.1535 8.31579 12.1535 8.72517 12.1535 9.11537C12.1535 9.11537 12.1535 10.0685 12.1535 11.4309C11.9906 11.6227 11.8035 11.7925 11.597 11.9363L11.7761 13.1004C12.2751 13.0237 12.7164 12.5503 13.2793 11.9491C13.5754 11.6226 13.8916 11.315 14.226 11.0279C14.4853 10.8356 14.7823 10.7003 15.0976 10.6308C15.4129 10.5614 15.7393 10.5594 16.0554 10.625C16.2601 10.6889 16.3113 10.7913 16.3305 10.8872C16.4456 11.3542 15.4733 12.7294 14.5267 13.6697L14.4435 13.7721C13.6759 14.9746 12.2878 16.7913 11.6034 17.0663C10.6503 17.4565 7.76546 18.512 6.79318 18.851L3.40938 16.2028C3.85069 15.7408 4.33234 15.3191 4.84861 14.9427ZM20.3348 12.1985C20.3677 14.6792 20.1642 17.1573 19.7271 19.5994L12.6205 19.0621C12.7164 18.6079 12.7996 18.1026 12.8763 17.5461C13.8349 16.6064 14.6787 15.5564 15.3902 14.4181C16.0299 13.7785 17.7889 11.8595 17.4627 10.5802C17.3993 10.3245 17.2704 10.0898 17.0887 9.89911C16.907 9.70843 16.6787 9.56838 16.4264 9.49276C15.9223 9.36551 15.396 9.35348 14.8866 9.45757C14.3772 9.56167 13.8978 9.77921 13.484 10.094C13.4213 10.1461 13.3615 10.2017 13.3049 10.2604C13.3049 9.56313 13.3049 9.12816 13.3049 9.12816C13.3049 8.61643 13.3049 8.09191 13.3817 7.56739C13.5666 5.76464 13.997 3.99561 14.661 2.3094L22.0171 3.45439C20.8465 5.56526 20.29 8.44372 20.3348 12.1985Z" fill="#F90000"/>
</svg>
