<svg width="127" height="126" viewBox="0 0 127 126" fill="none" xmlns="http://www.w3.org/2000/svg">
<path d="M112.578 33.576C112.578 30.3438 112.606 27.028 112.606 23.4336C112.606 21.0094 111.934 19.1147 110.618 17.833C109.302 16.5512 107.425 15.9382 105.017 15.9661C91.3787 16.2169 79.1968 12.2324 68.8352 4.09614C64.9706 1.11471 61.8621 1.08685 58.0535 4.09614C50.0162 10.3934 40.8868 14.2386 30.9172 15.5482C28.0887 15.9104 25.1483 15.9661 22.5439 15.9661C22.3758 15.9661 22.1798 15.9661 22.0118 15.9661C16.859 15.9661 14.2266 18.5296 14.2266 23.6008C14.2266 25.2726 14.2266 26.9166 14.2266 28.5884V30.4831V45.5853V61.3841C14.2546 62.833 14.2546 64.2819 14.2546 65.7029C14.2546 69.2974 14.2546 73.0311 14.6466 76.6813C16.1869 90.5853 23.104 101.48 35.2019 109.059C40.4667 112.347 45.9836 115.44 51.3324 118.449C53.4887 119.675 55.7291 120.929 57.9134 122.155C59.7057 123.186 61.526 123.687 63.3743 123.687C65.3346 123.687 67.3229 123.102 69.3112 121.96C71.9997 120.4 74.7441 118.839 77.4045 117.335C81.4932 114.994 85.7498 112.57 89.8945 110.174C102.328 102.929 109.694 92.48 111.822 79.1054C112.466 75.0373 112.494 70.802 112.522 66.706C112.522 65.2014 112.55 63.6132 112.578 62.0807V47.9816C112.55 42.8547 112.55 38.3407 112.578 33.576ZM106.557 55.6163C106.585 60.7432 106.613 66.0373 106.501 71.2478C106.193 85.8206 99.836 96.9661 87.5981 104.378C83.3414 106.941 78.9448 109.449 74.6881 111.873C71.9717 113.406 69.1712 115.022 66.3988 116.61C64.3265 117.836 62.4222 117.808 60.2938 116.554C56.8213 114.52 53.2367 112.486 49.7922 110.508C46.3756 108.557 42.8471 106.551 39.4025 104.517C29.1529 98.4986 22.8519 89.415 20.7516 77.4893C20.3875 75.4831 20.3035 74.6194 20.2755 72.6968L20.2475 71.5543C20.2195 57.8454 20.2195 43.1333 20.2195 30.1488V24.381C20.2195 23.4615 20.2475 22.542 20.4715 22.319C20.6676 22.124 21.3397 22.0961 22.0118 22.0961C22.1238 22.0961 22.2638 22.0961 22.3758 22.0961C37.1342 22.2633 50.3523 17.833 61.694 8.86084C62.9262 7.88561 63.7664 7.88561 64.9145 8.80512C73.4839 15.7711 83.5655 20.0621 94.9633 21.5946C97.4557 21.929 100.004 21.9847 102.468 22.0404C103.057 22.0404 103.617 22.0683 104.205 22.0683C105.073 22.0961 106.025 22.124 106.277 22.3469C106.501 22.542 106.501 23.4057 106.501 24.2974C106.501 30.093 106.501 35.8887 106.501 41.6844V48.5667C106.529 50.9073 106.557 53.3036 106.557 55.6163Z" fill="#F90000" stroke="#F90000" stroke-width="0.5"/>
<path d="M59.9577 34.3281C52.0885 35.6656 45.5635 41.7399 43.7432 49.4582C41.8669 57.3436 44.9754 65.7585 51.4444 70.3839C52.6206 71.2198 52.9006 71.9164 52.6206 73.3653C51.8925 77.2941 51.3324 81.3065 50.8283 85.0402C50.5763 86.8514 50.9963 88.4396 51.9765 89.582C52.9846 90.7523 54.5249 91.421 56.4012 91.4489C57.2693 91.4767 58.1655 91.4767 59.0336 91.4767C59.7617 91.4767 60.4618 91.4767 61.1619 91.4767C61.862 91.4767 62.5622 91.4767 63.2623 91.4767C63.9904 91.4767 64.7185 91.4767 65.4466 91.4767C67.0429 91.4767 68.6951 91.5046 70.3194 91.4489C72.2237 91.3932 73.7639 90.7523 74.7441 89.582C75.7522 88.3839 76.1443 86.7678 75.8923 84.8452C75.7802 83.9257 75.6402 83.034 75.5282 82.1145C75.1641 79.3003 74.8001 76.3746 74.184 73.5325C73.8199 71.8049 74.296 71.1083 75.6402 70.1052C83.0894 64.5046 85.6378 54.5572 81.8292 45.9195C78.1886 37.6718 68.9752 32.7956 59.9577 34.3281ZM67.5749 72.2507C68.191 75.3157 68.5831 78.3808 68.9752 81.6408C69.1152 82.7554 69.2552 83.9257 69.4232 85.0959H57.4093C57.4934 84.4829 57.5774 83.8699 57.6334 83.2569C57.8854 81.2229 58.1375 79.3281 58.3895 77.3777C58.6695 75.3993 59.0056 73.3931 59.3136 71.4705L59.3977 70.8854C59.8177 68.3777 58.2495 67.1238 56.6532 66.26C51.0523 63.2229 49.064 57.3157 49.5681 53.1083C50.3522 46.6439 54.1048 42.2693 60.1258 40.7925C66.7068 39.1764 73.5959 42.6315 76.1443 48.8173C78.8047 55.226 76.4243 62.582 70.5994 65.8978C67.827 67.5139 66.9869 69.2693 67.5749 72.2507Z" fill="#F90000" stroke="#F90000" stroke-width="0.3"/>
</svg>
