<svg width="40" height="40" viewBox="0 0 40 40" fill="none" xmlns="http://www.w3.org/2000/svg">
<g clip-path="url(#clip0_970_7500)">
<path d="M3.0022 9.34985C3.0904 9.65945 3.14332 9.9602 3.0022 10.2698C3.0022 9.9602 3.0022 9.65061 3.0022 9.34985Z" fill="#F90000" stroke="#F90000"/>
<path d="M23.9857 6.65189C28.9427 6.86418 33.3705 10.4201 34.5436 15.4887C34.7288 16.3025 34.8347 17.134 34.8347 17.9655C34.8347 18.3812 34.6054 18.6554 34.2525 18.6554C33.9086 18.6554 33.6528 18.3901 33.6439 17.9743C33.6263 17.0278 33.5028 16.099 33.2294 15.1968C32.4003 12.4281 30.698 10.3582 28.1665 8.99598C26.8259 8.27064 25.3882 7.89028 23.8711 7.84605C23.6947 7.8372 23.5183 7.81951 23.3507 7.79297C23.042 7.7399 22.8744 7.55414 22.8567 7.24454C22.8391 6.91726 23.0067 6.72265 23.3242 6.64304C23.5535 6.58112 23.7829 6.66073 23.9857 6.65189Z" fill="#F90000" stroke="#F90000"/>
<path d="M23.8357 10.2432C27.893 10.429 31.2094 13.8788 31.2271 17.9389C31.2271 18.3547 31.0066 18.6377 30.6537 18.6554C30.3009 18.6731 30.0451 18.3989 30.0275 17.9566C29.9393 15.7541 29.0308 13.9761 27.2491 12.6669C26.226 11.915 25.0617 11.5081 23.7916 11.4462C23.624 11.4374 23.4652 11.4285 23.3064 11.3932C22.9889 11.3224 22.8302 11.1101 22.839 10.7828C22.8478 10.4821 23.0595 10.2698 23.377 10.2344C23.5358 10.2344 23.6857 10.2432 23.8357 10.2432Z" fill="#F90000" stroke="#F90000"/>
<path d="M23.6593 13.8611C25.785 13.9319 27.6108 15.8071 27.6373 17.9389C27.6461 18.3547 27.4256 18.6377 27.0728 18.6643C26.7376 18.6908 26.473 18.4431 26.4377 18.0185C26.3672 17.0809 26.0143 16.2936 25.2734 15.7098C24.7707 15.3118 24.1974 15.1083 23.5623 15.0729C23.086 15.0464 22.8479 14.8253 22.8479 14.4626C22.839 14.038 23.1213 13.8434 23.6593 13.8611Z" fill="#F90000" stroke="#F90000"/>
<path d="M37.9482 29.571C35.6196 28.0141 33.2911 26.4573 30.9625 24.9005C29.8247 24.1397 28.6869 24.3344 27.8401 25.4224C27.1962 26.245 26.5612 27.0765 25.9173 27.8991C25.5292 28.3945 25.1058 28.4918 24.559 28.1911C24.0386 27.8991 23.5182 27.6072 23.0066 27.2976C21.1455 26.1477 19.5579 24.6616 18.0231 23.1313C15.9857 21.1057 14.0805 18.9739 12.7663 16.3821C12.4487 15.7629 12.5193 15.3649 13.0661 14.9403C13.8688 14.3122 14.6803 13.6842 15.4829 13.0562C16.5943 12.1804 16.7707 11.057 15.9857 9.87173C14.548 7.71339 13.1014 5.5639 11.6902 3.38787C11.2227 2.67137 10.7288 2.0168 9.84674 1.79565C9.60859 1.79565 9.37927 1.79565 9.14112 1.79565C8.68246 1.83104 8.30319 2.04333 7.9151 2.27332C7.07717 2.77752 6.25688 3.30826 5.41014 3.79477C4.25468 4.45819 3.55788 5.4489 3.2227 6.73152C3.09922 7.22688 3.09922 7.73108 3.0022 8.21759C3.0022 8.59795 3.0022 8.96947 3.0022 9.34983C3.06394 9.65943 3.06394 9.96018 3.0022 10.2698C3.0022 10.314 3.0022 10.3671 3.0022 10.4113C3.07276 10.429 3.07276 10.4998 3.07276 10.5528C3.15214 11.4816 3.34619 12.3839 3.6108 13.2773C4.40462 15.9929 5.73649 18.4343 7.37706 20.7076C10.9405 25.6612 15.1918 29.9248 20.1136 33.5161C22.054 34.9226 24.1268 36.1079 26.3848 36.9394C28.6163 37.7532 30.8919 38.1689 33.2822 37.8151C34.9757 37.5674 36.2988 36.8156 37.1279 35.2676C37.5954 34.4007 38.1334 33.5781 38.6362 32.7289C39.3682 31.4993 39.1213 30.3582 37.9482 29.571ZM37.5954 32.1185C37.075 32.9942 36.5193 33.8523 36.0254 34.7457C35.3991 35.8691 34.4377 36.4263 33.2029 36.5944C32.7001 36.6652 32.2062 36.7183 31.6946 36.7359C29.7718 36.7448 27.9371 36.2937 26.1643 35.5683C23.2095 34.3476 20.6075 32.5608 18.1819 30.5086C14.1069 27.0588 10.4112 23.2463 7.4829 18.7439C6.1334 16.6652 5.05732 14.4626 4.50165 12.0301C4.13119 10.3848 4.06063 8.73064 4.44872 7.06766C4.66923 6.13002 5.18081 5.43121 5.99227 4.93586C6.96251 4.3432 7.93274 3.75939 8.91179 3.18442C9.44101 2.86598 9.93494 2.98097 10.2789 3.50286C11.8578 5.86465 13.4278 8.23528 14.989 10.5971C15.3771 11.1809 15.2977 11.6409 14.7508 12.0743C13.9305 12.72 13.1014 13.3569 12.2811 14.0026C11.2668 14.7987 11.0728 15.816 11.6637 16.9659C13.0573 19.6815 15.0507 21.9195 17.1852 24.0424C18.7729 25.617 20.4046 27.1296 22.3098 28.3149C22.8567 28.651 23.4212 28.9695 23.9857 29.2702C25.0353 29.8275 26.0584 29.6064 26.7993 28.6687C27.4432 27.8549 28.0695 27.0323 28.7045 26.2185C29.2161 25.5551 29.6306 25.4843 30.3274 25.9531C32.6295 27.4922 34.9228 29.0314 37.2249 30.5705C37.9041 30.9951 38.0011 31.4463 37.5954 32.1185Z" fill="#F90000" stroke="#F90000"/>
</g>
<defs>
<clipPath id="clip0_970_7500">
<rect width="40" height="40" fill="white"/>
</clipPath>
</defs>
</svg>