<svg width="24" height="24" viewBox="0 0 24 24" fill="none" xmlns="http://www.w3.org/2000/svg">
<path d="M16.0235 17.1043H4.95096V7.35593H16.4648V5.95508H3.55011V18.5052H16.0235V17.1043Z" fill="#FF0000"/>
<path d="M3.10233 5.97461H1.70148V18.5311H3.10233V5.97461Z" fill="#FF0000"/>
<path d="M1.26013 5.97461H0V18.5311H1.26013V5.97461Z" fill="#FF0000"/>
<path d="M12.5437 0.844238C10.7463 0.844238 9.5949 1.81012 8.66739 2.87835V2.31545H7.26654V5.51375H10.4648V4.1001H9.45417C10.3945 2.99989 11.2132 2.24509 12.5437 2.24509C15.5245 2.24509 17.9552 6.62036 17.9552 11.9999C17.9552 17.3794 15.5245 21.7483 12.5437 21.7483C11.1365 21.7483 9.79319 20.744 8.76334 18.9146L8.68658 18.7739L7.47123 19.4647L7.54799 19.6054C8.82731 21.889 10.612 23.1491 12.5437 23.1491C16.3817 23.1491 19.3497 18.2494 19.3497 11.9935C19.3497 5.73763 16.3625 0.844238 12.5437 0.844238Z" fill="#FF0000"/>
<path d="M19.0298 5.95508V7.35593H22.5991V17.1043H18.8571V18.5052H24V5.95508H19.0298Z" fill="#FF0000"/>
</svg>
