<svg width="30" height="30" viewBox="0 0 30 30" fill="none" xmlns="http://www.w3.org/2000/svg">
<path d="M15 1.25C12.2805 1.25 9.62209 2.05642 7.36092 3.56729C5.09974 5.07816 3.33737 7.22562 2.29666 9.7381C1.25596 12.2506 0.983662 15.0153 1.51421 17.6825C2.04476 20.3497 3.35432 22.7997 5.27729 24.7227C7.20026 26.6457 9.65028 27.9552 12.3175 28.4858C14.9848 29.0163 17.7494 28.744 20.2619 27.7033C22.7744 26.6626 24.9218 24.9003 26.4327 22.6391C27.9436 20.3779 28.75 17.7195 28.75 15C28.7457 11.3546 27.2957 7.85973 24.718 5.28203C22.1403 2.70434 18.6454 1.2543 15 1.25ZM15 26.25C12.6731 26.1959 10.4116 25.4692 8.48876 24.1575C9.30936 23.2434 10.3133 22.5123 11.4351 22.0118C12.5569 21.5113 13.7716 21.2527 15 21.2527C16.2284 21.2527 17.4431 21.5113 18.5649 22.0118C19.6868 22.5123 20.6906 23.2434 21.5113 24.1575C19.6044 25.5016 17.3328 26.2316 15 26.25ZM23.3675 22.4925C22.3146 21.3151 21.0251 20.3731 19.5832 19.7281C18.1413 19.0832 16.5795 18.7499 15 18.7499C13.4205 18.7499 11.8587 19.0832 10.4168 19.7281C8.97493 20.3731 7.6854 21.3151 6.63251 22.4925C5.17935 20.8755 4.22583 18.8722 3.88727 16.7247C3.5487 14.5772 3.8396 12.3777 4.72479 10.392C5.60997 8.40643 7.05151 6.71981 8.87505 5.5362C10.6986 4.35259 12.826 3.7227 15 3.7227C17.174 3.7227 19.3014 4.35259 21.125 5.5362C22.9485 6.71981 24.39 8.40643 25.2752 10.392C26.1604 12.3777 26.4513 14.5772 26.1127 16.7247C25.7742 18.8722 24.8207 20.8755 23.3675 22.4925ZM15 7.5C14.0111 7.5 13.0444 7.79324 12.2222 8.34265C11.3999 8.89206 10.759 9.67295 10.3806 10.5866C10.0022 11.5002 9.90315 12.5055 10.0961 13.4755C10.289 14.4454 10.7652 15.3363 11.4645 16.0355C12.1637 16.7348 13.0546 17.211 14.0246 17.4039C14.9945 17.5969 15.9998 17.4978 16.9134 17.1194C17.8271 16.741 18.6079 16.1001 19.1574 15.2779C19.7068 14.4556 20 13.4889 20 12.5C20 11.1739 19.4732 9.90215 18.5355 8.96447C17.5979 8.02678 16.3261 7.5 15 7.5ZM15 15C14.5056 15 14.0222 14.8534 13.6111 14.5787C13.2 14.304 12.8795 13.9135 12.6903 13.4567C12.5011 12.9999 12.4516 12.4972 12.548 12.0123C12.6445 11.5273 12.8826 11.0819 13.2322 10.7322C13.5819 10.3826 14.0273 10.1445 14.5123 10.048C14.9972 9.95157 15.4999 10.0011 15.9567 10.1903C16.4135 10.3795 16.804 10.7 17.0787 11.1111C17.3534 11.5222 17.5 12.0055 17.5 12.5C17.5 13.163 17.2366 13.7989 16.7678 14.2678C16.2989 14.7366 15.663 15 15 15Z" fill="#F90000"/>
</svg>
