<svg width="38" height="44" viewBox="0 0 38 44" fill="none" xmlns="http://www.w3.org/2000/svg">
<path d="M37.5419 41.2378V2.85826C37.542 2.13079 37.2546 1.43276 36.7425 0.916123C36.2303 0.399482 35.5348 0.106062 34.8074 0.0997364H3.19225C2.47046 0.0928443 1.77424 0.36671 1.25058 0.86351C0.726927 1.36031 0.416822 2.04116 0.385742 2.76232V41.1418C0.392068 41.8693 0.685488 42.5648 1.20213 43.0769C1.71877 43.5891 2.4168 43.8764 3.14427 43.8764H34.8074C35.5163 43.8768 36.1977 43.6019 36.7078 43.1097C37.218 42.6174 37.517 41.9463 37.5419 41.2378Z" fill="#5B5B5B"/>
<path d="M25.8605 30.9233H34.1121C34.2966 30.9233 34.4736 30.9966 34.604 31.1271C34.7345 31.2575 34.8078 31.4345 34.8078 31.619V39.8466C34.8078 40.0311 34.7345 40.208 34.604 40.3385C34.4736 40.4689 34.2966 40.5422 34.1121 40.5422H25.8605C25.7703 40.5423 25.6809 40.5241 25.5979 40.4889C25.5148 40.4536 25.4396 40.402 25.3769 40.3371C25.3142 40.2722 25.2653 40.1953 25.233 40.111C25.2007 40.0267 25.1857 39.9368 25.1889 39.8466V31.619C25.1857 31.5288 25.2007 31.4388 25.233 31.3546C25.2653 31.2703 25.3142 31.1934 25.3769 31.1285C25.4396 31.0635 25.5148 31.0119 25.5979 30.9767C25.6809 30.9414 25.7703 30.9233 25.8605 30.9233Z" fill="#B0C4D9"/>
<path d="M3.88771 3.38599H34.1116C34.2961 3.38599 34.473 3.45928 34.6035 3.58973C34.7339 3.72019 34.8072 3.89712 34.8072 4.08162V16.459C34.801 16.6393 34.725 16.8102 34.5952 16.9355C34.4654 17.0608 34.292 17.1308 34.1116 17.1307H3.88771C3.7073 17.1308 3.53391 17.0608 3.40412 16.9355C3.27433 16.8102 3.19831 16.6393 3.19209 16.459V4.12959C3.1855 4.03429 3.19861 3.93864 3.23061 3.84863C3.2626 3.75861 3.3128 3.67616 3.37806 3.60639C3.44332 3.53663 3.52226 3.48105 3.60994 3.44313C3.69763 3.40521 3.79218 3.38576 3.88771 3.38599Z" fill="#89C763"/>
<path d="M3.88801 30.9233H12.1156C12.3001 30.9233 12.4771 30.9966 12.6075 31.1271C12.738 31.2575 12.8113 31.4345 12.8113 31.619V39.8466C12.8113 40.0311 12.738 40.208 12.6075 40.3385C12.4771 40.4689 12.3001 40.5422 12.1156 40.5422H3.88801C3.70352 40.5422 3.52658 40.4689 3.39613 40.3385C3.26567 40.208 3.19238 40.0311 3.19238 39.8466V31.619C3.19238 31.4345 3.26567 31.2575 3.39613 31.1271C3.52658 30.9966 3.70352 30.9233 3.88801 30.9233Z" fill="#7C7C7C"/>
<path d="M14.7786 30.9233H23.0302C23.2105 30.9296 23.3814 31.0056 23.5067 31.1354C23.632 31.2652 23.702 31.4386 23.7019 31.619V39.8466C23.702 40.027 23.632 40.2004 23.5067 40.3302C23.3814 40.46 23.2105 40.536 23.0302 40.5422H14.7786C14.5941 40.5422 14.4172 40.4689 14.2868 40.3385C14.1563 40.208 14.083 40.0311 14.083 39.8466V31.619C14.083 31.4345 14.1563 31.2575 14.2868 31.1271C14.4172 30.9966 14.5941 30.9233 14.7786 30.9233Z" fill="#7C7C7C"/>
<path d="M25.8605 19.937H34.1121C34.2926 19.9369 34.466 20.0069 34.5957 20.1322C34.7255 20.2575 34.8016 20.4284 34.8078 20.6087V28.8603C34.8078 29.0447 34.7345 29.2217 34.604 29.3521C34.4736 29.4826 34.2966 29.5559 34.1121 29.5559H25.8605C25.7703 29.5559 25.6809 29.5378 25.5979 29.5026C25.5148 29.4673 25.4396 29.4157 25.3769 29.3508C25.3142 29.2858 25.2653 29.2089 25.233 29.1247C25.2007 29.0404 25.1857 28.9505 25.1889 28.8603V20.6087C25.1889 20.4305 25.2597 20.2597 25.3856 20.1337C25.5116 20.0078 25.6824 19.937 25.8605 19.937Z" fill="#F40000"/>
<path d="M3.88801 19.937H12.1156C12.296 19.9369 12.4694 20.0069 12.5992 20.1322C12.729 20.2575 12.805 20.4284 12.8113 20.6087V28.8603C12.8113 29.0447 12.738 29.2217 12.6075 29.3521C12.4771 29.4826 12.3001 29.5559 12.1156 29.5559H3.88801C3.70352 29.5559 3.52658 29.4826 3.39613 29.3521C3.26567 29.2217 3.19238 29.0447 3.19238 28.8603V20.6087C3.1986 20.4284 3.27463 20.2575 3.40442 20.1322C3.53421 20.0069 3.7076 19.9369 3.88801 19.937Z" fill="#7C7C7C"/>
<path d="M14.7786 19.937H23.0302C23.2065 19.943 23.3738 20.0157 23.4985 20.1404C23.6232 20.265 23.6959 20.4324 23.7019 20.6087V28.8603C23.702 29.0407 23.632 29.2141 23.5067 29.3438C23.3814 29.4736 23.2105 29.5497 23.0302 29.5559H14.7786C14.5941 29.5559 14.4172 29.4826 14.2868 29.3521C14.1563 29.2217 14.083 29.0447 14.083 28.8603V20.6087C14.0892 20.4284 14.1653 20.2575 14.295 20.1322C14.4248 20.0069 14.5982 19.9369 14.7786 19.937Z" fill="#7C7C7C"/>
<path d="M9.98075 24.063H8.61348V22.5758C8.58349 22.4164 8.49876 22.2725 8.37393 22.169C8.2491 22.0655 8.09202 22.0088 7.92984 22.0088C7.76766 22.0088 7.61058 22.0655 7.48575 22.169C7.36092 22.2725 7.27619 22.4164 7.2462 22.5758V23.9671H5.87893C5.77845 23.9482 5.67503 23.9516 5.57604 23.9772C5.47705 24.0029 5.38493 24.05 5.30623 24.1153C5.22753 24.1805 5.16418 24.2624 5.12071 24.3549C5.07723 24.4475 5.05469 24.5484 5.05469 24.6507C5.05469 24.7529 5.07723 24.8539 5.12071 24.9465C5.16418 25.039 5.22753 25.1209 5.30623 25.1861C5.38493 25.2514 5.47705 25.2985 5.57604 25.3241C5.67503 25.3498 5.77845 25.3532 5.87893 25.3343H7.2462V26.7016C7.2273 26.8021 7.23078 26.9055 7.2564 27.0045C7.28201 27.1035 7.32914 27.1956 7.39441 27.2743C7.45969 27.353 7.54151 27.4164 7.63406 27.4598C7.7266 27.5033 7.82759 27.5258 7.92984 27.5258C8.03209 27.5258 8.13308 27.5033 8.22563 27.4598C8.31817 27.4164 8.39999 27.353 8.46527 27.2743C8.53055 27.1956 8.57767 27.1035 8.60329 27.0045C8.6289 26.9055 8.63238 26.8021 8.61348 26.7016V25.3343H9.98075C10.0812 25.3532 10.1847 25.3498 10.2836 25.3241C10.3826 25.2985 10.4748 25.2514 10.5535 25.1861C10.6322 25.1209 10.6955 25.039 10.739 24.9465C10.7825 24.8539 10.805 24.7529 10.805 24.6507C10.805 24.5484 10.7825 24.4475 10.739 24.3549C10.6955 24.2624 10.6322 24.1805 10.5535 24.1153C10.4748 24.05 10.3826 24.0029 10.2836 23.9772C10.1847 23.9516 10.0812 23.9482 9.98075 23.9671V24.063Z" fill="#E2E5E7"/>
<path d="M21.0633 25.43H16.9375C16.837 25.449 16.7336 25.4455 16.6346 25.4199C16.5356 25.3942 16.4435 25.3471 16.3648 25.2818C16.2861 25.2166 16.2228 25.1347 16.1793 25.0422C16.1358 24.9497 16.1133 24.8487 16.1133 24.7464C16.1133 24.6442 16.1358 24.5432 16.1793 24.4506C16.2228 24.3581 16.2861 24.2763 16.3648 24.211C16.4435 24.1457 16.5356 24.0986 16.6346 24.073C16.7336 24.0473 16.837 24.0439 16.9375 24.0628H21.0633C21.2227 24.0928 21.3666 24.1775 21.4701 24.3023C21.5737 24.4271 21.6303 24.5842 21.6303 24.7464C21.6303 24.9086 21.5737 25.0657 21.4701 25.1905C21.3666 25.3153 21.2227 25.4001 21.0633 25.43Z" fill="#E2E5E7"/>
<path d="M27.9229 35.0492H32.0487C32.1492 35.0681 32.2526 35.0646 32.3516 35.039C32.4506 35.0134 32.5427 34.9663 32.6214 34.901C32.7001 34.8357 32.7634 34.7539 32.8069 34.6613C32.8504 34.5688 32.8729 34.4678 32.8729 34.3656C32.8729 34.2633 32.8504 34.1623 32.8069 34.0698C32.7634 33.9772 32.7001 33.8954 32.6214 33.8301C32.5427 33.7648 32.4506 33.7177 32.3516 33.6921C32.2526 33.6665 32.1492 33.663 32.0487 33.6819H27.9229C27.8224 33.663 27.719 33.6665 27.62 33.6921C27.521 33.7177 27.4289 33.7648 27.3502 33.8301C27.2715 33.8954 27.2081 33.9772 27.1646 34.0698C27.1212 34.1623 27.0986 34.2633 27.0986 34.3656C27.0986 34.4678 27.1212 34.5688 27.1646 34.6613C27.2081 34.7539 27.2715 34.8357 27.3502 34.901C27.4289 34.9663 27.521 35.0134 27.62 35.039C27.719 35.0646 27.8224 35.0681 27.9229 35.0492Z" fill="#35495C"/>
<path d="M32.049 36.4165H27.9232C27.7387 36.4165 27.5617 36.4898 27.4313 36.6202C27.3008 36.7507 27.2275 36.9276 27.2275 37.1121C27.2275 37.2966 27.3008 37.4736 27.4313 37.604C27.5617 37.7345 27.7387 37.8078 27.9232 37.8078H32.049C32.2335 37.8078 32.4104 37.7345 32.5409 37.604C32.6713 37.4736 32.7446 37.2966 32.7446 37.1121C32.7446 36.9276 32.6713 36.7507 32.5409 36.6202C32.4104 36.4898 32.2335 36.4165 32.049 36.4165Z" fill="#35495C"/>
<path d="M21.0633 35.0491H16.9375C16.837 35.0302 16.7336 35.0337 16.6346 35.0593C16.5356 35.0849 16.4435 35.132 16.3648 35.1973C16.2861 35.2626 16.2228 35.3444 16.1793 35.437C16.1358 35.5295 16.1133 35.6305 16.1133 35.7327C16.1133 35.835 16.1358 35.936 16.1793 36.0285C16.2228 36.1211 16.2861 36.2029 16.3648 36.2682C16.4435 36.3334 16.5356 36.3806 16.6346 36.4062C16.7336 36.4318 16.837 36.4353 16.9375 36.4164H21.0633C21.2227 36.3864 21.3666 36.3017 21.4701 36.1768C21.5737 36.052 21.6303 35.8949 21.6303 35.7327C21.6303 35.5706 21.5737 35.4135 21.4701 35.2886C21.3666 35.1638 21.2227 35.0791 21.0633 35.0491Z" fill="#E2E5E7"/>
<path d="M19.0003 34.3776C19.3845 34.3776 19.6959 34.0661 19.6959 33.682C19.6959 33.2978 19.3845 32.9863 19.0003 32.9863C18.6161 32.9863 18.3047 33.2978 18.3047 33.682C18.3047 34.0661 18.6161 34.3776 19.0003 34.3776Z" fill="#E2E5E7"/>
<path d="M19.0003 38.5031C19.3845 38.5031 19.6959 38.1916 19.6959 37.8074C19.6959 37.4233 19.3845 37.1118 19.0003 37.1118C18.6161 37.1118 18.3047 37.4233 18.3047 37.8074C18.3047 38.1916 18.6161 38.5031 19.0003 38.5031Z" fill="#E2E5E7"/>
<path d="M30.0585 28.1888C29.1587 28.1759 28.2989 27.8148 27.6598 27.1813C27.027 26.5433 26.6719 25.6812 26.6719 24.7826C26.6719 23.884 27.027 23.0218 27.6598 22.3839C28.3191 21.7363 29.2063 21.3735 30.1304 21.3735C31.0546 21.3735 31.9418 21.7363 32.6011 22.3839C32.6649 22.4464 32.7156 22.521 32.7503 22.6034C32.7849 22.6858 32.8027 22.7742 32.8027 22.8636C32.8027 22.953 32.7849 23.0414 32.7503 23.1238C32.7156 23.2062 32.6649 23.2808 32.6011 23.3433C32.5386 23.4072 32.4639 23.4579 32.3816 23.4925C32.2992 23.5271 32.2107 23.5449 32.1214 23.5449C32.032 23.5449 31.9436 23.5271 31.8612 23.4925C31.7788 23.4579 31.7042 23.4072 31.6416 23.3433C31.2404 22.962 30.708 22.7494 30.1544 22.7494C29.6009 22.7494 29.0685 22.962 28.6672 23.3433C28.4743 23.5351 28.3212 23.763 28.2167 24.0142C28.1122 24.2653 28.0585 24.5346 28.0585 24.8066C28.0585 25.0785 28.1122 25.3478 28.2167 25.599C28.3212 25.8501 28.4743 26.0781 28.6672 26.2698C29.0626 26.6624 29.5972 26.8827 30.1544 26.8827C30.7116 26.8827 31.2462 26.6624 31.6416 26.2698C31.775 26.145 31.9507 26.0756 32.1334 26.0756C32.316 26.0756 32.4918 26.145 32.6251 26.2698C32.6927 26.3326 32.7465 26.4087 32.7834 26.4933C32.8202 26.578 32.8393 26.6692 32.8393 26.7615C32.8393 26.8538 32.8202 26.9451 32.7834 27.0297C32.7465 27.1143 32.6927 27.1904 32.6251 27.2533C32.2826 27.5743 31.8786 27.8228 31.4375 27.9835C30.9964 28.1443 30.5273 28.2141 30.0585 28.1888Z" fill="#E2E5E7"/>
<path d="M34.1119 3.38599H3.88801C3.70352 3.38599 3.52658 3.45928 3.39613 3.58973C3.26567 3.72019 3.19238 3.89712 3.19238 4.08162V5.44889C3.1986 5.26858 3.27463 5.09775 3.40442 4.97244C3.53421 4.84712 3.7076 4.77714 3.88801 4.77724H34.1119C34.2923 4.77714 34.4657 4.84712 34.5955 4.97244C34.7253 5.09775 34.8013 5.26858 34.8075 5.44889V4.08162C34.8075 3.99026 34.7895 3.89981 34.7546 3.81541C34.7196 3.73101 34.6684 3.65433 34.6038 3.58973C34.5392 3.52514 34.4625 3.4739 34.3781 3.43894C34.2937 3.40398 34.2032 3.38599 34.1119 3.38599Z" fill="#3CB54A"/>
<path d="M29.986 15.1157H28.6187C28.3469 15.1189 28.0772 15.0678 27.8255 14.9652C27.5737 14.8627 27.345 14.7109 27.1528 14.5187C26.9606 14.3265 26.8088 14.0978 26.7063 13.846C26.6038 13.5943 26.5526 13.3246 26.5558 13.0528V8.95098C26.5526 8.67919 26.6038 8.40949 26.7063 8.15775C26.8088 7.90602 26.9606 7.67733 27.1528 7.48512C27.345 7.29292 27.5737 7.14109 27.8255 7.03856C28.0772 6.93603 28.3469 6.88487 28.6187 6.88808H29.986C30.2578 6.88487 30.5275 6.93603 30.7792 7.03856C31.0309 7.14109 31.2596 7.29292 31.4518 7.48512C31.644 7.67733 31.7959 7.90602 31.8984 8.15775C32.0009 8.40949 32.0521 8.67919 32.0489 8.95098V12.9808C32.062 13.2586 32.0181 13.5361 31.9201 13.7963C31.822 14.0564 31.6717 14.2938 31.4785 14.4938C31.2852 14.6937 31.0532 14.852 30.7965 14.959C30.5398 15.0659 30.264 15.1193 29.986 15.1157ZM28.6187 8.18339C28.4342 8.18339 28.2573 8.25668 28.1268 8.38714C27.9964 8.51759 27.9231 8.69453 27.9231 8.87902V12.9808C27.9231 13.1653 27.9964 13.3423 28.1268 13.4727C28.2573 13.6032 28.4342 13.6765 28.6187 13.6765H29.986C30.1705 13.6765 30.3474 13.6032 30.4779 13.4727C30.6083 13.3423 30.6816 13.1653 30.6816 12.9808V8.95098C30.6816 8.76649 30.6083 8.58955 30.4779 8.4591C30.3474 8.32864 30.1705 8.25535 29.986 8.25535L28.6187 8.18339Z" fill="#0E9347"/>
<path d="M8.97365 35.7449L9.86118 34.8574C9.98596 34.7241 10.0554 34.5483 10.0554 34.3656C10.0554 34.183 9.98596 34.0072 9.86118 33.8739C9.7326 33.7687 9.57157 33.7112 9.40542 33.7112C9.23927 33.7112 9.07824 33.7687 8.94966 33.8739L8.06213 34.7614L7.1986 33.8739C7.06527 33.7491 6.88948 33.6797 6.70686 33.6797C6.52424 33.6797 6.34845 33.7491 6.21512 33.8739C6.10989 34.0025 6.0524 34.1635 6.0524 34.3297C6.0524 34.4958 6.10989 34.6568 6.21512 34.7854L7.10265 35.6729L6.21512 36.5605C6.07834 36.6782 5.99392 36.8454 5.98042 37.0253C5.96693 37.2053 6.02546 37.3832 6.14316 37.52C6.26085 37.6567 6.42806 37.7412 6.608 37.7547C6.78794 37.7682 6.96587 37.7096 7.10265 37.5919L7.96619 36.7044L8.85371 37.5919C8.98704 37.7167 9.16283 37.7861 9.34545 37.7861C9.52807 37.7861 9.70386 37.7167 9.83719 37.5919C9.94055 37.4671 9.99712 37.3102 9.99712 37.1482C9.99712 36.9861 9.94055 36.8292 9.83719 36.7044L8.97365 35.7449Z" fill="#E2E5E7"/>
<path d="M36.1748 4.12948V41.2377C36.1686 41.5984 36.0226 41.9426 35.7675 42.1977C35.5124 42.4528 35.1682 42.5988 34.8075 42.605H4.55965C4.19896 42.6111 3.85476 42.7572 3.59967 43.0122C3.34458 43.2673 3.19855 43.6115 3.19238 43.9722H34.8075C35.5328 43.9722 36.2283 43.6841 36.7411 43.1713C37.254 42.6585 37.5421 41.9629 37.5421 41.2377V2.85816C37.1938 2.85144 36.8566 2.98027 36.6015 3.21746C36.3464 3.45465 36.1934 3.78166 36.1748 4.12948Z" fill="#444444"/>
<path d="M33.4163 32.9861V39.1748H27.2276C26.865 39.1748 26.5172 39.3189 26.2608 39.5753C26.0044 39.8317 25.8604 40.1795 25.8604 40.5421H34.1119C34.2964 40.5421 34.4734 40.4688 34.6038 40.3384C34.7343 40.2079 34.8076 40.031 34.8076 39.8465V31.6189C34.626 31.6157 34.4456 31.6487 34.277 31.716C34.1083 31.7833 33.9547 31.8835 33.8252 32.0107C33.6957 32.138 33.5929 32.2898 33.5226 32.4573C33.4524 32.6248 33.4163 32.8045 33.4163 32.9861Z" fill="#99B5CD"/>
<path d="M33.4163 22.0001V28.1888H27.2276C26.865 28.1888 26.5172 28.3329 26.2608 28.5893C26.0044 28.8457 25.8604 29.1935 25.8604 29.5561H34.1119C34.2964 29.5561 34.4734 29.4828 34.6038 29.3524C34.7343 29.2219 34.8076 29.045 34.8076 28.8605V20.6089C34.6249 20.6089 34.444 20.6449 34.2752 20.7148C34.1064 20.7847 33.953 20.8872 33.8238 21.0164C33.6946 21.1456 33.5921 21.2989 33.5222 21.4677C33.4523 21.6365 33.4163 21.8174 33.4163 22.0001Z" fill="#C61C31"/>
<path d="M22.43 22.0001V28.1888H16.2413C15.8787 28.1888 15.5309 28.3329 15.2745 28.5893C15.0181 28.8457 14.874 29.1935 14.874 29.5561H23.1256C23.3059 29.5499 23.4768 29.4739 23.6021 29.3441C23.7274 29.2143 23.7974 29.0409 23.7973 28.8605V20.6089C23.4325 20.6152 23.0847 20.7645 22.829 21.0248C22.5732 21.285 22.4299 21.6353 22.43 22.0001Z" fill="#686868"/>
<path d="M22.43 32.9859V39.1746H16.2413C15.8787 39.1746 15.5309 39.3187 15.2745 39.5751C15.0181 39.8315 14.874 40.1793 14.874 40.5419H23.1256C23.3059 40.5357 23.4768 40.4596 23.6021 40.3299C23.7274 40.2001 23.7974 40.0267 23.7973 39.8463V31.6187C23.4346 31.6187 23.0869 31.7627 22.8305 32.0191C22.574 32.2755 22.43 32.6233 22.43 32.9859Z" fill="#686868"/>
<path d="M11.4436 22.0001V28.1888H5.18292C5.00247 28.1856 4.82322 28.2187 4.65586 28.2863C4.48851 28.3539 4.33648 28.4544 4.20887 28.5821C4.08125 28.7097 3.98066 28.8617 3.9131 29.0291C3.84554 29.1964 3.8124 29.3757 3.81565 29.5561H12.0433C12.2278 29.5561 12.4047 29.4828 12.5351 29.3524C12.6656 29.2219 12.7389 29.045 12.7389 28.8605V20.6089C12.3847 20.6275 12.0516 20.783 11.8099 21.0426C11.5682 21.3022 11.4369 21.6455 11.4436 22.0001Z" fill="#686868"/>
<path d="M11.4436 32.9859V39.1746H5.18292C5.00247 39.1714 4.82322 39.2045 4.65586 39.2721C4.48851 39.3396 4.33648 39.4402 4.20887 39.5678C4.08125 39.6955 3.98066 39.8475 3.9131 40.0148C3.84554 40.1822 3.8124 40.3614 3.81565 40.5419H12.0433C12.2278 40.5419 12.4047 40.4686 12.5351 40.3382C12.6656 40.2077 12.7389 40.0308 12.7389 39.8463V31.6187C12.3868 31.6312 12.0538 31.7815 11.8115 32.0373C11.5692 32.293 11.4371 32.6337 11.4436 32.9859Z" fill="#686868"/>
<path d="M3.19238 0.00366211H34.8075C34.8075 0.185251 34.7714 0.365025 34.7012 0.532493C34.631 0.699961 34.5281 0.851767 34.3986 0.979048C34.2691 1.10633 34.1155 1.20654 33.9469 1.27382C33.7782 1.34111 33.5978 1.37412 33.4163 1.37093H4.63162C4.26899 1.37093 3.92122 1.22688 3.66481 0.970468C3.4084 0.714055 3.26434 0.366285 3.26434 0.00366211H3.19238Z" fill="#6D6D6D"/>
</svg>
