<svg width="40" height="45" viewBox="0 0 40 45" fill="none" xmlns="http://www.w3.org/2000/svg">
<path d="M33.6004 44.9963H6.39896C4.87849 44.9963 3.42029 44.3923 2.34516 43.3172C1.27002 42.242 0.666016 40.7838 0.666016 39.2634V12.4936C0.67236 10.9773 1.27917 9.52527 2.35361 8.45532C3.42806 7.38537 4.88263 6.78465 6.39896 6.78467H33.6004C35.119 6.79098 36.5735 7.39701 37.6473 8.47078C38.721 9.54455 39.3271 10.9991 39.3334 12.5176V39.2634C39.3271 40.7819 38.721 42.2364 37.6473 43.3102C36.5735 44.3839 35.119 44.99 33.6004 44.9963Z" fill="#DBDBDB"/>
<path d="M33.6007 6.78467H20V44.9963H33.6007C35.1193 44.99 36.5738 44.3839 37.6476 43.3102C38.7213 42.2364 39.3274 40.7819 39.3337 39.2634V12.4936C39.3211 10.9793 38.7123 9.53086 37.6392 8.46226C36.5661 7.39366 35.1151 6.79093 33.6007 6.78467Z" fill="#AFAFAF"/>
<path d="M20.0003 40.0068C19.7035 40.0071 19.4156 39.9055 19.1848 39.719L13.7636 35.3293C13.5431 35.1487 13.3883 34.9003 13.3232 34.6228C13.2582 34.3452 13.2865 34.054 13.4038 33.7941L18.8249 21.8005C18.9212 21.5694 19.0848 21.3726 19.2944 21.2357C19.504 21.0988 19.75 21.0281 20.0003 21.0329C20.25 21.0314 20.4945 21.1033 20.7036 21.2398C20.9126 21.3763 21.0768 21.5713 21.1757 21.8005L26.5968 33.7941C26.7115 34.0565 26.736 34.3494 26.6666 34.6271C26.5971 34.9049 26.4376 35.1518 26.213 35.3293L20.8159 39.719C20.585 39.9055 20.2971 40.0071 20.0003 40.0068Z" fill="#F40000"/>
<path d="M20.5758 14.3406H19.3764C19.1896 14.3386 19.0053 14.2969 18.8357 14.2183C18.6662 14.1398 18.5152 14.0261 18.3929 13.8848L9.06191 3.13853C8.90073 2.94931 8.79521 2.71907 8.7571 2.47345C8.71898 2.22782 8.74977 1.97644 8.84603 1.74727C8.95095 1.52438 9.11726 1.33604 9.32545 1.20433C9.53363 1.07262 9.77506 1.00301 10.0214 1.00367H29.9548C30.2011 1.00301 30.4425 1.07262 30.6507 1.20433C30.8589 1.33604 31.0252 1.52438 31.1301 1.74727C31.2384 1.97238 31.2779 2.22438 31.2437 2.4718C31.2096 2.71923 31.1034 2.95112 30.9382 3.13853L21.5832 13.9807C21.4656 14.1214 21.319 14.235 21.1534 14.3136C20.9878 14.3923 20.8071 14.4342 20.6237 14.4365L20.5758 14.3406Z" fill="#C1C1C1"/>
<path d="M31.1301 1.74727C31.0251 1.52438 30.8588 1.33604 30.6506 1.20433C30.4425 1.07262 30.201 1.00301 29.9547 1.00367H20V14.3406H20.5757C20.759 14.3383 20.9397 14.2964 21.1053 14.2177C21.2709 14.139 21.4176 14.0255 21.5352 13.8848L30.8902 3.13853C31.0632 2.95629 31.1783 2.72687 31.221 2.47925C31.2637 2.23163 31.232 1.97692 31.1301 1.74727Z" fill="#A0A0A0"/>
<path d="M18.8726 23.1439C17.1546 21.361 15.5522 19.4701 14.0752 17.4829L19.8321 13.4771L26.1647 18.1546L21.2234 23.1439C20.9227 23.4398 20.5178 23.6057 20.096 23.6057C19.6741 23.6057 19.2692 23.4398 18.9686 23.1439H18.8726Z" fill="#F40000"/>
<path d="M26.5965 33.7944L21.1754 21.8008C21.0765 21.5716 20.9123 21.3766 20.7032 21.2401C20.4942 21.1036 20.2496 21.0316 20 21.0332V40.223C20.2923 40.1999 20.5735 40.1007 20.8156 39.9351L26.2127 35.5455C26.4373 35.368 26.5968 35.1211 26.6663 34.8433C26.7357 34.5656 26.7112 34.2726 26.5965 34.0103V33.7944Z" fill="#CC0000"/>
<path d="M20 13.6689V23.5757C20.4191 23.5677 20.8205 23.4054 21.1274 23.1199L26.0688 18.1306L20 13.6689Z" fill="#CC0000"/>
<path d="M34.32 7.04845L31.0577 1.62734C30.956 1.45194 30.8138 1.30343 30.6429 1.19419C30.4721 1.08494 30.2777 1.01814 30.0758 0.999362C29.8739 0.980581 29.6704 1.01036 29.4824 1.08622C29.2943 1.16208 29.1272 1.28182 28.9948 1.43544L19.9996 11.7979L10.9804 1.45943C10.8478 1.30545 10.6813 1.1842 10.4941 1.10514C10.3068 1.02609 10.1039 0.99136 9.901 1.00367C9.70144 1.01915 9.50835 1.08153 9.33745 1.18574C9.16655 1.28994 9.02267 1.43303 8.91753 1.60335L5.5833 7.02446C5.48802 7.21856 5.43848 7.4319 5.43848 7.64813C5.43848 7.86435 5.48802 8.0777 5.5833 8.27179L10.8365 19.4498C10.9122 19.6191 11.0247 19.7694 11.1657 19.8897C11.3068 20.0101 11.473 20.0974 11.6521 20.1455H11.9879C12.2516 20.148 12.5102 20.073 12.7315 19.9296L20.0716 14.7483L27.2677 19.9296C27.489 20.073 27.7477 20.148 28.0113 20.1455H28.3472C28.528 20.0946 28.6961 20.0065 28.8407 19.8867C28.9853 19.7668 29.1032 19.618 29.1867 19.4498L34.4159 8.27179C34.4964 8.07451 34.5296 7.86115 34.5129 7.64875C34.4962 7.43635 34.4302 7.23078 34.32 7.04845Z" fill="#EDEDED"/>
<path d="M34.3204 7.04845L31.0581 1.62734C30.9564 1.45194 30.8142 1.30343 30.6433 1.19419C30.4725 1.08494 30.278 1.01814 30.0761 0.999362C29.8743 0.980581 29.6708 1.01036 29.4828 1.08622C29.2947 1.16208 29.1275 1.28182 28.9952 1.43544L20 11.7979V14.7963L27.1962 19.9536C27.4175 20.097 27.6761 20.172 27.9398 20.1694H28.2756C28.4564 20.1186 28.6245 20.0305 28.7691 19.9106C28.9137 19.7908 29.0316 19.642 29.1151 19.4738L34.3444 8.29578C34.4393 8.10587 34.4888 7.89645 34.4888 7.68411C34.4888 7.47177 34.4393 7.26234 34.3444 7.07243L34.3204 7.04845Z" fill="#C1C1C1"/>
</svg>
