<svg width="34" height="44" viewBox="0 0 34 44" fill="none" xmlns="http://www.w3.org/2000/svg">
<path d="M29.6896 19.7931V12.5969C29.5473 9.32384 28.1469 6.23203 25.7806 3.96629C23.4142 1.70054 20.2645 0.435791 16.9883 0.435791C13.7122 0.435791 10.5625 1.70054 8.19609 3.96629C5.82972 6.23203 4.42938 9.32384 4.28711 12.5969V19.7931M8.86867 19.7931V12.5969C8.80867 11.4935 8.9742 10.3894 9.35515 9.35213C9.7361 8.31483 10.3245 7.36606 11.0844 6.56374C11.8442 5.76143 12.7597 5.1224 13.7748 4.6857C14.7898 4.24899 15.8833 4.02376 16.9883 4.02376C18.0934 4.02376 19.1868 4.24899 20.2019 4.6857C21.217 5.1224 22.1324 5.76143 22.8923 6.56374C23.6522 7.36606 24.2406 8.31483 24.6215 9.35213C25.0025 10.3894 25.168 11.4935 25.108 12.5969V19.7931" fill="#D3DAE0"/>
<path d="M17.7439 0.00368478H17.0003C15.3319 0.00053092 13.6793 0.326419 12.137 0.962701C10.5947 1.59898 9.19302 2.53316 8.01218 3.71178C6.83133 4.8904 5.8945 6.29032 5.25531 7.83141C4.61612 9.37251 4.28711 11.0245 4.28711 12.6929V19.8891H5.77432V12.6929C5.77488 9.45027 7.01449 6.3304 9.23953 3.97159C11.4646 1.61278 14.5068 0.193349 17.7439 0.00368478Z" fill="#899EA8"/>
<path d="M18.4868 4.56128H17.7432C19.758 4.74685 21.6305 5.67905 22.9931 7.17478C24.3557 8.6705 25.1098 10.6217 25.1072 12.645V19.8411H26.5944V12.645C26.5818 10.5008 25.7228 8.44838 24.2044 6.93444C22.6859 5.4205 20.631 4.56757 18.4868 4.56128Z" fill="#899EA8"/>
<path d="M33.8868 19.793H0.0888672V43.9961H33.8868V19.793Z" fill="#F79F00"/>
<path d="M3.06328 19.793H0.0888672V43.9961H3.06328V19.793Z" fill="#E48900"/>
<path d="M20.6221 29.6282C20.7075 29.1064 20.6785 28.5724 20.5371 28.063C20.3956 27.5536 20.145 27.081 19.8028 26.6781C19.4605 26.2752 19.0347 25.9515 18.5548 25.7295C18.075 25.5076 17.5527 25.3926 17.024 25.3926C16.4953 25.3926 15.9729 25.5076 15.4931 25.7295C15.0133 25.9515 14.5875 26.2752 14.2452 26.6781C13.9029 27.081 13.6524 27.5536 13.5109 28.063C13.3694 28.5724 13.3404 29.1064 13.4259 29.6282C13.4244 30.2844 13.6025 30.9285 13.9407 31.4908C14.2789 32.0531 14.7645 32.5122 15.3449 32.8185L14.7452 37.3041H19.3747L18.799 32.8185C19.3598 32.4976 19.8246 32.0326 20.1451 31.4716C20.4657 30.9107 20.6303 30.2742 20.6221 29.6282Z" fill="#3E3D4C"/>
</svg>
