<svg width="46" height="40" viewBox="0 0 46 40" fill="none" xmlns="http://www.w3.org/2000/svg">
<path d="M4.3858 5.19995H38.8554C39.7573 5.20583 40.6217 5.56183 41.2661 6.19285C41.9106 6.82387 42.2847 7.68055 42.3096 8.58215V12.7079C42.3033 13.6221 41.9374 14.497 41.2909 15.1435C40.6445 15.7899 39.7696 16.1558 38.8554 16.1621H4.3858C3.47164 16.1558 2.59671 15.7899 1.95028 15.1435C1.30386 14.497 0.937924 13.6221 0.931641 12.7079V8.58215C0.956503 7.68055 1.33062 6.82387 1.97507 6.19285C2.61951 5.56183 3.48388 5.20583 4.3858 5.19995V5.19995Z" fill="#C40000"/>
<path d="M11.9175 8.89389L33.506 3.16095C33.859 3.06481 34.2357 3.11161 34.5545 3.29119C34.8732 3.47078 35.1084 3.7687 35.2091 4.12044L38.7832 17.3614C38.8793 17.7144 38.8325 18.0911 38.653 18.4098C38.4734 18.7286 38.1755 18.9638 37.8237 19.0645L9.7107 26.5245C9.53745 26.5718 9.35658 26.5845 9.17842 26.5618C9.00027 26.5392 8.82831 26.4817 8.67239 26.3926C8.51646 26.3035 8.37962 26.1845 8.26967 26.0425C8.15972 25.9005 8.07882 25.7383 8.0316 25.565L5.41699 15.9701L11.9175 8.89389Z" fill="#89C763"/>
<path d="M35.0175 16.9535L30.364 18.1769C30.2774 18.1989 30.1873 18.2037 30.0988 18.1909C30.0103 18.1782 29.9252 18.1481 29.8484 18.1024C29.7715 18.0568 29.7044 17.9964 29.6509 17.9248C29.5974 17.8532 29.5585 17.7718 29.5365 17.6852C29.5144 17.5985 29.5096 17.5084 29.5224 17.4199C29.5352 17.3315 29.5653 17.2464 29.6109 17.1695C29.6566 17.0927 29.7169 17.0256 29.7885 16.9721C29.8601 16.9185 29.9416 16.8796 30.0282 16.8576L34.0341 15.7782L31.8992 7.76644L27.8933 8.84586C27.8051 8.87088 27.7126 8.87756 27.6217 8.86548C27.5307 8.8534 27.4432 8.82281 27.3646 8.77562C27.2859 8.72842 27.2178 8.6656 27.1643 8.59105C27.1108 8.5165 27.0732 8.43178 27.0538 8.34213C27.0288 8.25539 27.0223 8.16439 27.0346 8.07497C27.0469 7.98556 27.0778 7.8997 27.1252 7.82291C27.1726 7.74612 27.2356 7.68009 27.31 7.62905C27.3845 7.57802 27.4688 7.54311 27.5575 7.52657L32.211 6.27923C32.2961 6.25409 32.3854 6.2467 32.4735 6.25752C32.5616 6.26833 32.6465 6.29712 32.7229 6.3421C32.7994 6.38709 32.8658 6.4473 32.918 6.51901C32.9703 6.59072 33.0072 6.6724 33.0266 6.75898L35.4253 16.066C35.4595 16.1508 35.4761 16.2417 35.4739 16.3331C35.4717 16.4246 35.4509 16.5146 35.4127 16.5977C35.3746 16.6808 35.3198 16.7552 35.2519 16.8164C35.1839 16.8776 35.1042 16.9243 35.0175 16.9535ZM15.8278 22.1588L11.1742 23.4061C11.0876 23.4314 10.9968 23.439 10.9071 23.4285C10.8175 23.4179 10.7309 23.3894 10.6525 23.3446C10.5742 23.2998 10.5056 23.2397 10.451 23.1678C10.3964 23.096 10.3569 23.0138 10.3347 22.9264L7.93597 13.6193C7.90693 13.5327 7.89652 13.441 7.90544 13.3501C7.91435 13.2593 7.94237 13.1713 7.98768 13.092C8.03298 13.0127 8.09454 12.9439 8.1683 12.8901C8.24207 12.8363 8.32639 12.7987 8.41571 12.7798L13.0692 11.5324C13.1559 11.5104 13.246 11.5056 13.3344 11.5184C13.4229 11.5312 13.508 11.5612 13.5849 11.6069C13.6617 11.6526 13.7288 11.7129 13.7823 11.7845C13.8358 11.8561 13.8747 11.9375 13.8968 12.0242C13.9188 12.1108 13.9236 12.2009 13.9108 12.2894C13.8981 12.3779 13.868 12.4629 13.8223 12.5398C13.7767 12.6166 13.7163 12.6837 13.6447 12.7373C13.5731 12.7908 13.4917 12.8297 13.4051 12.8517L9.1833 13.9072L11.3182 21.9189L15.324 20.8395C15.4107 20.8141 15.5015 20.8065 15.5911 20.8171C15.6808 20.8277 15.7674 20.8562 15.8457 20.901C15.9241 20.9458 15.9926 21.0059 16.0472 21.0777C16.1019 21.1496 16.1414 21.2317 16.1636 21.3192C16.2104 21.4878 16.1919 21.6678 16.1119 21.8234C16.0319 21.979 15.8962 22.0988 15.7318 22.1588H15.8278Z" fill="#0E9347"/>
<path d="M1.19586 13.7153C7.33659 10.1892 23.8878 0.498326 23.8878 0.498326C24.2047 0.319215 24.5785 0.269126 24.9314 0.358472C25.2843 0.447817 25.5892 0.669725 25.7828 0.97807L32.6911 12.8517C32.8587 13.172 32.8974 13.5443 32.7993 13.8922C32.7011 14.2401 32.4736 14.5373 32.1633 14.7227L6.92881 29.1151C6.61331 29.3003 6.23754 29.3539 5.88286 29.2641C5.52818 29.1743 5.22315 28.9484 5.03382 28.6353C5.03382 28.6353 3.09085 24.7014 1.17188 21.4392C1.17187 13.7153 1.19586 16.2579 1.19586 13.7153Z" fill="#89C763"/>
<path d="M29.1646 12.468L24.3671 4.12045C24.3226 4.04213 24.2627 3.97359 24.1911 3.9189C24.1194 3.86421 24.0376 3.8245 23.9503 3.80211C23.863 3.77973 23.7721 3.77515 23.683 3.78862C23.5939 3.8021 23.5084 3.83337 23.4316 3.88057L19.2579 6.2793C19.1769 6.32126 19.1058 6.37984 19.0491 6.45119C18.9923 6.52255 18.9513 6.60508 18.9287 6.69339C18.906 6.78169 18.9023 6.87378 18.9177 6.96363C18.9331 7.05348 18.9672 7.13907 19.018 7.2148C19.0626 7.29311 19.1225 7.36165 19.1941 7.41634C19.2657 7.47103 19.3476 7.51075 19.4349 7.53313C19.5222 7.55551 19.6131 7.5601 19.7022 7.54662C19.7913 7.53314 19.8767 7.50187 19.9535 7.45467L23.5756 5.39177L27.7254 12.5879L24.1273 14.6748C24.0497 14.717 23.9817 14.7746 23.9272 14.8441C23.8728 14.9136 23.8331 14.9934 23.8106 15.0788C23.7882 15.1642 23.7834 15.2532 23.7966 15.3405C23.8098 15.4278 23.8407 15.5114 23.8874 15.5863C23.9299 15.6666 23.9883 15.7375 24.059 15.7946C24.1297 15.8517 24.2112 15.8938 24.2987 15.9185C24.3861 15.9432 24.4777 15.9498 24.5678 15.9381C24.6579 15.9264 24.7447 15.8965 24.8229 15.8502L28.9967 13.4515C29.0761 13.4012 29.1441 13.3347 29.1963 13.2564C29.2484 13.1781 29.2836 13.0898 29.2994 12.9971C29.3152 12.9044 29.3114 12.8094 29.2882 12.7182C29.265 12.6271 29.2228 12.5418 29.1646 12.468V12.468ZM10.8863 22.2308L7.31224 24.2937L3.16245 17.0975L6.78452 15.0586C6.8617 15.0129 6.92912 14.9525 6.98294 14.8808C7.03676 14.809 7.07593 14.7274 7.0982 14.6405C7.12048 14.5537 7.12543 14.4633 7.11276 14.3745C7.1001 14.2857 7.07007 14.2003 7.02439 14.1231C6.97872 14.0459 6.91829 13.9785 6.84656 13.9247C6.77482 13.8709 6.69319 13.8317 6.60632 13.8094C6.51945 13.7872 6.42904 13.7822 6.34026 13.7949C6.25148 13.8075 6.16607 13.8376 6.08889 13.8832L1.91512 16.282C1.83759 16.3242 1.76952 16.3818 1.71506 16.4513C1.66061 16.5207 1.62094 16.6006 1.59847 16.686C1.57601 16.7713 1.57123 16.8604 1.58443 16.9476C1.59764 17.0349 1.62854 17.1186 1.67524 17.1935L6.47269 25.541C6.51465 25.6219 6.57323 25.6931 6.64459 25.7498C6.71594 25.8066 6.79847 25.8476 6.88678 25.8702C6.97508 25.8929 7.06717 25.8966 7.15702 25.8812C7.24687 25.8658 7.33246 25.8316 7.40819 25.7809L11.582 23.3822C11.7378 23.2899 11.8507 23.1395 11.8956 22.9641C11.9406 22.7887 11.9141 22.6025 11.8218 22.4467C11.7296 22.2908 11.5792 22.178 11.4038 22.133C11.2283 22.088 11.0422 22.1146 10.8863 22.2068V22.2308ZM12.6614 10.0453C11.7069 10.5878 10.935 11.4016 10.4438 12.3835C9.95256 13.3654 9.7641 14.471 9.90232 15.5602C10.0405 16.6494 10.4992 17.673 11.2201 18.501C11.941 19.3291 12.8917 19.9243 13.9514 20.2112C15.0112 20.4981 16.1323 20.4637 17.1725 20.1123C18.2126 19.761 19.125 19.1086 19.7937 18.2378C20.4625 17.3671 20.8575 16.3173 20.9287 15.2217C20.9998 14.1261 20.7439 13.0341 20.1934 12.0842C19.4605 10.8197 18.2578 9.896 16.8471 9.51412C15.4364 9.13224 13.932 9.32316 12.6614 10.0453V10.0453ZM29.1646 12.444L24.3671 4.09646C24.3226 4.01815 24.2627 3.9496 24.1911 3.89492C24.1194 3.84023 24.0376 3.80051 23.9503 3.77813C23.863 3.75575 23.7721 3.75116 23.683 3.76464C23.5939 3.77812 23.5084 3.80939 23.4316 3.85659L19.2579 6.25531C19.1769 6.29727 19.1058 6.35585 19.0491 6.42721C18.9923 6.49856 18.9513 6.58109 18.9287 6.6694C18.906 6.7577 18.9023 6.84979 18.9177 6.93964C18.9331 7.02949 18.9672 7.11508 19.018 7.19081C19.0626 7.26912 19.1225 7.33766 19.1941 7.39235C19.2657 7.44704 19.3476 7.48676 19.4349 7.50914C19.5222 7.53152 19.6131 7.53611 19.7022 7.52263C19.7913 7.50915 19.8767 7.47788 19.9535 7.43068L23.5756 5.39177L27.7254 12.5879L24.1273 14.6748C24.0497 14.717 23.9817 14.7746 23.9272 14.8441C23.8728 14.9136 23.8331 14.9934 23.8106 15.0788C23.7882 15.1642 23.7834 15.2532 23.7966 15.3405C23.8098 15.4278 23.8407 15.5114 23.8874 15.5863C23.9299 15.6666 23.9883 15.7375 24.059 15.7946C24.1297 15.8517 24.2112 15.8938 24.2987 15.9185C24.3861 15.9432 24.4777 15.9498 24.5678 15.9381C24.6579 15.9264 24.7447 15.8965 24.8229 15.8502L28.9967 13.4515C29.0761 13.4012 29.1441 13.3347 29.1963 13.2564C29.2484 13.1781 29.2836 13.0898 29.2994 12.9971C29.3152 12.9044 29.3114 12.8094 29.2882 12.7182C29.265 12.6271 29.2228 12.5418 29.1646 12.468V12.444ZM10.8863 22.2068L7.31224 24.2697L3.16245 17.0735L6.78452 15.0586C6.8617 15.0129 6.92912 14.9525 6.98294 14.8808C7.03676 14.809 7.07593 14.7274 7.0982 14.6405C7.12048 14.5537 7.12543 14.4633 7.11276 14.3745C7.1001 14.2857 7.07007 14.2003 7.02439 14.1231C6.97872 14.0459 6.91829 13.9785 6.84656 13.9247C6.77482 13.8709 6.69319 13.8317 6.60632 13.8094C6.51945 13.7872 6.42904 13.7822 6.34026 13.7949C6.25148 13.8075 6.16607 13.8376 6.08889 13.8832L1.91512 16.282C1.83759 16.3242 1.76952 16.3818 1.71506 16.4513C1.66061 16.5207 1.62094 16.6006 1.59847 16.686C1.57601 16.7713 1.57123 16.8604 1.58443 16.9476C1.59764 17.0349 1.62854 17.1186 1.67524 17.1935L6.47269 25.541C6.51465 25.6219 6.57323 25.6931 6.64459 25.7498C6.71594 25.8066 6.79847 25.8476 6.88678 25.8702C6.97508 25.8929 7.06717 25.8966 7.15702 25.8812C7.24687 25.8658 7.33246 25.8316 7.40819 25.7809L11.582 23.3822C11.7378 23.2899 11.8507 23.1395 11.8956 22.9641C11.9406 22.7887 11.9141 22.6025 11.8218 22.4467C11.7296 22.2908 11.5792 22.178 11.4038 22.133C11.2283 22.088 11.0422 22.1146 10.8863 22.2068V22.2068ZM12.6614 10.0213C11.7069 10.5638 10.935 11.3776 10.4438 12.3595C9.95256 13.3414 9.7641 14.4471 9.90232 15.5362C10.0405 16.6254 10.4992 17.649 11.2201 18.477C11.941 19.3051 12.8917 19.9003 13.9514 20.1872C15.0112 20.4741 16.1323 20.4397 17.1725 20.0883C18.2126 19.737 19.125 19.0846 19.7937 18.2138C20.4625 17.3431 20.8575 16.2934 20.9287 15.1978C20.9998 14.1022 20.7439 13.0101 20.1934 12.0602C19.4566 10.7998 18.2521 9.88117 16.8417 9.50387C15.4314 9.12658 13.9291 9.32114 12.6614 10.0453V10.0213Z" fill="#0E9347"/>
<path d="M40.2231 39.7654H4.38621C3.47205 39.7591 2.59712 39.3932 1.9507 38.7468C1.30428 38.1003 0.938339 37.2254 0.932056 36.3112V11.4125H40.2231C41.1351 11.4125 42.01 11.7731 42.6571 12.4157C43.3042 13.0583 43.6709 13.9308 43.6773 14.8427V36.2153C43.6868 36.6761 43.6047 37.1341 43.4357 37.5629C43.2667 37.9916 43.0141 38.3825 42.6927 38.7128C42.3714 39.0431 41.9875 39.3063 41.5636 39.487C41.1396 39.6677 40.684 39.7623 40.2231 39.7654V39.7654ZM3.69058 11.4125H0.932056V8.58203C0.925707 8.94944 0.992195 9.31447 1.12768 9.65605C1.26317 9.99763 1.46498 10.309 1.72145 10.5721C1.97792 10.8353 2.28398 11.0451 2.62196 11.1893C2.95993 11.3335 3.32313 11.4094 3.69058 11.4125V11.4125Z" fill="#F40000"/>
<path d="M43.6768 31.0583H38.1597C36.8874 31.0583 35.6671 30.5528 34.7674 29.6531C33.8677 28.7534 33.3623 27.5332 33.3623 26.2608C33.3623 24.9885 33.8677 23.7682 34.7674 22.8685C35.6671 21.9688 36.8874 21.4634 38.1597 21.4634H43.6768C44.0458 21.4634 44.3997 21.61 44.6606 21.8709C44.9215 22.1318 45.0681 22.4857 45.0681 22.8546V29.739C45.0496 30.0953 44.8949 30.431 44.636 30.6765C44.377 30.9221 44.0337 31.0587 43.6768 31.0583Z" fill="#CE0000"/>
<path d="M38.1599 23.478C38.7055 23.478 39.2388 23.6398 39.6925 23.9429C40.1461 24.246 40.4997 24.6769 40.7084 25.1809C40.9172 25.685 40.9719 26.2396 40.8654 26.7747C40.759 27.3098 40.4963 27.8013 40.1105 28.1871C39.7247 28.5729 39.2332 28.8356 38.6981 28.9421C38.163 29.0485 37.6083 28.9939 37.1043 28.7851C36.6002 28.5763 36.1694 28.2228 35.8663 27.7691C35.5632 27.3155 35.4014 26.7821 35.4014 26.2366C35.4014 25.505 35.692 24.8033 36.2093 24.286C36.7266 23.7687 37.4283 23.478 38.1599 23.478V23.478Z" fill="#F79F00"/>
<path d="M38.8552 28.2997C38.1255 28.2934 37.4275 28.0008 36.9115 27.4848C36.3955 26.9688 36.1029 26.2708 36.0966 25.5412C36.086 24.9761 36.2539 24.4221 36.5764 23.958C36.2061 24.2098 35.9046 24.5502 35.6993 24.9481C35.494 25.3461 35.3915 25.7891 35.401 26.2368C35.4073 26.9665 35.6999 27.6645 36.2159 28.1804C36.7318 28.6964 37.4299 28.9891 38.1595 28.9953C38.5949 28.9673 39.0187 28.843 39.4003 28.6315C39.7819 28.4199 40.1118 28.1264 40.3663 27.772C39.9245 28.0908 39.3994 28.2742 38.8552 28.2997Z" fill="#D7B354"/>
<path d="M40.2227 38.302H4.3858C3.49189 38.2966 2.63438 37.9472 1.99122 37.3264C1.34805 36.7056 0.968614 35.8609 0.931641 34.9678V36.335C0.944172 37.245 1.31286 38.1139 1.95862 38.7551C2.60437 39.3964 3.47575 39.759 4.3858 39.7652H40.2227C41.1368 39.7589 42.0118 39.393 42.6582 38.7466C43.3046 38.1001 43.6706 37.2252 43.6768 36.3111V34.9678C43.6399 35.8609 43.2604 36.7056 42.6173 37.3264C41.9741 37.9472 41.1166 38.2966 40.2227 38.302V38.302Z" fill="#BC0000"/>
<path d="M40.2231 11.4125H3.69058C3.32313 11.4094 2.95993 11.3335 2.62196 11.1893C2.28398 11.0451 1.97792 10.8353 1.72145 10.5721C1.46498 10.309 1.26317 9.99763 1.12768 9.65605C0.992195 9.31447 0.925707 8.94944 0.932056 8.58203V9.9493C0.93832 10.679 1.23096 11.377 1.74693 11.893C2.26291 12.4089 2.96091 12.7016 3.69058 12.7078H40.2231C41.1373 12.7141 42.0122 13.0801 42.6586 13.7265C43.305 14.3729 43.671 15.2478 43.6773 16.162V14.7707C43.6523 13.8714 43.2773 13.0172 42.6322 12.3901C41.9872 11.7629 41.1228 11.4122 40.2231 11.4125V11.4125Z" fill="#FF4343"/>
</svg>
