<svg width="44" height="40" viewBox="0 0 44 40" fill="none" xmlns="http://www.w3.org/2000/svg">
<path d="M28.9085 2.75307C28.3176 2.34567 27.6817 2.00762 27.0135 1.74561C25.4157 1.12267 23.7151 0.805339 22.0002 0.810112C20.2777 0.807973 18.5697 1.12516 16.9629 1.74561C16.2977 2.01431 15.6626 2.35197 15.0679 2.75307C14.8905 2.8884 14.7464 3.0625 14.6466 3.26206C14.5468 3.46162 14.494 3.68135 14.4922 3.90446V6.18325L15.9554 6.97482L17.3946 6.18325V4.74401C18.8349 4.06455 20.4077 3.71218 22.0002 3.71218C23.5927 3.71218 25.1655 4.06455 26.6057 4.74401V6.18325L28.045 6.97482L29.4842 6.18325V3.92845C29.4824 3.70534 29.4295 3.48561 29.3298 3.28605C29.23 3.08649 29.0859 2.91239 28.9085 2.77706V2.75307Z" fill="#F40000"/>
<path d="M14.4922 6.18359V7.79074L15.9554 8.55833L17.3946 7.79074V6.18359H14.4922Z" fill="#BC0000"/>
<path d="M29.4839 6.18359H26.6055V7.79074L28.0447 8.55833L29.4839 7.79074V6.18359Z" fill="#BC0000"/>
<path d="M1.20313 23.6221V36.4312C1.20311 36.7924 1.27463 37.1499 1.41355 37.4833C1.55247 37.8166 1.75604 38.1191 2.01252 38.3734C2.26899 38.6276 2.57328 38.8285 2.90782 38.9645C3.24237 39.1006 3.60053 39.1689 3.96165 39.1658H39.9425C40.6699 39.1658 41.368 38.8785 41.8846 38.3663C42.4013 37.8542 42.6947 37.1587 42.701 36.4312V23.6221H1.20313Z" fill="#7C7C7C"/>
<path d="M1.20312 22.0151V23.6223C3.48191 25.4213 9.52669 28.9474 22 28.9474C34.4734 28.9474 40.4942 25.4213 42.7969 23.6223V22.0151H1.20312Z" fill="#666666"/>
<path d="M0.986975 21.1036C3.16981 22.9026 9.21459 26.5487 21.9038 26.5487C34.5931 26.5487 40.6138 22.9026 42.8207 21.1036C43.505 20.2788 43.8935 19.2485 43.9241 18.1772V10.5012C43.9241 10.1401 43.8526 9.78256 43.7137 9.44921C43.5747 9.11587 43.3712 8.81335 43.1147 8.55911C42.8582 8.30486 42.5539 8.10394 42.2194 7.96794C41.8848 7.83193 41.5267 7.76354 41.1656 7.76671H2.78602C2.06493 7.77303 1.37554 8.06393 0.867889 8.57607C0.360239 9.08821 0.0754326 9.78014 0.0754603 10.5012V18.1772C0.0303266 19.2289 0.352594 20.2635 0.986975 21.1036Z" fill="#919191"/>
<path d="M42.9165 20.3356C40.7097 22.1107 34.6889 25.7807 21.9996 25.7807C9.3104 25.7807 3.38556 22.1107 0.986837 20.3356C0.68307 20.0669 0.44348 19.7334 0.285724 19.3598C0.127968 18.9861 0.0560671 18.5819 0.0753224 18.1768V19.7599C0.0696194 20.169 0.157415 20.5739 0.332012 20.9439C0.506608 21.3139 0.763395 21.6391 1.08279 21.8948C3.26562 23.6938 9.3104 27.3399 21.9996 27.3399C34.6889 27.3399 40.7097 23.6938 42.9165 21.8948C43.2319 21.6356 43.4859 21.3097 43.6601 20.9406C43.8343 20.5714 43.9244 20.1681 43.9239 19.7599V18.1768C43.9246 18.5885 43.8348 18.9953 43.6606 19.3684C43.4865 19.7415 43.2325 20.0717 42.9165 20.3356Z" fill="#7C7C7C"/>
<path d="M21.9998 30.0027C23.415 30.0027 24.5664 28.9473 24.5664 26.6685V25.1093C24.5665 24.8653 24.4712 24.6309 24.301 24.4562C24.1307 24.2814 23.8988 24.1801 23.6549 24.1738H20.3447C20.0966 24.1738 19.8586 24.2724 19.6832 24.4478C19.5077 24.6233 19.4092 24.8612 19.4092 25.1093V26.6685C19.4092 28.9473 20.5606 30.0027 21.9998 30.0027Z" fill="#F79F00"/>
<path d="M22.0001 29.2351C21.661 29.2383 21.3247 29.1742 21.0105 29.0466C20.6963 28.9191 20.4105 28.7305 20.1697 28.4919C19.9288 28.2532 19.7376 27.9692 19.6071 27.6562C19.4766 27.3433 19.4094 27.0075 19.4095 26.6685V28.2516C19.3747 28.6111 19.4156 28.974 19.5294 29.3168C19.6432 29.6596 19.8274 29.9748 20.0702 30.2422C20.313 30.5096 20.6091 30.7233 20.9394 30.8695C21.2697 31.0157 21.6269 31.0912 21.9881 31.0912C22.3493 31.0912 22.7065 31.0157 23.0368 30.8695C23.3671 30.7233 23.6631 30.5096 23.9059 30.2422C24.1488 29.9748 24.333 29.6596 24.4468 29.3168C24.5606 28.974 24.6014 28.6111 24.5667 28.2516V26.6685C24.5667 27.3492 24.2963 28.002 23.815 28.4833C23.3336 28.9647 22.6808 29.2351 22.0001 29.2351Z" fill="#FFDA2D"/>
</svg>
