<svg width="38" height="44" viewBox="0 0 38 44" fill="none" xmlns="http://www.w3.org/2000/svg">
<path d="M1.00977 19.7453L19.0002 9.38281L36.9906 19.7453V33.5859L19.0002 43.9964L1.00977 33.5859V19.7453Z" fill="#ED7064"/>
<path d="M1.00977 33.5857L19.0002 43.9962V30.1316L1.00977 19.7451V33.5857Z" fill="#CE0202"/>
<path d="M19 30.1316L36.9904 19.7451V33.5857L19 43.9962V30.1316Z" fill="#F40000"/>
<path d="M0.0503527 14.4201L19.0002 3.48193L37.9501 14.4201V14.3961V19.1936L19.0002 30.1557L0.0263672 19.1936V14.3961L0.0503527 14.4201Z" fill="#F40000"/>
<path d="M0.0263672 19.1934L19.0002 30.1556V25.3581L0.0263672 14.396V19.1934Z" fill="#F43834"/>
<path d="M19 25.3581L37.9499 14.396V19.1934L19 30.1556V25.3581Z" fill="#FF5331"/>
<path d="M11.372 39.5827L6.64648 36.8481V18.2101L25.5724 7.2959L30.2979 10.0065L11.372 20.9206V39.5827Z" fill="#FF812C"/>
<path d="M26.7238 39.5349L31.4253 36.8003V18.1623L12.4993 7.22412L7.79785 9.93467L26.7238 20.8728V39.5349Z" fill="#FF9F2C"/>
<path d="M26.7238 20.8728L31.4253 18.1623L12.4993 7.22412L7.79785 9.93467L26.7238 20.8728Z" fill="#F79F00"/>
<path d="M11.372 20.9206L6.64648 18.2101L25.5724 7.2959L30.2979 10.0065L11.372 20.9206Z" fill="#FFD800"/>
<path d="M20.6069 11.5655C20.4507 11.3643 20.3469 11.1274 20.3051 10.8762C20.2632 10.6249 20.2845 10.3672 20.367 10.1262C21.1826 7.72751 23.4854 1.34691 27.3473 0.171535C28.3542 -0.0155016 29.3939 0.0986279 30.3362 0.499634C31.2785 0.90064 32.0816 1.57071 32.6449 2.42595C33.2083 3.28118 33.5068 4.28359 33.5032 5.30769C33.4995 6.33178 33.1939 7.33204 32.6245 8.18326C30.2258 11.7334 24.9006 12.7888 22.7898 12.9807C22.53 13.0151 22.2659 12.9824 22.0223 12.8859C21.7788 12.7893 21.5641 12.632 21.3985 12.429L20.6069 11.5655Z" fill="#F79F00"/>
<path d="M30.0822 5.25688C31.7613 4.32138 32.6728 5.37682 32.0971 7.1039C31.5214 8.83098 28.523 10.582 26.772 11.3256C25.4328 11.9068 24.0205 12.3023 22.5742 12.501C24.8933 9.90302 27.4029 7.48159 30.0822 5.25688Z" fill="#C96400"/>
<path d="M14.7785 11.3258C15.3263 10.8827 15.9951 10.6152 16.6974 10.5582C17.1377 10.528 17.5653 10.3978 17.9478 10.1775C18.3302 9.9572 18.6573 9.6526 18.9043 9.28686C19.3125 8.70757 19.8787 8.25792 20.5354 7.99155C21.3847 7.58439 22.361 7.5313 23.2494 7.84394C24.1379 8.15659 24.8657 8.80936 25.2729 9.65866C25.68 10.508 25.7331 11.4842 25.4205 12.3727C25.1078 13.2611 24.4551 13.989 23.6058 14.3961C23.1254 14.6597 22.5933 14.8152 22.0466 14.8519C21.6236 14.8766 21.2123 15.0002 20.8457 15.2126C20.4791 15.4251 20.1675 15.7205 19.9357 16.0752C19.6358 16.53 19.2332 16.908 18.7603 17.1786C17.9845 17.6229 17.0696 17.758 16.1985 17.5571C15.3273 17.3561 14.5641 16.8339 14.0612 16.0947C13.5583 15.3555 13.3528 14.4538 13.4858 13.5697C13.6188 12.6857 14.0804 11.8843 14.7785 11.3258Z" fill="#FCCC00"/>
<path d="M16.1934 13.4124C16.0514 13.1989 15.8588 13.0237 15.6329 12.9023C15.4069 12.781 15.1545 12.7173 14.8981 12.7168C12.3075 12.7168 5.56706 12.7168 3.21631 16.075C2.71187 16.9695 2.48199 17.9928 2.55535 19.0171C2.62871 20.0415 3.00206 21.0215 3.62883 21.835C4.2556 22.6486 5.10803 23.2595 6.07978 23.5917C7.05153 23.9239 8.09958 23.9626 9.09318 23.7029C13.195 22.6715 15.9535 17.874 16.913 15.9551C17.0435 15.729 17.1123 15.4725 17.1123 15.2115C17.1123 14.9504 17.0435 14.6939 16.913 14.4679L16.1934 13.4124Z" fill="#F79F00"/>
<path d="M7.12676 20.2968C5.68752 21.6161 6.40714 22.8154 8.23017 22.8154C10.0532 22.8154 12.5479 20.4167 13.9391 19.1694C14.8997 18.0856 15.7069 16.8749 16.3378 15.5713C13.1564 16.9199 10.0779 18.4993 7.12676 20.2968Z" fill="#C96400"/>
</svg>
