<svg width="44" height="44" viewBox="0 0 44 44" fill="none" xmlns="http://www.w3.org/2000/svg">
<path d="M18.9775 14.4199V20.4886H14.4199L15.1875 14.4199C15.1875 14.2227 15.2659 14.0335 15.4053 13.8941C15.5448 13.7546 15.7339 13.6763 15.9311 13.6763H18.2099C18.4094 13.6762 18.6011 13.7537 18.7444 13.8925C18.8876 14.0313 18.9713 14.2205 18.9775 14.4199Z" fill="#A80000"/>
<path d="M29.5562 20.489H24.9746V14.4203C24.9746 14.3206 24.9946 14.2219 25.0334 14.13C25.0723 14.0382 25.1292 13.9552 25.2008 13.8858C25.2724 13.8164 25.3573 13.7622 25.4503 13.7262C25.5433 13.6903 25.6425 13.6734 25.7422 13.6767H27.997C28.0966 13.6734 28.1959 13.6903 28.2889 13.7262C28.3819 13.7622 28.4668 13.8164 28.5384 13.8858C28.61 13.9552 28.6669 14.0382 28.7058 14.13C28.7446 14.2219 28.7646 14.3206 28.7646 14.4203L29.5562 20.489Z" fill="#A80000"/>
<path d="M43.9482 34.5691V40.8778C43.9482 41.6793 43.6298 42.4481 43.063 43.0149C42.4962 43.5817 41.7274 43.9001 40.9259 43.9001H3.07405C2.67625 43.9033 2.2818 43.8274 1.91366 43.6766C1.54553 43.5258 1.21107 43.3033 0.929777 43.022C0.648484 42.7407 0.425978 42.4063 0.27522 42.0381C0.124462 41.67 0.0484668 41.2756 0.0516621 40.8778V34.5691C0.0283522 34.402 0.0283522 34.2325 0.0516621 34.0654L1.4909 32.5542H42.2691L43.6844 34.0654C43.81 34.2108 43.9003 34.3831 43.9482 34.5691Z" fill="#A80000"/>
<path d="M10.5824 1.20295C14.3208 0.3656 18.146 -0.0209502 21.9763 0.0515635C28.7887 0.0515635 37.2322 0.77118 42.1256 5.56862C43.1413 6.47766 43.7755 7.73739 43.9006 9.09474C43.7937 10.272 43.544 11.4319 43.157 12.5489C43.0131 13.1726 42.8692 13.9162 42.2455 14.228C41.7084 14.4072 41.1276 14.4072 40.5904 14.228L36.4886 13.4364C35.3852 13.2205 34.8095 13.0047 33.7061 12.8128C33.0933 12.7589 32.5175 12.4965 32.0749 12.0692C31.954 11.843 31.879 11.5952 31.8543 11.3399C31.8296 11.0847 31.8557 10.8271 31.931 10.5819L32.2429 8.39911C32.3728 7.84976 32.3049 7.27217 32.051 6.76798C31.6912 6.24026 30.4678 6.02438 29.7962 5.90444C24.6158 5.07705 19.3369 5.07705 14.1565 5.90444C13.1011 6.07235 11.6139 6.67203 11.7578 7.75146L12.1896 11.0617C12.2254 11.4344 12.1193 11.8069 11.8925 12.1048C11.6658 12.4027 11.335 12.6041 10.9662 12.6688L7.4161 13.4604L2.85853 14.324C2.47767 14.4059 2.0799 14.3399 1.74585 14.1395C1.41179 13.9391 1.16643 13.6191 1.05949 13.2445L0.195947 9.93429C0.0742476 9.49302 0.0433854 9.03164 0.105233 8.57809C0.16708 8.12455 0.320349 7.68827 0.555755 7.2957C1.63518 5.47267 4.17782 2.69016 10.6304 1.13099" fill="#F40000"/>
<path d="M43.8527 34.1135H0.124023C0.171927 33.9662 0.244964 33.8282 0.339906 33.7057L9.93479 20.6567C10.1418 20.3664 10.4154 20.13 10.7325 19.9673C11.0497 19.8045 11.4013 19.7201 11.7578 19.7212H32.1709C32.5291 19.7293 32.8809 19.8175 33.2006 19.9794C33.5202 20.1413 33.7995 20.3727 34.0179 20.6567L43.6128 33.7057C43.7077 33.8324 43.7881 33.9691 43.8527 34.1135Z" fill="#F40000"/>
<path d="M29.5556 26.9174C29.5495 27.514 29.3376 28.0901 28.9559 28.5486C28.509 29.0515 27.9721 29.4664 27.3727 29.7719C26.6164 30.1735 25.8096 30.472 24.974 30.6595C23.0308 31.0913 21.0164 31.0913 19.0732 30.6595C18.2365 30.4757 17.4292 30.177 16.6744 29.7719C16.0551 29.4349 15.5024 28.9878 15.0433 28.4526C14.6608 27.9952 14.4512 27.4178 14.4512 26.8215C14.4512 26.2252 14.6608 25.6478 15.0433 25.1904C15.5024 24.6552 16.0551 24.2081 16.6744 23.8711C17.4292 23.466 18.2365 23.1673 19.0732 22.9835C21.0164 22.5517 23.0308 22.5517 24.974 22.9835C25.8096 23.171 26.6164 23.4695 27.3727 23.8711C27.9889 24.2025 28.5347 24.6506 28.9799 25.1904C29.3744 25.6775 29.5789 26.2911 29.5556 26.9174Z" fill="#E6E7E8"/>
<path d="M10.5823 4.22524C10.4846 4.23626 10.3858 4.22795 10.2913 4.20076C10.1969 4.17358 10.1087 4.12806 10.0319 4.0668C9.95504 4.00555 9.89101 3.92976 9.84346 3.84376C9.7959 3.75776 9.76575 3.66324 9.75472 3.56559C9.7437 3.46794 9.75202 3.36907 9.7792 3.27463C9.80638 3.18019 9.8519 3.09204 9.91316 3.01519C9.97441 2.93835 10.0502 2.87432 10.1362 2.82676C10.2222 2.77921 10.3167 2.74905 10.4144 2.73803C14.2085 1.89172 18.0894 1.49719 21.9762 1.56266C24.255 1.56266 26.2459 1.56266 28.069 1.80253C28.205 1.81261 28.3361 1.85766 28.4495 1.93331C28.563 2.00895 28.655 2.11264 28.7166 2.2343C28.7758 2.35358 28.8066 2.48494 28.8066 2.61809C28.8066 2.75125 28.7758 2.88261 28.7166 3.00189C28.6325 3.11015 28.5225 3.19548 28.3968 3.24998C28.271 3.30449 28.1335 3.32641 27.997 3.31372C26.2219 3.14581 24.279 3.07385 22.0482 3.07385C18.2832 3.01612 14.5241 3.39444 10.8461 4.20125L10.5823 4.22524Z" fill="#FB7B76"/>
<path d="M31.0674 3.84182C31.4913 3.84182 31.835 3.49816 31.835 3.07423C31.835 2.6503 31.4913 2.30664 31.0674 2.30664C30.6435 2.30664 30.2998 2.6503 30.2998 3.07423C30.2998 3.49816 30.6435 3.84182 31.0674 3.84182Z" fill="#FB7B76"/>
</svg>
