<svg width="44" height="42" viewBox="0 0 44 42" fill="none" xmlns="http://www.w3.org/2000/svg">
<path d="M22.9111 27.9561C22.9111 27.9561 27.2768 41.9166 43.9719 37.7428L42.1249 41.7007C42.1249 41.7007 24.6382 44.3393 22.9111 27.9561Z" fill="#0E9347"/>
<path d="M25.2866 2.76973C24.864 1.98067 24.2746 1.2931 23.5595 0.754805C22.8072 0.289186 21.9156 0.101444 21.0394 0.224112C20.1632 0.346781 19.3576 0.772131 18.762 1.42645C17.6099 2.49793 16.7762 3.86689 16.3529 5.38224C15.9296 6.89759 15.9332 8.50043 16.3633 10.0139C16.874 12.5427 17.7892 14.9727 19.0739 17.21C19.3378 17.7875 19.6508 18.3412 20.0094 18.8651L26.0541 4.47282C25.844 3.88562 25.5873 3.31612 25.2866 2.76973Z" fill="#0E9347"/>
<path d="M20.0332 19.0093C20.6631 18.9101 21.2817 18.7494 21.8802 18.5295C24.4309 17.8953 26.8614 16.8501 29.0764 15.4352C30.4666 14.7025 31.6276 13.6005 32.4317 12.2504C33.2359 10.9004 33.6519 9.35457 33.634 7.78325C33.7042 6.88253 33.4503 5.98635 32.9181 5.25627C32.386 4.52618 31.6105 4.01022 30.7315 3.80138C29.8519 3.65883 28.9518 3.70792 28.0929 3.9453C27.3912 4.15735 26.7154 4.44699 26.078 4.80884C26.078 4.80884 26.078 4.66492 26.078 4.56897L20.0332 18.9613V19.0093Z" fill="#89C763"/>
<path d="M34.3774 26.5173C35.0929 26.3717 35.792 26.1548 36.4643 25.8696C37.2799 25.4996 38.0015 24.9502 38.5751 24.2625C39.1146 23.5374 39.3773 22.6434 39.3157 21.7417C39.2542 20.84 38.8724 19.9901 38.2393 19.3451C37.2364 18.123 35.9132 17.2042 34.4177 16.6915C32.9222 16.1789 31.3135 16.0927 29.7718 16.4426C27.1831 16.7884 24.6654 17.5413 22.3118 18.6734C21.7531 18.8962 21.2084 19.1525 20.6807 19.441L34.4014 26.6372L34.3774 26.5173Z" fill="#0E9347"/>
<path d="M20.6328 19.489C20.7092 20.1202 20.8294 20.7454 20.9926 21.36C21.4515 23.954 22.3263 26.4569 23.5832 28.772C24.2083 30.1908 25.2089 31.412 26.4771 32.304C27.7452 33.1959 29.2328 33.7247 30.7794 33.8333C31.6973 33.9951 32.6425 33.813 33.4346 33.3218C34.2267 32.8306 34.81 32.0648 35.0731 31.1707C35.2535 30.3004 35.2535 29.4024 35.0731 28.5321C34.9651 27.8782 34.7965 27.2358 34.5694 26.6132L20.8487 19.417L20.6328 19.489Z" fill="#89C763"/>
<path d="M19.745 20.2085L12.5488 33.9772C12.6831 34.6955 12.9004 35.3959 13.1965 36.064C13.5581 36.8781 14.0994 37.5998 14.7796 38.1749C15.5066 38.721 16.4057 38.9875 17.3128 38.9258C18.2199 38.8642 19.0746 38.4785 19.721 37.8391C20.9263 36.8396 21.8327 35.5271 22.3405 34.046C22.8483 32.5648 22.9379 30.9723 22.5995 29.4436C22.2671 26.852 21.5136 24.3321 20.3687 21.9835C20.2176 21.3734 20.0087 20.7791 19.745 20.2085Z" fill="#0E9347"/>
<path d="M19.7454 20.2085C19.1107 20.2615 18.4835 20.3821 17.8744 20.5683C15.3001 21.0285 12.8198 21.912 10.5343 23.1829C9.10307 23.824 7.87469 24.8447 6.98245 26.1345C6.09022 27.4242 5.5682 28.9336 5.47303 30.499C5.3478 31.3977 5.54708 32.3116 6.03509 33.0766C6.52309 33.8416 7.26785 34.4075 8.13561 34.6728C9.00328 34.8771 9.90654 34.8771 10.7742 34.6728C11.4594 34.5186 12.1266 34.2935 12.7651 34.0011L19.9613 20.2325L19.7454 20.2085Z" fill="#89C763"/>
<path d="M2.64214 13.7081C1.86471 14.1378 1.18637 14.7262 0.651198 15.4352C0.187256 16.1862 -0.00178023 17.0749 0.116325 17.9498C0.234431 18.8247 0.652365 19.6315 1.29885 20.2326C2.37192 21.3825 3.74094 22.2146 5.25575 22.6377C6.77056 23.0609 8.37264 23.0587 9.88627 22.6313C12.4166 22.1132 14.8466 21.1898 17.0824 19.8968C17.6751 19.6482 18.2383 19.3345 18.7615 18.9613C14.5158 17.1622 8.68691 14.6916 4.36922 12.9165C3.7765 13.1415 3.19951 13.406 2.64214 13.7081Z" fill="#0E9347"/>
<path d="M18.9056 18.913C18.795 18.2856 18.6345 17.6679 18.4258 17.066C17.7785 14.5157 16.7256 12.086 15.3075 9.86982C14.5788 8.48154 13.4811 7.32138 12.1351 6.51721C10.7892 5.71303 9.24735 5.29606 7.67956 5.31225C6.77979 5.24697 5.88601 5.50274 5.15699 6.03414C4.42797 6.56553 3.91092 7.33813 3.69768 8.2147C3.5554 9.10234 3.60447 10.0101 3.8416 10.8773C4.05861 11.5734 4.33966 12.2479 4.68116 12.8922H4.48926C8.80695 14.6673 14.6358 17.1379 18.8816 18.937L18.9056 18.913Z" fill="#89C763"/>
</svg>
