<svg width="44" height="44" viewBox="0 0 44 44" fill="none" xmlns="http://www.w3.org/2000/svg">
<path d="M34.5694 11.1816H9.33486L7.84766 24.5905H36.1526L34.5694 11.1816Z" fill="#7E8589"/>
<path d="M7.84712 26.1016C7.6499 26.1016 7.46076 26.0232 7.32131 25.8838C7.18186 25.7443 7.10352 25.5552 7.10352 25.358V18.6416C7.10352 18.4443 7.18186 18.2552 7.32131 18.1157C7.46076 17.9763 7.6499 17.8979 7.84712 17.8979C8.04433 17.8979 8.23347 17.9763 8.37292 18.1157C8.51238 18.2552 8.59072 18.4443 8.59072 18.6416V25.358C8.59072 25.5552 8.51238 25.7443 8.37292 25.8838C8.23347 26.0232 8.04433 26.1016 7.84712 26.1016Z" fill="#DADCDE"/>
<path d="M13.7963 24.5904C13.5991 24.5904 13.41 24.512 13.2705 24.3726C13.1311 24.2331 13.0527 24.044 13.0527 23.8468V18.6416C13.0527 18.4443 13.1311 18.2552 13.2705 18.1157C13.41 17.9763 13.5991 17.8979 13.7963 17.8979C13.9936 17.8979 14.1827 17.9763 14.3221 18.1157C14.4616 18.2552 14.5399 18.4443 14.5399 18.6416V23.8468C14.5399 24.044 14.4616 24.2331 14.3221 24.3726C14.1827 24.512 13.9936 24.5904 13.7963 24.5904Z" fill="#DADCDE"/>
<path d="M30.1791 24.5905C29.9819 24.5905 29.7928 24.5122 29.6533 24.3727C29.5139 24.2333 29.4355 24.0441 29.4355 23.8469V18.6417C29.4673 18.4644 29.5603 18.3039 29.6985 18.1882C29.8366 18.0726 30.011 18.0093 30.1911 18.0093C30.3713 18.0093 30.5457 18.0726 30.6838 18.1882C30.8219 18.3039 30.915 18.4644 30.9467 18.6417V23.8469C30.9468 23.9466 30.9268 24.0453 30.8879 24.1371C30.8491 24.229 30.7921 24.312 30.7205 24.3814C30.6489 24.4508 30.5641 24.505 30.4711 24.541C30.3781 24.5769 30.2788 24.5937 30.1791 24.5905Z" fill="#DADCDE"/>
<path d="M36.1528 26.1016C35.9556 26.1016 35.7664 26.0232 35.627 25.8838C35.4875 25.7443 35.4092 25.5552 35.4092 25.358V18.6416C35.4092 18.4443 35.4875 18.2552 35.627 18.1157C35.7664 17.9763 35.9556 17.8979 36.1528 17.8979C36.35 17.8979 36.5391 17.9763 36.6786 18.1157C36.818 18.2552 36.8964 18.4443 36.8964 18.6416V25.358C36.8964 25.5552 36.818 25.7443 36.6786 25.8838C36.5391 26.0232 36.35 26.1016 36.1528 26.1016Z" fill="#DADCDE"/>
<path d="M22.0004 23.1032C21.8032 23.1032 21.6141 23.0248 21.4746 22.8854C21.3352 22.7459 21.2568 22.5568 21.2568 22.3596V18.6416C21.2568 18.4443 21.3352 18.2552 21.4746 18.1157C21.6141 17.9763 21.8032 17.8979 22.0004 17.8979C22.1977 17.8979 22.3868 17.9763 22.5262 18.1157C22.6657 18.2552 22.744 18.4443 22.744 18.6416V22.3596C22.744 22.4572 22.7248 22.5539 22.6874 22.6441C22.6501 22.7344 22.5953 22.8163 22.5262 22.8854C22.4572 22.9544 22.3752 23.0092 22.285 23.0466C22.1948 23.0839 22.0981 23.1032 22.0004 23.1032Z" fill="#DADCDE"/>
<path d="M33.1781 8.18335H10.8221C10.0332 8.18335 9.27665 8.49672 8.71884 9.05454C8.16103 9.61235 7.84766 10.3689 7.84766 11.1578H36.1526C36.1463 10.3708 35.8309 9.61792 35.2744 9.06146C34.718 8.50501 33.9651 8.18962 33.1781 8.18335Z" fill="#F40000"/>
<path d="M20.5127 5.23291H23.4871V8.18334H20.5127V5.23291Z" fill="#F79F00"/>
<path d="M22.0004 3.00224C21.8032 3.00224 21.6141 2.9239 21.4746 2.78445C21.3352 2.64499 21.2568 2.45586 21.2568 2.25864V0.771434C21.2568 0.574218 21.3352 0.38508 21.4746 0.245627C21.6141 0.106175 21.8032 0.027832 22.0004 0.027832C22.1977 0.027832 22.3868 0.106175 22.5262 0.245627C22.6657 0.38508 22.744 0.574218 22.744 0.771434V2.25864C22.744 2.35629 22.7248 2.45299 22.6874 2.54321C22.6501 2.63342 22.5953 2.7154 22.5262 2.78445C22.4572 2.8535 22.3752 2.90827 22.285 2.94564C22.1948 2.98301 22.0981 3.00224 22.0004 3.00224Z" fill="#E9EEF2"/>
<path d="M42.1014 26.8455C41.9042 26.8455 41.7151 26.7672 41.5756 26.6277C41.4362 26.4883 41.3578 26.2992 41.3578 26.1019V20.1771C41.3578 19.9799 41.2795 19.7907 41.14 19.6513C41.0006 19.5118 40.8114 19.4335 40.6142 19.4335H3.38608C3.18887 19.4335 2.99973 19.5118 2.86028 19.6513C2.72082 19.7907 2.64248 19.9799 2.64248 20.1771V26.1499C2.64248 26.3471 2.56414 26.5363 2.42468 26.6757C2.28523 26.8152 2.09609 26.8935 1.89888 26.8935C1.70166 26.8935 1.51252 26.8152 1.37307 26.6757C1.23362 26.5363 1.15527 26.3471 1.15527 26.1499V20.1771C1.15527 19.5855 1.39031 19.018 1.80866 18.5997C2.22702 18.1813 2.79444 17.9463 3.38608 17.9463H40.6142C41.2059 17.9463 41.7733 18.1813 42.1916 18.5997C42.61 19.018 42.845 19.5855 42.845 20.1771V26.1499C42.8328 26.3387 42.7491 26.5157 42.611 26.645C42.4728 26.7742 42.2906 26.8459 42.1014 26.8455Z" fill="#E9EEF2"/>
<path d="M43.6126 26.1018L38.3834 40.9979L37.7118 42.3172C37.4639 42.8119 37.084 43.2283 36.614 43.5204C36.1441 43.8126 35.6025 43.9689 35.0492 43.9723H8.92714C8.37383 43.9689 7.83223 43.8126 7.3623 43.5204C6.89237 43.2283 6.51244 42.8119 6.26456 42.3172L5.59292 40.9979L0.387695 26.1018L21.2566 21.7841L22.0002 21.6162L22.7438 21.7841L43.6126 26.1018Z" fill="#E9EEF2"/>
<path d="M38.3833 40.998L37.7116 42.3173C37.4638 42.812 37.0838 43.2285 36.6139 43.5206C36.144 43.8127 35.6024 43.9691 35.0491 43.9725H8.927C8.37368 43.9691 7.83208 43.8127 7.36216 43.5206C6.89223 43.2285 6.51229 42.812 6.26441 42.3173L5.59277 40.998H38.3833Z" fill="#C60000"/>
<path d="M43.6126 26.1018L42.5812 29.0043L22.0002 24.5906L1.41915 29.0043L0.387695 26.1018L21.9762 21.6162L43.6126 26.1018Z" fill="#F40000"/>
<path d="M22.744 21.7841V37.2799C22.744 37.4771 22.6657 37.6662 22.5262 37.8057C22.3868 37.9451 22.1977 38.0235 22.0004 38.0235C21.8032 38.0235 21.6141 37.9451 21.4746 37.8057C21.3352 37.6662 21.2568 37.4771 21.2568 37.2799V21.7841L22.0004 21.6162L22.744 21.7841Z" fill="#F40000"/>
<path d="M6.33638 35.0251L11.5656 34.2815V30.5635L5.59277 32.1706L6.33638 35.0251Z" fill="#F79F00"/>
<path d="M37.6398 35.0251L32.4346 34.2815V30.5635L38.3834 32.0507L37.6398 35.0251Z" fill="#F79F00"/>
<path d="M39.3664 38.0714L38.335 40.9978H5.59242L4.58496 38.0714L21.9997 36.5122L39.3664 38.0714Z" fill="#F40000"/>
<path d="M18.2578 2.25854H25.7178V5.23296H18.2578V2.25854Z" fill="#DADCDE"/>
</svg>
