<svg width="44" height="44" viewBox="0 0 44 44" fill="none" xmlns="http://www.w3.org/2000/svg">
<path d="M2.37855 0.0756836H3.2181C3.91314 0.0756764 4.60132 0.212967 5.24315 0.479669C5.88498 0.746371 6.4678 1.13723 6.95814 1.62981C7.44849 2.12238 7.8367 2.70697 8.10049 3.35C8.36428 3.99303 8.49845 4.68183 8.49529 5.37686V10.1743L7.84763 11.0618H5.78473L5.13708 10.1743V6.09647C5.13708 5.39667 4.85909 4.72554 4.36425 4.23071C3.86942 3.73587 3.19829 3.45788 2.49849 3.45788H2.37855C2.21314 3.45788 2.05451 3.39217 1.93755 3.27521C1.82059 3.15825 1.75488 2.99962 1.75488 2.83421V0.699351C1.75488 0.533945 1.82059 0.375313 1.93755 0.258353C2.05451 0.141393 2.21314 0.0756836 2.37855 0.0756836Z" fill="#64758A"/>
<path d="M8.49524 20.2971H4.70527C4.53112 20.3003 4.3581 20.2684 4.19657 20.2033C4.03503 20.1381 3.88829 20.0411 3.76513 19.9179C3.64197 19.7948 3.54491 19.648 3.47976 19.4865C3.41461 19.3249 3.38271 19.1519 3.38597 18.9778V11.5178C3.38271 11.3436 3.41461 11.1706 3.47976 11.0091C3.54491 10.8475 3.64197 10.7008 3.76513 10.5776C3.88829 10.4545 4.03503 10.3574 4.19657 10.2923C4.3581 10.2271 4.53112 10.1952 4.70527 10.1985H8.49524L9.38277 10.8701V19.5295L8.49524 20.2971Z" fill="#92A0B5"/>
<path d="M41.5972 0.0756836H40.7816C39.3757 0.0756836 38.0273 0.634198 37.0331 1.62836C36.039 2.62252 35.4805 3.9709 35.4805 5.37686V10.1743L36.1281 11.0618H38.143L38.8627 10.1743V6.09647C38.8627 5.39667 39.1407 4.72554 39.6355 4.23071C40.1303 3.73587 40.8015 3.45788 41.5013 3.45788C41.6667 3.45788 41.8253 3.39217 41.9423 3.27521C42.0592 3.15825 42.1249 2.99962 42.1249 2.83421V0.699351C42.1267 0.5493 42.0743 0.403635 41.9774 0.28908C41.8805 0.174525 41.7455 0.0987595 41.5972 0.0756836Z" fill="#64758A"/>
<path d="M39.3668 20.2971H35.5288L34.5693 19.6494V10.8701L35.4569 10.1985H39.3668C39.5409 10.1952 39.7139 10.2271 39.8755 10.2923C40.037 10.3574 40.1837 10.4545 40.3069 10.5776C40.4301 10.7008 40.5271 10.8475 40.5923 11.0091C40.6574 11.1706 40.6893 11.3436 40.6861 11.5178V18.9778C40.6893 19.1519 40.6574 19.3249 40.5923 19.4865C40.5271 19.648 40.4301 19.7948 40.3069 19.9179C40.1837 20.0411 40.037 20.1381 39.8755 20.2033C39.7139 20.2684 39.5409 20.3003 39.3668 20.2971Z" fill="#92A0B5"/>
<path d="M37.5674 43.9241H33.3936C33.2246 43.9241 33.0573 43.8905 32.9015 43.8251C32.7457 43.7597 32.6044 43.6639 32.4861 43.5433C32.3677 43.4227 32.2746 43.2797 32.2121 43.1227C32.1496 42.9656 32.1191 42.7977 32.1223 42.6288V38.8628H38.8627V42.6288C38.8627 42.9723 38.7262 43.3018 38.4833 43.5447C38.2404 43.7876 37.9109 43.9241 37.5674 43.9241Z" fill="#64758A"/>
<path d="M10.5818 43.9241H6.40804C6.06868 43.9178 5.74534 43.7786 5.50759 43.5363C5.26983 43.2941 5.13666 42.9682 5.13672 42.6288V38.8628H11.8771V42.6288C11.8771 42.9723 11.7407 43.3018 11.4977 43.5447C11.2548 43.7876 10.9254 43.9241 10.5818 43.9241Z" fill="#64758A"/>
<path d="M35.4807 7.77559V25.5981L33.8736 26.4856H10.1262L8.49512 25.5981V7.77559C8.50144 7.0736 8.78475 6.40251 9.2834 5.90835C9.78205 5.4142 10.4557 5.13697 11.1577 5.137H32.7462C33.1007 5.1241 33.4541 5.18281 33.7854 5.30963C34.1167 5.43644 34.419 5.62875 34.6743 5.87507C34.9296 6.12138 35.1325 6.41664 35.2711 6.74318C35.4097 7.06973 35.481 7.42086 35.4807 7.77559Z" fill="#C10000"/>
<path d="M32.1701 21.1847V36.3686H11.877V21.1847C11.877 20.8476 11.9433 20.5138 12.0723 20.2024C12.2013 19.8911 12.3904 19.6081 12.6287 19.3698C12.867 19.1314 13.15 18.9424 13.4614 18.8134C13.7728 18.6844 14.1065 18.618 14.4436 18.618H29.5315C29.8755 18.605 30.2184 18.662 30.5397 18.7854C30.861 18.9089 31.1538 19.0963 31.4005 19.3363C31.6472 19.5762 31.8426 19.8638 31.9749 20.1815C32.1072 20.4992 32.1736 20.8405 32.1701 21.1847Z" fill="#F40000"/>
<path d="M28.5723 23.0076V31.0913C28.5724 31.3162 28.4847 31.5323 28.3279 31.6936C28.1711 31.8548 27.9576 31.9486 27.7327 31.9548H16.2669C16.0378 31.9548 15.8182 31.8638 15.6562 31.7019C15.4943 31.5399 15.4033 31.3203 15.4033 31.0913V23.0076C15.4033 22.7786 15.4943 22.5589 15.6562 22.397C15.8182 22.235 16.0378 22.144 16.2669 22.144H27.7327C27.9576 22.1503 28.1711 22.244 28.3279 22.4053C28.4847 22.5666 28.5724 22.7827 28.5723 23.0076Z" fill="#92A0B5"/>
<path d="M11.8772 25.5981V36.3684H3.38574V28.1648C3.38574 27.4841 3.65615 26.8312 4.13749 26.3499C4.61883 25.8686 5.27166 25.5981 5.95237 25.5981H11.8772Z" fill="#FC4242"/>
<path d="M11.8777 29.3399V31.5227C11.8715 31.6776 11.8056 31.824 11.6938 31.9314C11.582 32.0387 11.433 32.0986 11.278 32.0984H7.41609C7.26111 32.0986 7.11211 32.0387 7.00031 31.9314C6.88851 31.824 6.82261 31.6776 6.81641 31.5227V29.3399C6.81641 29.1809 6.87959 29.0283 6.99205 28.9159C7.10451 28.8034 7.25704 28.7402 7.41609 28.7402H11.278C11.4371 28.7402 11.5896 28.8034 11.7021 28.9159C11.8145 29.0283 11.8777 29.1809 11.8777 29.3399Z" fill="#FFDA2D"/>
<path d="M40.5424 36.3684H32.1709V25.5981H38.0238C38.7045 25.5981 39.3573 25.8686 39.8387 26.3499C40.32 26.8312 40.5904 27.4841 40.5904 28.1648L40.5424 36.3684Z" fill="#FC4242"/>
<path d="M37.1599 29.3399V31.5227C37.1537 31.6776 37.0878 31.824 36.976 31.9314C36.8642 32.0387 36.7152 32.0986 36.5603 32.0984H32.6983C32.5433 32.0986 32.3943 32.0387 32.2825 31.9314C32.1707 31.824 32.1048 31.6776 32.0986 31.5227V29.3399C32.0986 29.1809 32.1618 29.0283 32.2743 28.9159C32.3867 28.8034 32.5393 28.7402 32.6983 28.7402H36.5603C36.7193 28.7402 36.8718 28.8034 36.9843 28.9159C37.0968 29.0283 37.1599 29.1809 37.1599 29.3399Z" fill="#FFDA2D"/>
<path d="M25.358 26.03H18.6175C18.4641 26.0006 18.3258 25.9187 18.2262 25.7983C18.1267 25.6779 18.0723 25.5266 18.0723 25.3704C18.0723 25.2142 18.1267 25.0628 18.2262 24.9425C18.3258 24.8221 18.4641 24.7401 18.6175 24.7107H25.358C25.4551 24.6921 25.5551 24.6952 25.651 24.7197C25.7468 24.7443 25.836 24.7897 25.9122 24.8527C25.9885 24.9157 26.0498 24.9948 26.092 25.0843C26.1341 25.1738 26.156 25.2715 26.156 25.3704C26.156 25.4693 26.1341 25.567 26.092 25.6565C26.0498 25.746 25.9885 25.825 25.9122 25.888C25.836 25.9511 25.7468 25.9965 25.651 26.021C25.5551 26.0456 25.4551 26.0486 25.358 26.03Z" fill="#EAF6FF"/>
<path d="M25.3583 29.4121H18.6179C18.4398 29.4121 18.269 29.3414 18.143 29.2154C18.0171 29.0895 17.9463 28.9186 17.9463 28.7405C17.9463 28.5624 18.0171 28.3915 18.143 28.2656C18.269 28.1396 18.4398 28.0688 18.6179 28.0688H25.3583C25.5365 28.0688 25.7073 28.1396 25.8333 28.2656C25.9592 28.3915 26.03 28.5624 26.03 28.7405C26.03 28.9186 25.9592 29.0895 25.8333 29.2154C25.7073 29.3414 25.5365 29.4121 25.3583 29.4121Z" fill="#EAF6FF"/>
<path d="M31.8351 9.9584V14.7558C31.8351 14.9149 31.7719 15.0674 31.6595 15.1799C31.547 15.2923 31.3945 15.3555 31.2354 15.3555H12.7413C12.5841 15.3496 12.435 15.2845 12.3238 15.1733C12.2126 15.0621 12.1475 14.913 12.1416 14.7558V9.9584C12.1416 9.78829 12.1751 9.61986 12.2402 9.4627C12.3053 9.30555 12.4007 9.16275 12.521 9.04247C12.6413 8.92219 12.7841 8.82678 12.9412 8.76169C13.0984 8.69659 13.2668 8.66309 13.4369 8.66309H30.5638C30.9031 8.66937 31.2265 8.80861 31.4642 9.05085C31.702 9.29309 31.8352 9.61897 31.8351 9.9584Z" fill="#EAF6FF"/>
<path d="M30.4193 40.5423H13.6283L0.699171 38.9111C0.548583 38.899 0.408103 38.8306 0.305818 38.7194C0.203534 38.6082 0.14698 38.4625 0.147464 38.3114V36.1046C0.147464 35.9392 0.213173 35.7806 0.330133 35.6636C0.447094 35.5467 0.605725 35.481 0.771132 35.481H43.3004C43.4659 35.481 43.6245 35.5467 43.7415 35.6636C43.8584 35.7806 43.9241 35.9392 43.9241 36.1046V38.3114C43.9246 38.4625 43.8681 38.6082 43.7658 38.7194C43.6635 38.8306 43.523 38.899 43.3724 38.9111L30.4193 40.5423Z" fill="#EAF6FF"/>
<path d="M43.9241 37.4239V38.3114C43.9246 38.4625 43.8681 38.6082 43.7658 38.7194C43.6635 38.8306 43.523 38.899 43.3724 38.9111L30.4193 40.5423H13.6283L0.699171 38.9111C0.548583 38.899 0.408103 38.8306 0.305818 38.7194C0.203534 38.6082 0.14698 38.4625 0.147464 38.3114V36.1046C0.147464 35.9392 0.213173 35.7806 0.330133 35.6636C0.447094 35.5467 0.605725 35.481 0.771132 35.481H2.78606V37.0881L16.2909 38.7672H33.0819L43.9241 37.4239Z" fill="#D8ECFE"/>
</svg>
