<svg width="44" height="38" viewBox="0 0 44 38" fill="none" xmlns="http://www.w3.org/2000/svg">
<path d="M42.2449 33.3684L35.8163 12.5955H8.18303L1.73047 33.3684V9.5011C1.73676 8.47879 2.14566 7.50014 2.86856 6.77725C3.59145 6.05435 4.5701 5.64545 5.59241 5.63916H38.3829C39.4052 5.64545 40.3839 6.05435 41.1068 6.77725C41.8297 7.50014 42.2386 8.47879 42.2449 9.5011V33.4883V33.3684Z" fill="#FFDA2D"/>
<path d="M19.4098 5.63901C18.9032 5.63427 18.4094 5.47973 17.9905 5.19484C17.5716 4.90995 17.2463 4.50747 17.0557 4.03808C16.8652 3.56869 16.8177 3.0534 16.9195 2.55711C17.0212 2.06082 17.2675 1.60574 17.6274 1.24919C17.9873 0.892634 18.4446 0.650557 18.9418 0.553452C19.4391 0.456346 19.9539 0.508555 20.4215 0.703502C20.8891 0.898449 21.2885 1.22741 21.5695 1.64896C21.8505 2.0705 22.0004 2.56577 22.0005 3.07238C22.0005 3.41146 21.9333 3.74719 21.8028 4.06016C21.6723 4.37313 21.4811 4.65715 21.2402 4.8958C20.9994 5.13445 20.7136 5.323 20.3994 5.45057C20.0852 5.57813 19.7489 5.64218 19.4098 5.63901Z" fill="#FFE871"/>
<path d="M24.5671 5.63901C24.0605 5.63427 23.5666 5.47973 23.1477 5.19484C22.7288 4.90995 22.4036 4.50747 22.213 4.03808C22.0224 3.56869 21.975 3.0534 22.0767 2.55711C22.1784 2.06082 22.4247 1.60574 22.7846 1.24919C23.1445 0.892634 23.6019 0.650557 24.0991 0.553452C24.5963 0.456346 25.1111 0.508555 25.5787 0.703502C26.0463 0.898449 26.4458 1.22741 26.7267 1.64896C27.0077 2.0705 27.1577 2.56577 27.1577 3.07238C27.1577 3.41146 27.0905 3.74719 26.96 4.06016C26.8295 4.37313 26.6383 4.65715 26.3975 4.8958C26.1566 5.13445 25.8708 5.323 25.5566 5.45057C25.2425 5.57813 24.9061 5.64218 24.5671 5.63901Z" fill="#FFD32A"/>
<path d="M38.3833 5.63916H22V12.5955H35.8166L42.2452 33.3684V9.5011C42.2389 8.47879 41.83 7.50014 41.1071 6.77725C40.3842 6.05435 39.4056 5.64545 38.3833 5.63916Z" fill="#F79F00"/>
<path d="M37.4956 37.4943H6.50408C5.49586 37.4977 4.50097 37.2639 3.59978 36.8118C2.69859 36.3598 1.91636 35.7021 1.3163 34.8919C0.716227 34.0816 0.315139 33.1417 0.145433 32.1478C-0.0242725 31.154 0.04216 30.1341 0.339367 29.1707L6.2882 9.98096H37.7114L43.6363 29.1707C43.9375 30.1337 44.0078 31.154 43.8415 32.1491C43.6752 33.1443 43.277 34.0863 42.6792 34.8991C42.0813 35.7118 41.3005 36.3724 40.4 36.8274C39.4995 37.2824 38.5045 37.5191 37.4956 37.5183V37.4943Z" fill="#F40000"/>
<path d="M43.6365 29.1707L37.7116 9.98096H22V37.4943H37.4957C38.5019 37.4939 39.494 37.2574 40.3921 36.8037C41.2902 36.35 42.0693 35.6919 42.6666 34.8822C43.264 34.0725 43.6629 33.1339 43.8314 32.1419C43.9998 31.1499 43.9331 30.1322 43.6365 29.1707Z" fill="#C40A0A"/>
</svg>
