<svg width="45" height="38" viewBox="0 0 45 38" fill="none" xmlns="http://www.w3.org/2000/svg">
<path d="M31.1318 3.02441H38.1361V23.0297H31.1318V3.02441Z" fill="#EAEAEA"/>
<path d="M38.2074 1.56131H31.0112C30.9368 1.55807 30.8625 1.56995 30.7927 1.59622C30.723 1.62249 30.6593 1.66262 30.6055 1.71417C30.5517 1.76573 30.5089 1.82765 30.4797 1.8962C30.4505 1.96475 30.4355 2.03851 30.4355 2.11302V3.81611C30.4355 3.89063 30.4505 3.96438 30.4797 4.03293C30.5089 4.10148 30.5517 4.1634 30.6055 4.21496C30.6593 4.26651 30.723 4.30664 30.7927 4.33291C30.8625 4.35918 30.9368 4.37106 31.0112 4.36782H38.2074C38.2818 4.37106 38.3562 4.35918 38.4259 4.33291C38.4956 4.30664 38.5593 4.26651 38.6131 4.21496C38.6669 4.1634 38.7097 4.10148 38.7389 4.03293C38.7681 3.96438 38.7832 3.89063 38.7831 3.81611V2.11302C38.7832 2.03851 38.7681 1.96475 38.7389 1.8962C38.7097 1.82765 38.6669 1.76573 38.6131 1.71417C38.5593 1.66262 38.4956 1.62249 38.4259 1.59622C38.3562 1.56995 38.2818 1.55807 38.2074 1.56131Z" fill="#D6D6D6"/>
<path d="M22.9996 2.20898L7.50391 15.5938V36.3668C7.50391 36.5958 7.59488 36.8154 7.75683 36.9774C7.91878 37.1393 8.13842 37.2303 8.36744 37.2303H37.6318C37.8567 37.2241 38.0702 37.1303 38.227 36.9691C38.3838 36.8078 38.4715 36.5917 38.4714 36.3668V15.5938L22.9996 2.20898Z" fill="#FDD1D5"/>
<path d="M34.6816 31.0415H25.9743C25.8924 31.0415 25.8113 31.0254 25.7356 30.994C25.6599 30.9627 25.5912 30.9168 25.5333 30.8588C25.4753 30.8009 25.4294 30.7322 25.3981 30.6565C25.3667 30.5808 25.3506 30.4997 25.3506 30.4178V23.6295C25.3568 23.4683 25.4252 23.3157 25.5415 23.2039C25.6578 23.0921 25.8129 23.0297 25.9743 23.0298H34.6816C34.8407 23.0298 34.9932 23.093 35.1056 23.2054C35.2181 23.3179 35.2813 23.4704 35.2813 23.6295V30.4178C35.2814 30.5792 35.219 30.7343 35.1072 30.8506C34.9954 30.9669 34.8428 31.0353 34.6816 31.0415Z" fill="#C0D6F2"/>
<path d="M22.2083 37.1825H13.501V23.7257C13.501 23.5603 13.5667 23.4017 13.6836 23.2847C13.8006 23.1678 13.9592 23.1021 14.1246 23.1021H21.5847C21.7501 23.1021 21.9087 23.1678 22.0257 23.2847C22.1426 23.4017 22.2083 23.5603 22.2083 23.7257V37.1825Z" fill="#F40000"/>
<path d="M30.3159 31.6893C30.1441 31.6893 29.9794 31.6211 29.8579 31.4996C29.7365 31.3782 29.6682 31.2134 29.6682 31.0417V23.0299C29.6496 22.9328 29.6527 22.8327 29.6773 22.7369C29.7018 22.6411 29.7472 22.5519 29.8102 22.4757C29.8732 22.3994 29.9523 22.338 30.0418 22.2959C30.1313 22.2538 30.229 22.2319 30.3279 22.2319C30.4268 22.2319 30.5245 22.2538 30.614 22.2959C30.7035 22.338 30.7825 22.3994 30.8456 22.4757C30.9086 22.5519 30.954 22.6411 30.9785 22.7369C31.0031 22.8327 31.0061 22.9328 30.9875 23.0299V31.0417C30.9876 31.1288 30.9701 31.215 30.936 31.2952C30.902 31.3754 30.8521 31.4479 30.7894 31.5083C30.7267 31.5688 30.6525 31.616 30.5711 31.6471C30.4898 31.6782 30.4029 31.6925 30.3159 31.6893Z" fill="#F40000"/>
<path d="M35.2816 27.6833H25.3509C25.1975 27.654 25.0592 27.572 24.9596 27.4516C24.8601 27.3312 24.8057 27.1799 24.8057 27.0237C24.8057 26.8675 24.8601 26.7162 24.9596 26.5958C25.0592 26.4754 25.1975 26.3934 25.3509 26.364H35.2816C35.3788 26.3454 35.4788 26.3485 35.5747 26.3731C35.6705 26.3976 35.7597 26.443 35.8359 26.506C35.9122 26.569 35.9735 26.6481 36.0157 26.7376C36.0578 26.8271 36.0797 26.9248 36.0797 27.0237C36.0797 27.1226 36.0578 27.2203 36.0157 27.3098C35.9735 27.3993 35.9122 27.4783 35.8359 27.5414C35.7597 27.6044 35.6705 27.6498 35.5747 27.6743C35.4788 27.6989 35.3788 27.7019 35.2816 27.6833Z" fill="#F40000"/>
<path d="M15.6842 32.1452C15.5971 32.1452 15.5109 32.1277 15.4307 32.0937C15.3505 32.0597 15.278 32.0098 15.2176 31.9471C15.1571 31.8844 15.1099 31.8101 15.0788 31.7288C15.0477 31.6474 15.0334 31.5606 15.0366 31.4735V30.0823C15.0365 29.9082 15.1039 29.7409 15.2247 29.6156C15.3456 29.4904 15.5103 29.4169 15.6842 29.4106C15.8605 29.4166 16.0278 29.4893 16.1525 29.614C16.2772 29.7387 16.3499 29.9061 16.3559 30.0823V31.5695C16.3326 31.7305 16.2517 31.8776 16.1282 31.9835C16.0047 32.0894 15.8469 32.1469 15.6842 32.1452Z" fill="#890000"/>
<path d="M34.6818 31.6894H25.9744C25.6373 31.6894 25.3139 31.5555 25.0755 31.3171C24.8371 31.0786 24.7031 30.7553 24.7031 30.4181V23.6297C24.7031 23.2925 24.8371 22.9692 25.0755 22.7308C25.3139 22.4923 25.6373 22.3584 25.9744 22.3584H34.6818C35.019 22.3584 35.3423 22.4923 35.5808 22.7308C35.8192 22.9692 35.9531 23.2925 35.9531 23.6297V30.4181C35.9531 30.7553 35.8192 31.0786 35.5808 31.3171C35.3423 31.5555 35.019 31.6894 34.6818 31.6894ZM25.9744 30.3701H34.5859V23.6777H25.9744V30.3701Z" fill="#F40000"/>
<path d="M41.4466 21.9743L23.3363 6.23873C23.238 6.15887 23.1152 6.11529 22.9885 6.11529C22.8618 6.11529 22.739 6.15887 22.6407 6.23873L4.53033 21.9743C4.32318 22.1703 4.07848 22.3223 3.81099 22.4211C3.5435 22.5199 3.25876 22.5635 2.97396 22.5492C2.68917 22.5349 2.41021 22.4631 2.15394 22.338C1.89767 22.213 1.66939 22.0373 1.48288 21.8216C1.29637 21.6059 1.15549 21.3547 1.06876 21.083C0.982029 20.8114 0.951234 20.525 0.978234 20.2411C1.00524 19.9572 1.08947 19.6818 1.22586 19.4313C1.36225 19.1809 1.54796 18.9607 1.7718 18.784L22.065 1.22541C22.3218 1.00422 22.6495 0.882568 22.9885 0.882568C23.3274 0.882568 23.6551 1.00422 23.912 1.22541L44.2052 18.784C44.6 19.1576 44.8355 19.669 44.8627 20.2118C44.8899 20.7546 44.7067 21.287 44.3512 21.6981C43.9957 22.1092 43.4954 22.3674 42.9543 22.4188C42.4133 22.4703 41.8732 22.3111 41.4466 21.9743Z" fill="#F40000"/>
</svg>
