<svg width="32" height="44" viewBox="0 0 32 44" fill="none" xmlns="http://www.w3.org/2000/svg">
<path d="M21.0616 33.9694H10.915L7.67676 28.5483H24.2999L21.0616 33.9694ZM11.7786 32.4103H20.1741L21.5654 30.0116H10.4113L11.7786 32.4103Z" fill="#686868"/>
<path d="M19.8144 22.5757L17.5596 29.2921H21.3735L26.171 20.8486C24.1239 21.6617 21.9915 22.2411 19.8144 22.5757Z" fill="white"/>
<path d="M20.2699 11.3259C21.0136 14.5944 21.0136 17.9882 20.2699 21.2566L19.8142 22.6239C21.9452 22.2556 24.0288 21.6522 26.0268 20.8249C27.0271 17.3534 27.0271 13.67 26.0268 10.1985V9.98263C23.8821 9.12395 21.644 8.52013 19.3584 8.18359L20.2699 11.3259Z" fill="white"/>
<path d="M12.1619 22.5759C10.0324 22.2011 7.9495 21.5979 5.94922 20.7769L10.5308 29.2443H14.4407L12.1619 22.5759Z" fill="white"/>
<path d="M19.3583 8.18348L16.9595 0.027832H15.9521H14.9446L12.5459 8.18348C14.8037 7.84031 17.1004 7.84031 19.3583 8.18348Z" fill="#F40000"/>
<path d="M25.9549 9.98252L21.1575 0.867383C19.8329 0.40907 18.4538 0.126804 17.0557 0.027832L19.4544 8.18348C21.6823 8.53556 23.863 9.13909 25.9549 9.98252Z" fill="white"/>
<path d="M26.0268 10.0305L31.256 13.1488C30.8198 10.3946 29.6463 7.80988 27.8599 5.66873C26.0735 3.52758 23.7408 1.90991 21.1094 0.987305L25.9068 10.1024L26.0268 10.0305Z" fill="#F40000"/>
<path d="M12.1619 22.5759L11.7781 21.2566C11.0344 17.9882 11.0344 14.5944 11.7781 11.3259L12.6176 8.18359C10.3625 8.51732 8.15582 9.12135 6.04513 9.98263V10.1985C5.04485 13.67 5.04485 17.3534 6.04513 20.8249C8.0454 21.6459 10.1283 22.2491 12.2578 22.6239L12.1619 22.5759Z" fill="white"/>
<path d="M12.1621 22.5757L14.4409 29.2921H17.5592L19.814 22.5757C17.2798 22.9851 14.6963 22.9851 12.1621 22.5757Z" fill="#F40000"/>
<path d="M11.7782 21.2566L12.258 22.6239C14.7843 23.0307 17.3595 23.0307 19.8859 22.6239L20.3656 21.2566C21.0856 17.9855 21.0856 14.597 20.3656 11.3259L19.3822 8.18358C17.1479 7.84766 14.876 7.84766 12.6418 8.18358L11.7782 11.3259C11.0466 14.5957 11.0466 17.9868 11.7782 21.2566Z" fill="#F40000"/>
<path d="M26.1705 20.8487L21.373 29.3402H22.8603C25.1009 28.2498 27.0388 26.6248 28.503 24.6085C29.9671 22.5921 30.9125 20.2464 31.2558 17.7783L26.1705 20.8247V20.8487Z" fill="#F40000"/>
<path d="M31.2556 13.1486L26.0264 10.0303V10.2462C27.0266 13.7176 27.0266 17.401 26.0264 20.8725L31.2556 17.7781C31.3734 16.9838 31.4375 16.1824 31.4475 15.3794C31.4312 14.6166 31.3671 13.8555 31.2556 13.1006V13.1486Z" fill="#F40000"/>
<path d="M12.6177 8.18348L15.0164 0.027832C13.6183 0.126804 12.2392 0.40907 10.9146 0.867383L6.11719 9.98252C8.20428 9.12502 10.3867 8.52102 12.6177 8.18348Z" fill="white"/>
<path d="M6.06887 9.98233L10.8663 0.867188C8.21749 1.79708 5.87269 3.43228 4.08466 5.59651C2.29663 7.76075 1.13318 10.3719 0.719727 13.1486L5.92495 10.0303L6.06887 9.98233Z" fill="#F40000"/>
<path d="M5.94936 20.8487L0.744141 17.7783C1.0665 20.2497 1.99225 22.6037 3.43969 24.6327C4.88713 26.6616 6.81176 28.303 9.04371 29.4121H10.5309L5.94936 20.8487Z" fill="#F40000"/>
<path d="M5.94888 10.1983V9.98242L0.743655 13.1008C0.620241 13.8542 0.556078 14.6161 0.551758 15.3795C0.555179 16.143 0.619348 16.905 0.743655 17.6583L5.94888 20.7767C4.9578 17.3202 4.9578 13.6548 5.94888 10.1983Z" fill="#F40000"/>
<path d="M18.3027 39.3665H13.6731C13.5256 39.3654 13.3816 39.3219 13.2582 39.241C13.1349 39.1602 13.0374 39.0456 12.9775 38.9108L10.5788 33.4897C10.5393 33.3968 10.5185 33.297 10.5176 33.196C10.5167 33.0951 10.5358 32.9949 10.5737 32.9013C10.6115 32.8078 10.6675 32.7226 10.7384 32.6507C10.8092 32.5787 10.8935 32.5215 10.9866 32.4822C11.0891 32.4578 11.1959 32.4578 11.2984 32.4822H20.5575C20.6603 32.4822 20.7621 32.5028 20.8568 32.5429C20.9516 32.5829 21.0373 32.6416 21.1089 32.7155C21.1805 32.7893 21.2365 32.8768 21.2736 32.9727C21.3108 33.0686 21.3283 33.171 21.325 33.2738C21.3366 33.3694 21.3366 33.466 21.325 33.5616L18.9263 38.9828C18.8595 39.0909 18.7683 39.1819 18.66 39.2486C18.5517 39.3152 18.4293 39.3556 18.3027 39.3665ZM14.1769 37.8314H17.7989L19.454 33.9694H12.5217L14.1769 37.8314Z" fill="#D9D9D9"/>
<path d="M18.8307 39.3669H13.1697L10.1953 32.4106H21.8051L18.8307 39.3669ZM14.1772 37.8318H17.7993L19.4544 33.9698H12.5221L14.1772 37.8318Z" fill="#686868"/>
<path d="M15.2324 32.4106H16.7676V39.3669H15.2324V32.4106Z" fill="#686868"/>
<path d="M17.5348 43.9961H14.4405C14.0333 43.9961 13.6428 43.8344 13.3549 43.5465C13.067 43.2586 12.9053 42.8681 12.9053 42.461V38.599C12.9053 38.3954 12.9861 38.2002 13.1301 38.0563C13.274 37.9123 13.4693 37.8314 13.6729 37.8314H18.3024C18.4052 37.8282 18.5076 37.8457 18.6035 37.8828C18.6994 37.92 18.7869 37.976 18.8607 38.0476C18.9346 38.1192 18.9933 38.2049 19.0333 38.2996C19.0734 38.3944 19.094 38.4962 19.094 38.599V42.461C19.094 42.6646 19.0535 42.8662 18.9749 43.054C18.8962 43.2419 18.781 43.4122 18.6359 43.5551C18.4908 43.6979 18.3187 43.8105 18.1297 43.8862C17.9406 43.962 17.7384 43.9993 17.5348 43.9961Z" fill="#804D35"/>
</svg>
