<svg width="44" height="44" viewBox="0 0 44 44" fill="none" xmlns="http://www.w3.org/2000/svg">
<path d="M5.90495 31.4029L0.052068 43.5164C0.0235355 43.576 0.0146645 43.6431 0.0267306 43.7081C0.0387967 43.773 0.0711765 43.8325 0.119204 43.8778C0.167232 43.9232 0.228425 43.9521 0.293959 43.9605C0.359492 43.9688 0.425982 43.9561 0.483838 43.9242L12.4774 38.0953L13.6768 36.896L6.98437 30.2275L5.90495 31.4029Z" fill="#FED9A8"/>
<path d="M0.483838 43.9242L6.88842 40.8298L3.14642 37.1118L0.052068 43.5164C0.0235355 43.576 0.0146645 43.6431 0.0267306 43.708C0.0387967 43.773 0.0711765 43.8324 0.119204 43.8778C0.167232 43.9232 0.228425 43.9521 0.293959 43.9604C0.359492 43.9688 0.425982 43.9561 0.483838 43.9242Z" fill="#333333"/>
<path d="M0.124023 43.8761C0.175077 43.917 0.238527 43.9393 0.303927 43.9393C0.369327 43.9393 0.432778 43.917 0.483831 43.8761L12.4774 38.0473L13.6768 36.8479L10.3426 33.5137L0.124023 43.8761Z" fill="#F4C892"/>
<path d="M0.124023 43.8764C0.175077 43.9173 0.238527 43.9396 0.303927 43.9396C0.369327 43.9396 0.432778 43.9173 0.483831 43.8764L6.88841 40.7821L5.01741 38.9351L0.124023 43.8764Z" fill="#1A1A1A"/>
<path d="M42.5812 1.39491C43.453 2.2906 43.9408 3.49118 43.9408 4.74112C43.9408 5.99106 43.453 7.19165 42.5812 8.08734L12.5972 38.0713L5.92871 31.3789L35.9127 1.39491C36.8073 0.530218 38.0028 0.046875 39.2469 0.046875C40.4911 0.046875 41.6866 0.530218 42.5812 1.39491Z" fill="#FFDA2D"/>
<path d="M42.581 1.39485C42.0962 0.91846 41.5156 0.550527 40.8779 0.31543C41.1858 1.16436 41.2478 2.08296 41.0569 2.96559C40.8659 3.84821 40.4297 4.65902 39.7985 5.30477L9.81445 35.2888L12.597 38.0713L42.581 8.18323C43.027 7.73768 43.3809 7.20858 43.6223 6.62618C43.8637 6.04378 43.988 5.4195 43.988 4.78904C43.988 4.15859 43.8637 3.53431 43.6223 2.95191C43.3809 2.36951 43.027 1.84041 42.581 1.39485V1.39485Z" fill="#D88500"/>
<path d="M33.3001 3.98165L30.7559 6.52588L37.4387 13.2087L39.9829 10.6645L33.3001 3.98165Z" fill="#DDDDDD"/>
<path d="M37.1731 7.8171L34.6289 10.3613L37.4615 13.1939L40.0057 10.6497L37.1731 7.8171Z" fill="#BFBFBF"/>
<path d="M42.5813 1.39491C41.6868 0.530218 40.4913 0.046875 39.2471 0.046875C38.0029 0.046875 36.8074 0.530218 35.9129 1.39491L33.3223 3.98553L39.9907 10.582L42.5813 8.18329C43.0274 7.73773 43.3812 7.20863 43.6227 6.62623C43.8641 6.04383 43.9884 5.41956 43.9884 4.7891C43.9884 4.15864 43.8641 3.53436 43.6227 2.95196C43.3812 2.36956 43.0274 1.84046 42.5813 1.39491Z" fill="#F40000"/>
<path d="M42.5807 1.39485C42.1028 0.909798 41.5203 0.540562 40.8776 0.31543C41.1776 1.1633 41.2332 2.07842 41.0381 2.95637C40.843 3.83433 40.4051 4.63977 39.7742 5.28078L37.1836 7.84741L39.9901 10.582L42.5807 8.18323C43.0268 7.73768 43.3806 7.20858 43.622 6.62618C43.8635 6.04378 43.9877 5.4195 43.9877 4.78904C43.9877 4.15858 43.8635 3.53431 43.622 2.95191C43.3806 2.36951 43.0268 1.84041 42.5807 1.39485Z" fill="#BA0000"/>
<path d="M32.9863 8.76173L8.1377 33.6104L10.3597 35.8323L35.2083 10.9837L32.9863 8.76173Z" fill="#F79F00"/>
</svg>
