<svg width="44" height="45" viewBox="0 0 44 45" fill="none" xmlns="http://www.w3.org/2000/svg">
<path d="M15.0707 25.6563L11.8311 28.896L16.0375 33.1025L19.2772 29.8628L15.0707 25.6563Z" fill="#344A5E"/>
<path d="M27.9485 31.2514C35.7912 31.2514 42.1489 24.8937 42.1489 17.051C42.1489 9.20834 35.7912 2.85059 27.9485 2.85059C20.1058 2.85059 13.748 9.20834 13.748 17.051C13.748 24.8937 20.1058 31.2514 27.9485 31.2514Z" fill="#DDDDDD"/>
<path d="M16.6031 5.68121C18.8485 3.43996 21.708 1.91459 24.82 1.29784C27.9321 0.681101 31.1572 1.00066 34.0877 2.21614C37.0182 3.43162 39.5227 5.48848 41.2847 8.12681C43.0466 10.7651 43.9871 13.8666 43.9871 17.0391C43.9871 20.2117 43.0466 23.3131 41.2847 25.9515C39.5227 28.5898 37.0182 30.6467 34.0877 31.8622C31.1572 33.0776 27.9321 33.3972 24.82 32.7804C21.708 32.1637 18.8485 30.6383 16.6031 28.3971C13.6104 25.3744 11.9316 21.2927 11.9316 17.0391C11.9316 12.7856 13.6104 8.70391 16.6031 5.68121ZM19.1457 8.34378C17.4204 10.0724 16.2461 12.2736 15.7713 14.6693C15.2965 17.065 15.5425 19.5476 16.4782 21.8036C17.4139 24.0595 18.9972 25.9875 21.0282 27.3439C23.0593 28.7003 25.4467 29.4242 27.889 29.4242C30.3313 29.4242 32.7188 28.7003 34.7498 27.3439C36.7808 25.9875 38.3642 24.0595 39.2999 21.8036C40.2356 19.5476 40.4816 17.065 40.0068 14.6693C39.532 12.2736 38.3577 10.0724 36.6324 8.34378C35.4866 7.19135 34.1242 6.2768 32.6237 5.65273C31.1232 5.02866 29.5141 4.70739 27.889 4.70739C26.2639 4.70739 24.6549 5.02866 23.1543 5.65273C21.6538 6.2768 20.2915 7.19135 19.1457 8.34378Z" fill="#686868"/>
<path d="M16.8672 33.6983C14.6506 37.0293 12.248 40.2326 9.67099 43.2932C8.5997 44.2717 7.1924 44.7994 5.74189 44.7666C4.29138 44.7338 2.90939 44.1429 1.88346 43.117C0.857534 42.0911 0.26669 40.7091 0.233866 39.2586C0.201043 37.8081 0.728769 36.4007 1.70724 35.3295C4.73371 32.7098 7.93984 30.3052 11.3021 28.1333L16.8672 33.6983Z" fill="#F40000"/>
<path d="M8.71094 29.9561C9.45454 29.4044 10.2701 28.8527 11.1097 28.2051L16.6987 33.7941C16.147 34.6097 15.5233 35.4492 14.9716 36.1928L8.71094 29.9561Z" fill="#BF0000"/>
<path d="M17.7779 34.7057C18.0416 34.4367 18.1893 34.075 18.1893 33.6983C18.1893 33.3215 18.0416 32.9598 17.7779 32.6908L12.1889 27.1258C11.9198 26.8621 11.5581 26.7144 11.1814 26.7144C10.8047 26.7144 10.443 26.8621 10.1739 27.1258C9.91173 27.3907 9.76465 27.7485 9.76465 28.1212C9.76465 28.494 9.91173 28.8517 10.1739 29.1167L15.763 34.7057C15.8844 34.856 16.0379 34.9772 16.2122 35.0604C16.3865 35.1437 16.5772 35.1869 16.7704 35.1869C16.9636 35.1869 17.1543 35.1437 17.3286 35.0604C17.503 34.9772 17.6565 34.856 17.7779 34.7057Z" fill="#F40000"/>
<path d="M27.949 11.6539C30.3203 11.6539 32.2427 10.7518 32.2427 9.63895C32.2427 8.52613 30.3203 7.62402 27.949 7.62402C25.5776 7.62402 23.6553 8.52613 23.6553 9.63895C23.6553 10.7518 25.5776 11.6539 27.949 11.6539Z" fill="white"/>
</svg>
