<svg width="40" height="44" viewBox="0 0 40 44" fill="none" xmlns="http://www.w3.org/2000/svg">
<path d="M35.9278 12.9808H4.09673C3.61922 12.2104 3.36971 11.3205 3.37711 10.4141C3.38308 9.6845 3.54168 8.96418 3.84271 8.29951C4.14374 7.63484 4.58054 7.04053 5.12502 6.55479C5.6695 6.06905 6.30962 5.70263 7.00419 5.4791C7.69877 5.25557 8.43244 5.17988 9.15803 5.25688C9.72193 4.31701 10.5681 3.57912 11.576 3.1484C12.5839 2.71768 13.702 2.61611 14.771 2.85816C15.3546 2.02188 16.1315 1.3389 17.0357 0.867292C17.9398 0.395689 18.9445 0.149414 19.9643 0.149414C20.984 0.149414 21.9887 0.395689 22.8929 0.867292C23.797 1.3389 24.5739 2.02188 25.1575 2.85816C25.5568 2.75199 25.9677 2.6956 26.3808 2.69025C27.2875 2.68737 28.1786 2.92579 28.9627 3.38106C29.7467 3.83632 30.3955 4.49203 30.8425 5.28087C31.7885 5.18371 32.7431 5.34759 33.6026 5.75473C34.4621 6.16187 35.1936 6.7967 35.7177 7.59028C36.2418 8.38387 36.5385 9.30588 36.5755 10.2562C36.6126 11.2065 36.3885 12.1488 35.9278 12.9808V12.9808Z" fill="#FFDA2D"/>
<path d="M35.9275 12.981H20V0.171875C21.0144 0.188382 22.0105 0.444756 22.9069 0.920032C23.8033 1.39531 24.5744 2.07599 25.1572 2.90642C25.5566 2.80025 25.9675 2.74385 26.3806 2.73851C27.2873 2.73562 28.1783 2.97405 28.9624 3.42931C29.7465 3.88458 30.3953 4.54028 30.8422 5.32913C31.7815 5.23774 32.728 5.40344 33.5804 5.80852C34.4329 6.2136 35.1591 6.84281 35.6815 7.62882C36.2038 8.41484 36.5027 9.32808 36.546 10.2708C36.5893 11.2136 36.3756 12.1504 35.9275 12.981Z" fill="#F79F00"/>
<path d="M5.75185 35.1689L3.35313 42.1252C3.29403 42.3193 3.28048 42.5244 3.31352 42.7245C3.34657 42.9247 3.42533 43.1145 3.54368 43.2793C3.66203 43.444 3.81678 43.5793 3.99591 43.6745C4.17503 43.7697 4.3737 43.8224 4.57648 43.8283H7.14311C7.30914 43.8266 7.47317 43.7918 7.62558 43.7259C7.77798 43.66 7.91569 43.5644 8.03064 43.4445L14.1714 37.3278L5.75185 35.1689Z" fill="#575F64"/>
<path d="M36.5508 42.1252L34.1521 35.1689L25.6846 37.3278L31.8013 43.4445C32.0439 43.6858 32.3707 43.8234 32.7128 43.8283H35.2795C35.4826 43.8237 35.6818 43.7714 35.861 43.6755C36.0402 43.5797 36.1943 43.443 36.3109 43.2766C36.4444 43.1203 36.5364 42.9329 36.5783 42.7316C36.6202 42.5304 36.6107 42.3218 36.5508 42.1252V42.1252Z" fill="#32393F"/>
<path d="M39.1657 25.9101C39.1657 34.3775 30.5782 41.2619 19.9759 41.2619C9.37355 41.2619 0.786133 34.3775 0.786133 25.9101C1.04836 21.1574 2.85018 16.6192 5.9194 12.981H34.0564C37.1169 16.6223 38.9102 21.1602 39.1657 25.9101Z" fill="#575F64"/>
<path d="M39.1654 25.9101C39.1654 34.3775 30.5779 41.2619 19.9756 41.2619V12.981H34.0321C37.1013 16.6192 38.9031 21.1574 39.1654 25.9101Z" fill="#32393F"/>
<path d="M26.3809 27.2053C26.3674 28.2561 26.0955 29.2874 25.5893 30.2083C25.0831 31.1292 24.358 31.9114 23.4781 32.4859C22.5981 33.0604 21.5904 33.4095 20.5436 33.5025C19.4969 33.5955 18.4433 33.4295 17.4759 33.0191C16.5084 32.6088 15.6568 31.9666 14.9962 31.1494C14.3355 30.3322 13.8861 29.3649 13.6876 28.333C13.4891 27.301 13.5475 26.2361 13.8578 25.2321C14.1681 24.2281 14.7206 23.3158 15.4667 22.5758C15.7153 22.3718 16.0309 22.2675 16.352 22.2833C16.6732 22.2991 16.977 22.4337 17.2044 22.6611C17.4318 22.8885 17.5665 23.1923 17.5822 23.5135C17.598 23.8347 17.4938 24.1502 17.2898 24.3988C16.7521 24.9352 16.3856 25.619 16.2368 26.3638C16.0879 27.1085 16.1634 27.8807 16.4536 28.5825C16.7438 29.2843 17.2357 29.8843 17.8671 30.3064C18.4984 30.7286 19.2408 30.9539 20.0003 30.9539C20.7598 30.9539 21.5022 30.7286 22.1335 30.3064C22.7649 29.8843 23.2568 29.2843 23.547 28.5825C23.8372 27.8807 23.9127 27.1085 23.7638 26.3638C23.615 25.619 23.2485 24.9352 22.7109 24.3988C22.5069 24.1502 22.4026 23.8347 22.4184 23.5135C22.4342 23.1923 22.5688 22.8885 22.7962 22.6611C23.0236 22.4337 23.3274 22.2991 23.6486 22.2833C23.9698 22.2675 24.2853 22.3718 24.5339 22.5758C25.1389 23.1824 25.6146 23.9054 25.932 24.7012C26.2495 25.4969 26.4022 26.3488 26.3809 27.2053V27.2053Z" fill="#7C8388"/>
<path d="M24.5336 22.5755C25.423 23.4725 26.0274 24.6125 26.2706 25.852C26.5138 27.0916 26.385 28.3754 25.9004 29.542C25.4159 30.7086 24.5971 31.7058 23.5473 32.4082C22.4974 33.1106 21.2632 33.4869 20 33.4897V30.995C20.7586 31.0075 21.5034 30.792 22.1381 30.3764C22.7728 29.9609 23.2682 29.3644 23.5602 28.6642C23.8522 27.964 23.9273 27.1922 23.7758 26.4488C23.6243 25.7055 23.2532 25.0247 22.7106 24.4945C22.5065 24.2459 22.4023 23.9304 22.4181 23.6092C22.4338 23.288 22.5685 22.9842 22.7959 22.7568C23.0233 22.5295 23.3271 22.3948 23.6483 22.379C23.9695 22.3632 24.285 22.4675 24.5336 22.6715V22.5755Z" fill="#575F64"/>
<path d="M39.1659 12.981C39.1596 13.6534 38.8897 14.2965 38.4142 14.772C37.9388 15.2475 37.2956 15.5174 36.6232 15.5236H3.37697C3.02069 15.5582 2.66112 15.5178 2.32135 15.4052C1.98159 15.2925 1.66915 15.11 1.4041 14.8695C1.13905 14.6289 0.927248 14.3355 0.782311 14.0082C0.637373 13.6809 0.5625 13.3269 0.5625 12.969C0.5625 12.611 0.637373 12.257 0.782311 11.9297C0.927248 11.6024 1.13905 11.3091 1.4041 11.0685C1.66915 10.8279 1.98159 10.6454 2.32135 10.5328C2.66112 10.4201 3.02069 10.3798 3.37697 10.4143H36.6232C37.2998 10.4207 37.9465 10.6939 38.4226 11.1745C38.8988 11.6552 39.1659 12.3044 39.1659 12.981V12.981Z" fill="#7C8388"/>
<path d="M39.1658 12.9808C39.1595 13.6532 38.8896 14.2963 38.4141 14.7718C37.9387 15.2472 37.2955 15.5171 36.6231 15.5234H20V10.582H36.6231C37.2716 10.5867 37.8942 10.8367 38.3659 11.2816C38.8376 11.7266 39.1234 12.3337 39.1658 12.9808V12.9808Z" fill="#575F64"/>
</svg>
