<svg width="44" height="42" viewBox="0 0 44 42" fill="none" xmlns="http://www.w3.org/2000/svg">
<path d="M21.9756 8.14294L29.0278 0.946777L29.6515 1.57045L22.5753 8.76661L21.9756 8.14294Z" fill="#828A9E"/>
<path d="M29.1243 2.76969C29.7205 2.76969 30.2038 2.28641 30.2038 1.69026C30.2038 1.09411 29.7205 0.61084 29.1243 0.61084C28.5282 0.61084 28.0449 1.09411 28.0449 1.69026C28.0449 2.28641 28.5282 2.76969 29.1243 2.76969Z" fill="#F40000"/>
<path d="M16.5791 3.94495L17.2028 3.32129L24.255 10.3975L23.6313 10.9972L16.5791 3.94495Z" fill="#828A9E"/>
<path d="M22.0003 13.5402C24.1729 13.5402 25.9342 11.7789 25.9342 9.60627C25.9342 7.43363 24.1729 5.67236 22.0003 5.67236C19.8277 5.67236 18.0664 7.43363 18.0664 9.60627C18.0664 11.7789 19.8277 13.5402 22.0003 13.5402Z" fill="#F40000"/>
<path d="M2.66639 9.58203H41.3098C42.0096 9.58203 42.6807 9.86003 43.1755 10.3549C43.6704 10.8497 43.9484 11.5208 43.9484 12.2206V38.7505C43.9484 39.0959 43.88 39.4378 43.7471 39.7566C43.6142 40.0754 43.4194 40.3647 43.1741 40.6078C42.9288 40.8509 42.6377 41.043 42.3177 41.173C41.9977 41.303 41.6551 41.3682 41.3098 41.3651H2.66639C1.97295 41.3651 1.30792 41.0896 0.817585 40.5993C0.327251 40.1089 0.0517839 39.4439 0.0517839 38.7505V12.3645C0.032304 12.0081 0.0853421 11.6515 0.207686 11.3162C0.33003 10.9808 0.519137 10.6738 0.763563 10.4137C1.00799 10.1536 1.30265 9.94575 1.62972 9.8028C1.95679 9.65985 2.30946 9.58474 2.66639 9.58203Z" fill="#575B6D"/>
<path d="M3.55354 12.2446H32.65C32.8812 12.2509 33.1009 12.3471 33.2622 12.5129C33.4234 12.6787 33.5136 12.9009 33.5136 13.1322V37.863C33.5136 38.0943 33.4234 38.3164 33.2622 38.4822C33.1009 38.648 32.8812 38.7442 32.65 38.7505H3.55354C3.32007 38.7444 3.09783 38.649 2.93269 38.4838C2.76754 38.3187 2.67208 38.0964 2.66602 37.863V13.1322C2.67208 12.8987 2.76754 12.6764 2.93269 12.5113C3.09783 12.3462 3.32007 12.2507 3.55354 12.2446Z" fill="#D8D8D8"/>
<path d="M40.6624 17.33C40.4293 17.5615 40.1528 17.7448 39.8489 17.8695C39.5449 17.9942 39.2194 18.0578 38.8908 18.0567C38.5623 18.0556 38.2372 17.9898 37.9341 17.863C37.6309 17.7363 37.3558 17.5511 37.1242 17.318C36.8927 17.0849 36.7094 16.8084 36.5847 16.5045C36.46 16.2005 36.3964 15.875 36.3975 15.5464C36.3986 15.2179 36.4644 14.8928 36.5912 14.5897C36.7179 14.2866 36.9031 14.0114 37.1362 13.7799C37.553 13.3312 38.1255 13.059 38.7365 13.0188C39.3474 12.9787 39.9507 13.1737 40.4225 13.564C40.5973 13.6911 40.7511 13.8449 40.8782 14.0197C41.2756 14.493 41.475 15.1015 41.4348 15.7182C41.3945 16.3349 41.1178 16.9123 40.6624 17.33Z" fill="#828A9E"/>
<path d="M40.8783 14.0197L38.4796 16.4184C38.4223 16.482 38.3421 16.5203 38.2567 16.5248C38.1712 16.5293 38.0874 16.4996 38.0238 16.4424C37.9602 16.3851 37.9219 16.3049 37.9174 16.2195C37.9129 16.134 37.9426 16.0502 37.9998 15.9866L40.3986 13.5879C40.5801 13.7058 40.742 13.8515 40.8783 14.0197Z" fill="#9A9EAF"/>
<path d="M37.1358 24.7659C37.3604 25.0094 37.633 25.2037 37.9364 25.3366C38.2399 25.4695 38.5676 25.5381 38.8988 25.5381C39.2301 25.5381 39.5578 25.4695 39.8612 25.3366C40.1646 25.2037 40.4373 25.0094 40.6619 24.7659C41.1613 24.3301 41.4671 23.7138 41.5121 23.0525C41.5571 22.3912 41.3375 21.7392 40.9017 21.2398C40.466 20.7404 39.8496 20.4345 39.1884 20.3896C38.5271 20.3446 37.875 20.5641 37.3756 20.9999C37.2154 21.1734 37.0783 21.3669 36.9678 21.5756C36.5705 22.0489 36.3711 22.6573 36.4113 23.274C36.4516 23.8907 36.7282 24.4681 37.1837 24.8858L37.1358 24.7659Z" fill="#828A9E"/>
<path d="M36.9678 21.5759L39.3665 23.9746C39.4285 24.0319 39.5099 24.0637 39.5944 24.0637C39.6788 24.0637 39.7602 24.0319 39.8223 23.9746C39.8535 23.9454 39.8784 23.9101 39.8954 23.8709C39.9124 23.8317 39.9212 23.7895 39.9212 23.7467C39.9212 23.704 39.9124 23.6617 39.8954 23.6225C39.8784 23.5833 39.8535 23.548 39.8223 23.5188L37.4235 21.1201C37.2542 21.2535 37.1012 21.4065 36.9678 21.5759Z" fill="#9A9EAF"/>
<path d="M35.0254 27.6924H42.7733V28.2681H35.0254V27.6924Z" fill="#414451"/>
<path d="M35.0254 29.7793H42.7733V30.355H35.0254V29.7793Z" fill="#414451"/>
<path d="M35.0254 31.8662H42.7733V32.4419H35.0254V31.8662Z" fill="#414451"/>
<path d="M35.0254 33.9531H42.7733V34.5288H35.0254V33.9531Z" fill="#414451"/>
<path d="M35.0254 35.9678H42.7733V36.5435H35.0254V35.9678Z" fill="#414451"/>
<path d="M35.0254 38.127H42.7733V38.7026H35.0254V38.127Z" fill="#414451"/>
<path d="M16.9622 4.64078C17.5584 4.64078 18.0417 4.15751 18.0417 3.56136C18.0417 2.96521 17.5584 2.48193 16.9622 2.48193C16.3661 2.48193 15.8828 2.96521 15.8828 3.56136C15.8828 4.15751 16.3661 4.64078 16.9622 4.64078Z" fill="#F40000"/>
<g opacity="0.5">
<path d="M16.1948 12.2446L7.8473 38.7505H7.22363L15.5712 12.3646L16.1948 12.2446Z" fill="white"/>
<path d="M21.7837 12.2446L13.4362 38.7505H9.57422L17.9218 12.3646L21.7837 12.2446Z" fill="white"/>
</g>
</svg>
