<svg width="40" height="40" viewBox="0 0 40 40" fill="none" xmlns="http://www.w3.org/2000/svg">
<g clip-path="url(#clip0_970_7519)">
<path d="M1.0661 30.9169C1.34884 30.9169 1.62001 30.8045 1.81994 30.6046C2.01988 30.4047 2.1322 30.1335 2.1322 29.8508V29.6695H11.1301C11.9616 30.5551 12.9657 31.2609 14.0805 31.7434C15.1953 32.2258 16.3972 32.4748 17.6119 32.4748C18.8267 32.4748 20.0285 32.2258 21.1434 31.7434C22.2582 31.2609 23.2623 30.5551 24.0938 29.6695H26.0448C26.2128 29.6653 26.38 29.6942 26.5368 29.7546C26.6937 29.815 26.8371 29.9057 26.9589 30.0215C27.0806 30.1373 27.1784 30.276 27.2466 30.4297C27.3147 30.5833 27.3519 30.7488 27.3561 30.9169V34.1152H27.1855C26.9028 34.1152 26.6316 34.2275 26.4317 34.4274C26.2317 34.6273 26.1194 34.8985 26.1194 35.1813C26.1194 35.464 26.2317 35.7352 26.4317 35.9351C26.6316 36.135 26.9028 36.2474 27.1855 36.2474H38.9126C39.1953 36.2474 39.4665 36.135 39.6664 35.9351C39.8664 35.7352 39.9787 35.464 39.9787 35.1813C39.9787 34.8985 39.8664 34.6273 39.6664 34.4274C39.4665 34.2275 39.1953 34.1152 38.9126 34.1152H38.7207V30.9169C38.7094 27.5558 37.367 24.336 34.9874 21.9623C32.6077 19.5887 29.3846 18.2544 26.0235 18.2516H24.8827C24.4743 17.6681 23.9944 17.138 23.4542 16.6738V13.8593C23.4542 13.5765 23.3418 13.3054 23.1419 13.1055C22.942 12.9055 22.6708 12.7932 22.3881 12.7932H21.0661V9.2964H28.6034C28.8862 9.2964 29.1573 9.18408 29.3573 8.98414C29.5572 8.78421 29.6695 8.51305 29.6695 8.2303C29.6695 7.94755 29.5572 7.67639 29.3573 7.47645C29.1573 7.27652 28.8862 7.1642 28.6034 7.1642H21.0661V6.32198C21.0661 5.6236 20.7887 4.95382 20.2948 4.45999C19.801 3.96615 19.1312 3.68872 18.4328 3.68872H17.0576C16.3592 3.68872 15.6894 3.96615 15.1956 4.45999C14.7017 4.95382 14.4243 5.6236 14.4243 6.32198V7.12156H6.70576C6.42301 7.12156 6.15184 7.23388 5.95191 7.43381C5.75198 7.63374 5.63966 7.90491 5.63966 8.18765C5.63966 8.4704 5.75198 8.74157 5.95191 8.9415C6.15184 9.14143 6.42301 9.25375 6.70576 9.25375H14.371V12.7932H12.9744C12.6917 12.7932 12.4205 12.9055 12.2206 13.1055C12.0206 13.3054 11.9083 13.5765 11.9083 13.8593V16.6312C11.3563 17.096 10.8623 17.6258 10.4371 18.209H2.1322V18.1237C2.1322 17.8409 2.01988 17.5698 1.81994 17.3698C1.62001 17.1699 1.34884 17.0576 1.0661 17.0576C0.783351 17.0576 0.512185 17.1699 0.312253 17.3698C0.112321 17.5698 0 17.8409 0 18.1237L0 29.8508C0 30.1335 0.112321 30.4047 0.312253 30.6046C0.512185 30.8045 0.783351 30.9169 1.0661 30.9169ZM17.0576 5.8529H18.4861C18.6087 5.85569 18.7253 5.90633 18.811 5.994C18.8966 6.08167 18.9446 6.1994 18.9446 6.32198V12.7932H16.5991V6.32198C16.5991 6.1994 16.6471 6.08167 16.7327 5.994C16.8184 5.90633 16.935 5.85569 17.0576 5.8529ZM11.0021 20.4265C11.1868 20.4234 11.3679 20.3752 11.5296 20.286C11.6913 20.1968 11.8286 20.0693 11.9296 19.9147C12.3779 19.2171 12.9529 18.6097 13.6247 18.1237C13.762 18.0234 13.8733 17.8917 13.9494 17.7396C14.0254 17.5876 14.064 17.4195 14.0618 17.2495V14.9894H21.2473V17.1962C21.2452 17.3662 21.2838 17.5342 21.3598 17.6863C21.4358 17.8384 21.5471 17.9701 21.6844 18.0704C22.3618 18.5748 22.9401 19.2001 23.3902 19.9147C23.4872 20.0699 23.6224 20.1975 23.783 20.2853C23.9436 20.373 24.1241 20.418 24.307 20.4158H26.0235C28.8097 20.4214 31.4808 21.5285 33.454 23.4957C35.4272 25.463 36.5424 28.1306 36.5565 30.9169V34.1152H29.5203V30.9169C29.5203 30.0064 29.1586 29.1333 28.5148 28.4895C27.871 27.8457 26.9979 27.484 26.0874 27.484H23.6567C23.4983 27.4822 23.3415 27.5157 23.1976 27.5821C23.0538 27.6485 22.9265 27.7461 22.8252 27.8678C22.1743 28.5931 21.3779 29.1732 20.488 29.5703C19.598 29.9674 18.6344 30.1726 17.6599 30.1726C16.6854 30.1726 15.7218 29.9674 14.8318 29.5703C13.9419 29.1732 13.1456 28.5931 12.4947 27.8678C12.3933 27.7461 12.266 27.6485 12.1222 27.5821C11.9784 27.5157 11.8215 27.4822 11.6631 27.484H2.1322V20.4265H11.0021Z" fill="#F90000"/>
</g>
<defs>
<clipPath id="clip0_970_7519">
<rect width="40" height="40" fill="white"/>
</clipPath>
</defs>
</svg>
