<svg width="40" height="40" viewBox="0 0 40 40" fill="none" xmlns="http://www.w3.org/2000/svg">
<path d="M3.10498 17.0806C3.21082 16.8418 3.33431 16.6118 3.43133 16.3641C4.71027 13.1443 5.99803 9.92449 7.27698 6.70468C7.47102 6.21817 7.55922 6.15625 8.08844 6.15625C16.0355 6.15625 23.9738 6.15625 31.9209 6.15625C32.4412 6.15625 32.5383 6.21817 32.7147 6.67814C34.073 10.0837 35.4313 13.4893 36.7896 16.8949C36.8249 16.9745 36.8602 17.0541 36.8867 17.1425C36.9661 17.4521 36.772 17.7529 36.4545 17.7971C36.3575 17.8148 36.2604 17.806 36.1546 17.806C25.3938 17.806 14.6331 17.806 3.87235 17.8148C3.55482 17.8148 3.29021 17.744 3.10498 17.4787C3.10498 17.346 3.10498 17.2133 3.10498 17.0806ZM4.44566 16.7268C14.8536 16.7268 25.2086 16.7268 35.5813 16.7268C35.5548 16.656 35.546 16.6206 35.5283 16.5764C34.3111 13.5335 33.094 10.4818 31.8856 7.43002C31.8062 7.22657 31.6827 7.20888 31.5063 7.20888C23.8415 7.20888 16.1678 7.20888 8.503 7.20888C8.28249 7.20888 8.18546 7.27965 8.10608 7.4831C7.2858 9.58836 6.44787 11.6848 5.60994 13.7812C5.22185 14.7542 4.84258 15.7272 4.44566 16.7268Z" fill="#F90000"/>
<path d="M3.10498 19.7258C3.29021 19.4516 3.54599 19.3896 3.87235 19.3896C14.6331 19.3985 25.3938 19.3985 36.1546 19.3985C36.2516 19.3985 36.3575 19.3896 36.4545 19.4073C36.7367 19.4604 36.9131 19.6373 36.9131 19.9292C36.9131 20.2211 36.7367 20.3981 36.4545 20.4511C36.3575 20.4688 36.2604 20.46 36.1546 20.46C25.3938 20.46 14.6331 20.46 3.87235 20.4688C3.55482 20.4688 3.29021 20.3981 3.10498 20.1327C3.10498 19.9912 3.10498 19.8585 3.10498 19.7258Z" fill="#F90000"/>
<path d="M3.10498 22.3791C3.29021 22.1049 3.54599 22.043 3.87235 22.043C14.6331 22.0518 25.3938 22.0518 36.1546 22.0518C36.2516 22.0518 36.3575 22.043 36.4545 22.0607C36.7367 22.1137 36.9131 22.2906 36.9131 22.5826C36.9131 22.8745 36.7367 23.0514 36.4545 23.1044C36.3575 23.1221 36.2604 23.1133 36.1546 23.1133C25.3938 23.1133 14.6331 23.1133 3.87235 23.1221C3.55482 23.1221 3.29021 23.0514 3.10498 22.786C3.10498 22.6445 3.10498 22.5118 3.10498 22.3791Z" fill="#F90000"/>
<path d="M3.10498 25.0236C3.29021 24.7494 3.54599 24.6875 3.87235 24.6875C14.6331 24.6963 25.3938 24.6963 36.1546 24.6963C36.2516 24.6963 36.3575 24.6875 36.4545 24.7052C36.7367 24.7583 36.9131 24.9352 36.9131 25.2271C36.9131 25.519 36.7367 25.6959 36.4545 25.749C36.3575 25.7667 36.2604 25.7578 36.1546 25.7578C25.3938 25.7578 14.6331 25.7578 3.87235 25.7667C3.55482 25.7667 3.29021 25.6959 3.10498 25.4305C3.10498 25.289 3.10498 25.1563 3.10498 25.0236Z" fill="#F90000"/>
<path d="M3.10498 27.6779C3.29021 27.4037 3.54599 27.3418 3.87235 27.3418C14.6331 27.3506 25.3938 27.3506 36.1546 27.3506C36.2516 27.3506 36.3575 27.3418 36.4545 27.3595C36.7367 27.4126 36.9131 27.5895 36.9131 27.8814C36.9131 28.1733 36.7367 28.3502 36.4545 28.4033C36.3575 28.421 36.2604 28.4121 36.1546 28.4121C25.3938 28.4121 14.6331 28.4121 3.87235 28.421C3.55482 28.421 3.29021 28.3502 3.10498 28.0848C3.10498 27.9433 3.10498 27.8106 3.10498 27.6779Z" fill="#F90000"/>
<path d="M3.10498 30.3225C3.29021 30.0482 3.54599 29.9863 3.87235 29.9863C14.6331 29.9952 25.3938 29.9952 36.1546 29.9952C36.2516 29.9952 36.3575 29.9863 36.4545 30.004C36.7367 30.0571 36.9131 30.234 36.9131 30.5259C36.9131 30.8178 36.7367 30.9947 36.4545 31.0478C36.3575 31.0655 36.2604 31.0567 36.1546 31.0567C25.3938 31.0567 14.6331 31.0567 3.87235 31.0655C3.55482 31.0655 3.29021 30.9947 3.10498 30.7294C3.10498 30.5878 3.10498 30.4551 3.10498 30.3225Z" fill="#F90000"/>
<path d="M3.10498 32.9758C3.29021 32.7016 3.54599 32.6396 3.87235 32.6396C14.6331 32.6485 25.3938 32.6485 36.1546 32.6485C36.2516 32.6485 36.3575 32.6396 36.4545 32.6573C36.7367 32.7104 36.9131 32.8873 36.9131 33.1792C36.9131 33.4711 36.7367 33.6481 36.4545 33.7011C36.3575 33.7188 36.2604 33.71 36.1546 33.71C25.3938 33.71 14.6331 33.71 3.87235 33.7188C3.55482 33.7188 3.29021 33.6481 3.10498 33.3827C3.10498 33.2323 3.10498 33.1085 3.10498 32.9758Z" fill="#F90000"/>
<path d="M16.0443 8.80079C15.4357 8.80079 14.8182 8.80079 14.2096 8.80079C13.3629 8.80079 12.5162 8.80964 11.6694 8.80079C11.4577 8.80079 11.3166 8.84502 11.1755 9.03962C10.7962 9.58805 10.267 9.95957 9.61428 10.1276C9.41141 10.1807 9.27911 10.2603 9.20854 10.4815C9.09388 10.8441 8.82045 10.9768 8.52056 10.8707C8.22067 10.7645 8.10601 10.4903 8.21185 10.1365C8.26477 9.96842 8.29123 9.77381 8.39708 9.64113C8.52938 9.47306 8.70579 9.26077 8.89101 9.22538C9.64956 9.08385 10.2141 8.73003 10.5669 8.03122C10.6374 7.88969 10.8756 7.82777 11.0432 7.74816C11.1049 7.72162 11.1931 7.73931 11.2725 7.73931C17.1027 7.73931 22.9329 7.73931 28.7631 7.73047C29.1689 7.73047 29.407 7.85431 29.601 8.22582C29.8921 8.79195 30.4037 9.0927 31.0211 9.19C31.3827 9.24307 31.5856 9.41999 31.7003 9.76497C31.8414 10.2249 32.0178 10.6761 32.1854 11.136C32.3265 11.5518 32.2207 11.8437 31.8943 11.9498C31.6033 12.0471 31.3475 11.8879 31.1975 11.5076C31.1622 11.4279 31.127 11.3483 31.1005 11.2599C30.9153 10.6318 30.6859 10.1188 29.9274 9.9065C29.4952 9.78266 29.1689 9.30499 28.7896 8.9954C28.6926 8.91578 28.5867 8.80964 28.4897 8.80964C26.9814 8.80079 25.4732 8.80079 23.8767 8.80079C25.0586 9.58805 25.7907 10.6053 25.7907 11.9587C25.7995 13.3209 25.0762 14.3559 23.9031 15.1343C26.1347 15.1343 28.2956 15.1343 30.5007 15.1343C30.6418 14.3647 31.0652 13.8163 31.9031 13.6217C31.859 13.489 31.8238 13.3828 31.7885 13.2678C31.6826 12.9229 31.8061 12.6398 32.106 12.5337C32.3794 12.4364 32.6617 12.5779 32.7852 12.8963C32.9263 13.259 33.0498 13.6217 33.1644 13.9843C33.2967 14.4001 33.0233 14.7362 32.5911 14.7185C32.4941 14.7097 32.3971 14.692 32.2912 14.692C31.8238 14.6655 31.568 14.9308 31.6032 15.3908C31.6562 16.0277 31.4886 16.2134 30.8623 16.2134C23.6209 16.2134 16.3883 16.2134 9.1468 16.2134C8.47646 16.2134 8.32651 16.0365 8.42354 15.3819C8.48528 14.9574 8.23831 14.6831 7.80612 14.692C7.65617 14.692 7.49741 14.7274 7.34746 14.7185C6.97701 14.7097 6.73004 14.4001 6.84471 14.0463C7.09167 13.2944 7.3651 12.5513 7.63853 11.8083C7.7532 11.4899 8.05309 11.3749 8.32651 11.481C8.59112 11.5872 8.72343 11.8614 8.61758 12.171C8.45882 12.6486 8.28241 13.1263 8.10601 13.6217C8.90865 13.8163 9.36731 14.3293 9.49961 15.1431C11.687 15.1431 13.8657 15.1431 16.0619 15.1431C13.2306 13.1086 14.0068 10.1542 16.0443 8.80079ZM20.0928 15.1697C20.3133 15.152 20.6396 15.1431 20.9483 15.0989C22.1126 14.9308 23.1887 14.5505 24.0266 13.6747C25.0057 12.6486 25.0057 11.3395 24.0266 10.3046C23.8943 10.163 23.7444 10.0303 23.5856 9.9065C21.8304 8.5708 18.8138 8.43812 16.8646 9.60574C16.7058 9.70305 16.547 9.80919 16.3971 9.91534C14.8623 11.083 14.8535 12.8609 16.3706 14.0374C17.4379 14.8601 18.6815 15.1343 20.0928 15.1697Z" fill="#F90000"/>
<path d="M20.8957 12.471C20.8957 12.6568 20.8516 12.816 20.7546 12.9664C20.6576 13.1167 20.5253 13.2317 20.3401 13.3113C20.1548 13.391 19.9431 13.4352 19.6962 13.4352C19.3963 13.4352 19.1493 13.3821 18.9553 13.2671C18.8141 13.1875 18.7083 13.0725 18.6201 12.9398C18.5319 12.8071 18.4878 12.6745 18.4878 12.5418C18.4878 12.471 18.5143 12.4002 18.5672 12.3472C18.6201 12.2941 18.6818 12.2676 18.7612 12.2676C18.823 12.2676 18.8847 12.2852 18.9288 12.3295C18.9729 12.3737 19.0082 12.4356 19.0435 12.5152C19.0788 12.6125 19.1229 12.6921 19.167 12.7541C19.2111 12.816 19.2728 12.8691 19.3522 12.9133C19.4316 12.9575 19.5374 12.9752 19.6697 12.9752C19.8549 12.9752 19.9961 12.931 20.1107 12.8514C20.2254 12.7718 20.2783 12.6568 20.2783 12.5329C20.2783 12.4356 20.2518 12.3472 20.1901 12.2852C20.1284 12.2233 20.049 12.1703 19.952 12.1437C19.8549 12.1172 19.7226 12.073 19.5639 12.0376C19.3434 11.9845 19.167 11.9226 19.017 11.8607C18.8671 11.7987 18.7524 11.7014 18.6642 11.5776C18.576 11.4538 18.5319 11.3122 18.5319 11.1353C18.5319 10.9672 18.576 10.8169 18.6642 10.693C18.7524 10.5692 18.8847 10.463 19.0611 10.3923C19.2375 10.3215 19.4316 10.2861 19.6697 10.2861C19.8549 10.2861 20.0137 10.3127 20.1548 10.3569C20.296 10.4011 20.4018 10.463 20.49 10.5427C20.5782 10.6223 20.6488 10.7019 20.684 10.7815C20.7193 10.8611 20.7458 10.9496 20.7458 11.0292C20.7458 11.0999 20.7193 11.1707 20.6664 11.2238C20.6135 11.2768 20.5517 11.3122 20.4724 11.3122C20.4018 11.3122 20.3489 11.2945 20.3136 11.2592C20.2783 11.2238 20.2342 11.1619 20.1989 11.0822C20.146 10.9672 20.0754 10.8788 20.0049 10.8169C19.9343 10.755 19.802 10.7196 19.6344 10.7196C19.4757 10.7196 19.3522 10.755 19.2552 10.8257C19.1581 10.8965 19.1052 10.9761 19.1052 11.0734C19.1052 11.1353 19.1229 11.1884 19.1581 11.2326C19.1934 11.2768 19.2375 11.3122 19.2904 11.3476C19.3434 11.383 19.4051 11.4007 19.4668 11.4184C19.5286 11.4361 19.6256 11.4626 19.7579 11.498C19.9255 11.5422 20.0843 11.5864 20.2254 11.6307C20.3665 11.6749 20.4812 11.7368 20.5782 11.8076C20.6752 11.8783 20.7546 11.9668 20.8075 12.073C20.8604 12.1791 20.8957 12.3206 20.8957 12.471Z" fill="#F90000"/>
<path d="M19.6872 13.5242C19.3697 13.5242 19.1139 13.4623 18.9022 13.3384C18.7523 13.25 18.6288 13.1262 18.5318 12.9846C18.4347 12.8342 18.3906 12.6839 18.3906 12.5423C18.3906 12.445 18.4259 12.3566 18.4965 12.2858C18.567 12.215 18.6552 12.1797 18.7611 12.1797C18.8493 12.1797 18.9198 12.2062 18.9816 12.2681C19.0345 12.3212 19.0786 12.392 19.1227 12.4893C19.158 12.5777 19.1933 12.6573 19.2374 12.7104C19.2727 12.7635 19.3256 12.8077 19.3961 12.8431C19.4667 12.8785 19.5549 12.8962 19.6784 12.8962C19.8372 12.8962 19.9695 12.8608 20.0665 12.79C20.1547 12.7193 20.1988 12.6396 20.1988 12.5423C20.1988 12.4627 20.1811 12.4008 20.1282 12.3566C20.0753 12.3035 20.0047 12.2593 19.9254 12.2327C19.8283 12.1974 19.7048 12.162 19.5461 12.1266C19.3256 12.0735 19.1315 12.0116 18.9816 11.9408C18.8228 11.8701 18.6905 11.7639 18.6023 11.6312C18.5053 11.4986 18.4524 11.3305 18.4524 11.1359C18.4524 10.9501 18.5053 10.7821 18.6023 10.6405C18.6993 10.499 18.8493 10.384 19.0345 10.3132C19.2197 10.2425 19.4314 10.1982 19.6784 10.1982C19.8724 10.1982 20.0488 10.2248 20.19 10.269C20.3399 10.3221 20.4634 10.384 20.5604 10.4725C20.6574 10.5609 20.728 10.6494 20.7809 10.7378C20.825 10.8351 20.8515 10.9324 20.8515 11.0209C20.8515 11.1182 20.8162 11.2066 20.7545 11.2774C20.6839 11.357 20.5957 11.3924 20.4987 11.3924C20.4016 11.3924 20.3311 11.3659 20.2782 11.3128C20.2341 11.2686 20.19 11.2066 20.1459 11.1182C20.0929 11.012 20.04 10.9324 19.9695 10.8794C19.9077 10.8263 19.8019 10.7997 19.6519 10.7997C19.5108 10.7997 19.405 10.8263 19.3168 10.8882C19.2197 10.959 19.2109 11.0209 19.2109 11.0651C19.2109 11.1093 19.2197 11.1447 19.2462 11.1713C19.2727 11.2066 19.3079 11.2332 19.352 11.2597C19.405 11.2863 19.4579 11.3128 19.5108 11.3305C19.5725 11.3482 19.6696 11.3747 19.8019 11.4101C19.9695 11.4543 20.1282 11.4986 20.2693 11.5428C20.4193 11.5959 20.5428 11.6578 20.6486 11.7285C20.7545 11.8081 20.8427 11.9055 20.9044 12.0204C20.9661 12.1354 20.9926 12.2858 20.9926 12.4539C20.9926 12.6573 20.9397 12.8342 20.8338 12.9935C20.728 13.1527 20.5781 13.2765 20.384 13.3738C20.1811 13.48 19.9518 13.5242 19.6872 13.5242ZM18.7611 12.3654C18.7082 12.3654 18.6641 12.3831 18.6288 12.4185C18.5935 12.4539 18.5759 12.4981 18.5759 12.5512C18.5759 12.6662 18.6111 12.7812 18.6905 12.905C18.7699 13.0288 18.8757 13.1262 18.9992 13.2058C19.1756 13.3119 19.4138 13.365 19.696 13.365C19.9342 13.365 20.137 13.3296 20.3046 13.25C20.4722 13.1704 20.5957 13.0731 20.6839 12.9404C20.7721 12.8077 20.8074 12.6573 20.8074 12.4893C20.8074 12.3477 20.7809 12.2327 20.7368 12.1443C20.6927 12.0558 20.6222 11.9762 20.534 11.9143C20.4458 11.8524 20.3311 11.7905 20.1988 11.7462C20.0665 11.702 19.9077 11.6578 19.7401 11.6135C19.599 11.5782 19.502 11.5516 19.4402 11.5339C19.3785 11.5162 19.3079 11.4897 19.2462 11.4543C19.1756 11.4189 19.1227 11.3659 19.0786 11.3128C19.0345 11.2509 19.008 11.1801 19.008 11.1005C19.008 10.9767 19.0698 10.8617 19.1933 10.7732C19.3079 10.6936 19.4491 10.6494 19.6255 10.6494C19.8195 10.6494 19.9606 10.6848 20.0577 10.7644C20.1459 10.8351 20.2164 10.9324 20.2782 11.0651C20.3223 11.1536 20.3575 11.189 20.3752 11.2155C20.3928 11.2332 20.4281 11.242 20.4722 11.242C20.5251 11.242 20.5604 11.2243 20.5957 11.1801C20.631 11.1359 20.6486 11.0917 20.6486 11.0386C20.6486 10.9767 20.631 10.9059 20.5957 10.8351C20.5604 10.7644 20.4987 10.6936 20.4193 10.6228C20.3399 10.5521 20.2341 10.499 20.1106 10.4548C19.9871 10.4105 19.8283 10.3928 19.6519 10.3928C19.4314 10.3928 19.2374 10.4282 19.0786 10.4901C18.9198 10.5521 18.8052 10.6405 18.7258 10.7555C18.6464 10.8705 18.6023 11.0032 18.6023 11.1536C18.6023 11.3128 18.6376 11.4366 18.717 11.5428C18.7964 11.6489 18.9022 11.7285 19.0345 11.7905C19.1756 11.8524 19.352 11.9143 19.5637 11.9674C19.7313 12.0028 19.8636 12.0381 19.9606 12.0735C20.0665 12.1089 20.1635 12.1708 20.2341 12.2416C20.3134 12.3212 20.3487 12.4273 20.3487 12.5512C20.3487 12.7104 20.2782 12.8342 20.1459 12.9404C20.0136 13.0377 19.846 13.0819 19.6519 13.0819C19.502 13.0819 19.3873 13.0554 19.2903 13.0112C19.1933 12.9581 19.1227 12.8962 19.0698 12.8254C19.0257 12.7546 18.9728 12.6662 18.9375 12.5689C18.911 12.4981 18.8757 12.445 18.8405 12.4185C18.8316 12.3743 18.8052 12.3654 18.7611 12.3654Z" fill="#F90000"/>
<path d="M22.1746 10.7196L21.5925 13.1079C21.5748 13.1875 21.5572 13.2494 21.5396 13.2937C21.5219 13.3379 21.5043 13.3733 21.469 13.3998C21.4337 13.4263 21.3984 13.4352 21.3367 13.4352C21.1956 13.4352 21.125 13.3733 21.125 13.2494C21.125 13.214 21.1426 13.1344 21.1691 13.0106L21.7424 10.6223C21.7689 10.4984 21.8042 10.41 21.8306 10.3569C21.8571 10.3038 21.91 10.2861 21.9894 10.2861C22.06 10.2861 22.1129 10.3038 22.1482 10.3392C22.1834 10.3746 22.2011 10.4188 22.2011 10.4719C22.2187 10.525 22.2011 10.6046 22.1746 10.7196Z" fill="#F90000"/>
<path d="M21.3541 13.5241C21.16 13.5241 21.0542 13.4268 21.0542 13.2499C21.0542 13.2234 21.063 13.1703 21.0983 12.9934L21.6716 10.6051C21.7069 10.4724 21.7334 10.3751 21.7686 10.322C21.7951 10.269 21.8657 10.207 22.0068 10.207C22.095 10.207 22.1744 10.2336 22.2273 10.2778C22.2802 10.3309 22.3155 10.4016 22.3155 10.4812C22.3155 10.5343 22.2979 10.6139 22.2714 10.7378L21.6893 13.1261C21.6716 13.2057 21.654 13.2676 21.6363 13.3207C21.6187 13.3826 21.5834 13.4357 21.5393 13.4711C21.4952 13.5065 21.4247 13.5241 21.3541 13.5241ZM22.0068 10.3839C21.9715 10.3839 21.9362 10.3928 21.9186 10.4105C21.9009 10.437 21.8745 10.4989 21.8392 10.6493L21.2659 13.0376C21.2306 13.2057 21.2306 13.2499 21.2306 13.2588C21.2306 13.303 21.2306 13.3561 21.3541 13.3561C21.3894 13.3561 21.4158 13.3472 21.4247 13.3384C21.4423 13.3207 21.4511 13.303 21.4599 13.2676C21.4776 13.2234 21.4864 13.1615 21.5129 13.0907L22.095 10.7024C22.1303 10.5609 22.1391 10.5078 22.1391 10.4901C22.1391 10.4459 22.1215 10.4282 22.1126 10.4193C22.0862 10.3928 22.0509 10.3839 22.0068 10.3839Z" fill="#F90000"/>
</svg>
