<svg width="24" height="24" viewBox="0 0 24 24" fill="none" xmlns="http://www.w3.org/2000/svg">
<g clip-path="url(#clip0_857_2838)">
<path d="M15.7612 3.74219H8.27077C8.09434 3.74219 7.92513 3.81228 7.80038 3.93703C7.67562 4.06179 7.60553 4.231 7.60553 4.40743C7.60553 4.58387 7.67562 4.75307 7.80038 4.87783C7.92513 5.00259 8.09434 5.07268 8.27077 5.07268H15.7612C15.9376 5.07268 16.1068 5.00259 16.2316 4.87783C16.3563 4.75307 16.4264 4.58387 16.4264 4.40743C16.4264 4.231 16.3563 4.06179 16.2316 3.93703C16.1068 3.81228 15.9376 3.74219 15.7612 3.74219V3.74219Z" fill="#FF0000"/>
<path d="M15.7612 7.38818H8.27077C8.09434 7.38818 7.92513 7.45827 7.80038 7.58303C7.67562 7.70779 7.60553 7.87699 7.60553 8.05343C7.60553 8.22986 7.67562 8.39907 7.80038 8.52383C7.92513 8.64859 8.09434 8.71867 8.27077 8.71867H15.7612C15.9376 8.71867 16.1068 8.64859 16.2316 8.52383C16.3563 8.39907 16.4264 8.22986 16.4264 8.05343C16.4264 7.87699 16.3563 7.70779 16.2316 7.58303C16.1068 7.45827 15.9376 7.38818 15.7612 7.38818V7.38818Z" fill="#FF0000"/>
<path d="M15.7612 14.7119H8.2708C8.09352 14.7119 7.9235 14.7823 7.79814 14.9077C7.67278 15.0331 7.60236 15.2031 7.60236 15.3804C7.60236 15.5576 7.67278 15.7277 7.79814 15.853C7.9235 15.9784 8.09352 16.0488 8.2708 16.0488H15.7612C15.9385 16.0488 16.1085 15.9784 16.2339 15.853C16.3592 15.7277 16.4296 15.5576 16.4296 15.3804C16.4296 15.2031 16.3592 15.0331 16.2339 14.9077C16.1085 14.7823 15.9385 14.7119 15.7612 14.7119Z" fill="#FF0000"/>
<path d="M15.7612 18.3262H8.2708C8.09352 18.3262 7.9235 18.3966 7.79814 18.522C7.67278 18.6473 7.60236 18.8173 7.60236 18.9946C7.60236 19.1719 7.67278 19.3419 7.79814 19.4673C7.9235 19.5926 8.09352 19.6631 8.2708 19.6631H15.7612C15.9385 19.6631 16.1085 19.5926 16.2339 19.4673C16.3592 19.3419 16.4296 19.1719 16.4296 18.9946C16.4296 18.8173 16.3592 18.6473 16.2339 18.522C16.1085 18.3966 15.9385 18.3262 15.7612 18.3262Z" fill="#FF0000"/>
<path d="M15.7612 11.0342H8.27077C8.09434 11.0342 7.92513 11.1043 7.80038 11.229C7.67562 11.3538 7.60553 11.523 7.60553 11.6994C7.60553 11.8759 7.67562 12.0451 7.80038 12.1698C7.92513 12.2946 8.09434 12.3647 8.27077 12.3647H15.7612C15.9376 12.3647 16.1068 12.2946 16.2316 12.1698C16.3563 12.0451 16.4264 11.8759 16.4264 11.6994C16.4264 11.523 16.3563 11.3538 16.2316 11.229C16.1068 11.1043 15.9376 11.0342 15.7612 11.0342Z" fill="#FF0000"/>
<path d="M15.7612 21.9785H8.27077C8.09434 21.9785 7.92513 22.0486 7.80038 22.1734C7.67562 22.2981 7.60553 22.4673 7.60553 22.6438C7.60553 22.8202 7.67562 22.9894 7.80038 23.1142C7.92513 23.2389 8.09434 23.309 8.27077 23.309H15.7612C15.9376 23.309 16.1068 23.2389 16.2316 23.1142C16.3563 22.9894 16.4264 22.8202 16.4264 22.6438C16.4264 22.4673 16.3563 22.2981 16.2316 22.1734C16.1068 22.0486 15.9376 21.9785 15.7612 21.9785V21.9785Z" fill="#FF0000"/>
<path d="M18.4542 24C18.5409 24.0001 18.6268 23.9826 18.7066 23.9484C18.7863 23.9143 18.8583 23.8643 18.9182 23.8015C18.978 23.7387 19.0244 23.6643 19.0546 23.583C19.0848 23.5016 19.0982 23.415 19.0938 23.3284V0.639659C19.0938 0.470011 19.0264 0.307311 18.9065 0.187352C18.7865 0.0673924 18.6238 0 18.4542 0L5.57783 0C5.40818 0 5.24548 0.0673924 5.12552 0.187352C5.00556 0.307311 4.93817 0.470011 4.93817 0.639659V23.3284C4.93817 23.5048 5.00826 23.674 5.13302 23.7988C5.25777 23.9235 5.42698 23.9936 5.60342 23.9936C5.77985 23.9936 5.94906 23.9235 6.07382 23.7988C6.19857 23.674 6.26866 23.5048 6.26866 23.3284V1.33049H17.7825V23.3284C17.7779 23.4178 17.7922 23.5072 17.8243 23.5907C17.8564 23.6743 17.9057 23.7502 17.969 23.8135C18.0323 23.8768 18.1082 23.9261 18.1918 23.9582C18.2754 23.9904 18.3648 24.0046 18.4542 24Z" fill="#FF0000"/>
</g>
<defs>
<clipPath id="clip0_857_2838">
<rect width="24" height="24" fill="white"/>
</clipPath>
</defs>
</svg>
