<svg width="24" height="22" viewBox="0 0 24 22" fill="none" xmlns="http://www.w3.org/2000/svg">
<path d="M22.8422 8.8081H22.6055V4.15778C22.5988 3.54751 22.3521 2.96442 21.9188 2.53467C21.4854 2.10491 20.9003 1.86305 20.29 1.86141H10.7399L4.29851 0H4.18337H4.10021L3.9339 0.0575694L3.83795 0.172708L3.35181 1.86141H2.31557C1.70526 1.86305 1.12014 2.10491 0.686792 2.53467C0.253446 2.96442 0.00672295 3.54751 0 4.15778L0 18.0192V19.0299C0.00503482 19.6418 0.250813 20.2272 0.68416 20.6594C1.11751 21.0915 1.70358 21.3357 2.31557 21.339H20.29C20.9047 21.3373 21.4937 21.0919 21.9277 20.6567C22.3618 20.2214 22.6055 19.6318 22.6055 19.0171V16.6951H22.8422C23.1493 16.6951 23.4438 16.5731 23.6609 16.356C23.878 16.1389 24 15.8444 24 15.5373V9.96589C23.9983 9.65934 23.8758 9.36583 23.659 9.14907C23.4423 8.9323 23.1488 8.80978 22.8422 8.8081ZM4.47761 1.01706L13.8678 3.70362H3.83795L4.47761 1.01706ZM2.31557 2.76333H3.12154L2.88486 3.70362H2.31557C2.25096 3.69597 2.18547 3.70209 2.12341 3.72158C2.06134 3.74107 2.00411 3.77349 1.95548 3.8167C1.90685 3.85991 1.86792 3.91293 1.84127 3.97227C1.81461 4.03161 1.80083 4.09593 1.80083 4.16098C1.80083 4.22603 1.81461 4.29035 1.84127 4.34969C1.86792 4.40903 1.90685 4.46206 1.95548 4.50527C2.00411 4.54848 2.06134 4.58089 2.12341 4.60038C2.18547 4.61987 2.25096 4.62599 2.31557 4.61834H19.8294C19.894 4.62599 19.9595 4.61987 20.0216 4.60038C20.0836 4.58089 20.1409 4.54848 20.1895 4.50527C20.2381 4.46206 20.2771 4.40903 20.3037 4.34969C20.3304 4.29035 20.3442 4.22603 20.3442 4.16098C20.3442 4.09593 20.3304 4.03161 20.3037 3.97227C20.2771 3.91293 20.2381 3.85991 20.1895 3.8167C20.1409 3.77349 20.0836 3.74107 20.0216 3.72158C19.9595 3.70209 19.894 3.69597 19.8294 3.70362H17.2708L13.9574 2.76333H20.29C20.6593 2.76501 21.013 2.91246 21.2742 3.17361C21.5353 3.43476 21.6828 3.78847 21.6844 4.15778V6.03198C21.2824 5.72407 20.7899 5.55765 20.2836 5.55864H2.31557C1.96122 5.53465 1.62922 5.37697 1.38672 5.1175C1.14421 4.85803 1.00932 4.51613 1.00932 4.16098C1.00932 3.80583 1.14421 3.46393 1.38672 3.20446C1.62922 2.94499 1.96122 2.78731 2.31557 2.76333ZM21.6844 19.0171C21.6828 19.3864 21.5353 19.7401 21.2742 20.0012C21.013 20.2624 20.6593 20.4098 20.29 20.4115H2.31557C1.94515 20.4098 1.59047 20.2615 1.32914 19.999C1.06782 19.7364 0.921105 19.3811 0.921109 19.0107V6.0064C1.3209 6.31383 1.81123 6.48028 2.31557 6.47974H20.29C20.6593 6.48143 21.013 6.62888 21.2742 6.89003C21.5353 7.15118 21.6828 7.50489 21.6844 7.8742V10.177H17.8465H17.7697L17.5842 10.3113V10.3497L15.7228 13.1322C15.7074 13.1586 15.6945 13.1865 15.6844 13.2154V13.2601C15.6833 13.2729 15.6833 13.2857 15.6844 13.2985V13.3753V13.4904C15.6844 13.4904 15.6844 13.4904 15.6844 13.5352L15.7228 13.6183L17.5842 16.4072L17.629 16.4584C17.629 16.4584 17.629 16.4584 17.6674 16.4968H17.7058L17.7633 16.5288H17.8081H17.8593H21.6972L21.6844 19.0171ZM23.0789 15.5373C23.0773 15.5996 23.0518 15.6588 23.0078 15.7029C22.9637 15.7469 22.9045 15.7724 22.8422 15.774H18.2111L16.6631 13.4456L18.2111 11.1237H22.855C22.9295 11.1302 23.0044 11.1302 23.0789 11.1237V15.5373ZM22.8422 10.177H22.6055V9.72921H22.8422C22.905 9.72921 22.9652 9.75415 23.0096 9.79853C23.054 9.84292 23.0789 9.90312 23.0789 9.96589C23.0712 10.0236 23.0432 10.0766 22.9997 10.1153C22.9563 10.1541 22.9004 10.1759 22.8422 10.177Z" fill="white"/>
</svg>
