<svg width="24" height="24" viewBox="0 0 24 24" fill="none" xmlns="http://www.w3.org/2000/svg">
<g clip-path="url(#clip0_481_3500)">
<path d="M22.8422 10.145H22.6055V5.4947C22.5988 4.88442 22.3521 4.30134 21.9188 3.87158C21.4854 3.44183 20.9003 3.19997 20.29 3.19832H10.7399L4.29851 1.33691H4.18337H4.10021L3.9339 1.39448L3.83795 1.50962L3.35181 3.19832H2.31557C1.70526 3.19997 1.12014 3.44183 0.686792 3.87158C0.253446 4.30134 0.00672295 4.88442 0 5.4947L0 19.3561V20.3668C0.00503482 20.9787 0.250813 21.5641 0.68416 21.9963C1.11751 22.4284 1.70358 22.6726 2.31557 22.6759H20.29C20.9047 22.6742 21.4937 22.4289 21.9277 21.9936C22.3618 21.5583 22.6055 20.9687 22.6055 20.354V18.032H22.8422C23.1493 18.032 23.4438 17.91 23.6609 17.6929C23.878 17.4758 24 17.1813 24 16.8742V11.3028C23.9983 10.9963 23.8758 10.7027 23.659 10.486C23.4423 10.2692 23.1488 10.1467 22.8422 10.145ZM4.47761 2.35397L13.8678 5.04054H3.83795L4.47761 2.35397ZM2.31557 4.10024H3.12154L2.88486 5.04054H2.31557C2.25096 5.03289 2.18547 5.03901 2.12341 5.05849C2.06134 5.07798 2.00411 5.1104 1.95548 5.15361C1.90685 5.19682 1.86792 5.24984 1.84127 5.30918C1.81461 5.36853 1.80083 5.43284 1.80083 5.4979C1.80083 5.56295 1.81461 5.62726 1.84127 5.68661C1.86792 5.74595 1.90685 5.79897 1.95548 5.84218C2.00411 5.88539 2.06134 5.91781 2.12341 5.9373C2.18547 5.95679 2.25096 5.9629 2.31557 5.95525H19.8294C19.894 5.9629 19.9595 5.95679 20.0216 5.9373C20.0836 5.91781 20.1409 5.88539 20.1895 5.84218C20.2381 5.79897 20.2771 5.74595 20.3037 5.68661C20.3304 5.62726 20.3442 5.56295 20.3442 5.4979C20.3442 5.43284 20.3304 5.36853 20.3037 5.30918C20.2771 5.24984 20.2381 5.19682 20.1895 5.15361C20.1409 5.1104 20.0836 5.07798 20.0216 5.05849C19.9595 5.03901 19.894 5.03289 19.8294 5.04054H17.2708L13.9574 4.10024H20.29C20.6593 4.10192 21.013 4.24938 21.2742 4.51053C21.5353 4.77167 21.6828 5.12538 21.6844 5.4947V7.3689C21.2824 7.06098 20.7899 6.89457 20.2836 6.89555H2.31557C1.96122 6.87156 1.62922 6.71389 1.38672 6.45441C1.14421 6.19494 1.00932 5.85305 1.00932 5.4979C1.00932 5.14274 1.14421 4.80085 1.38672 4.54138C1.62922 4.2819 1.96122 4.12423 2.31557 4.10024ZM21.6844 20.354C21.6828 20.7233 21.5353 21.077 21.2742 21.3381C21.013 21.5993 20.6593 21.7467 20.29 21.7484H2.31557C1.94515 21.7467 1.59047 21.5984 1.32914 21.3359C1.06782 21.0733 0.921105 20.718 0.921109 20.3476V7.34331C1.3209 7.65075 1.81123 7.81719 2.31557 7.81666H20.29C20.6593 7.81834 21.013 7.9658 21.2742 8.22694C21.5353 8.48809 21.6828 8.8418 21.6844 9.21111V11.5139H17.8465H17.7697L17.5842 11.6482V11.6866L15.7228 14.4691C15.7074 14.4955 15.6945 14.5234 15.6844 14.5523V14.597C15.6833 14.6098 15.6833 14.6227 15.6844 14.6354V14.7122V14.8273C15.6844 14.8273 15.6844 14.8273 15.6844 14.8721L15.7228 14.9553L17.5842 17.7442L17.629 17.7953C17.629 17.7953 17.629 17.7953 17.6674 17.8337H17.7058L17.7633 17.8657H17.8081H17.8593H21.6972L21.6844 20.354ZM23.0789 16.8742C23.0773 16.9365 23.0518 16.9958 23.0078 17.0398C22.9637 17.0838 22.9045 17.1093 22.8422 17.1109H18.2111L16.6631 14.7825L18.2111 12.4606H22.855C22.9295 12.4671 23.0044 12.4671 23.0789 12.4606V16.8742ZM22.8422 11.5139H22.6055V11.0661H22.8422C22.905 11.0661 22.9652 11.0911 23.0096 11.1354C23.054 11.1798 23.0789 11.24 23.0789 11.3028C23.0712 11.3605 23.0432 11.4135 22.9997 11.4523C22.9563 11.491 22.9004 11.5129 22.8422 11.5139Z" fill="#F90000"/>
<path d="M19.5672 15.7996C20.143 15.7996 20.6098 15.3328 20.6098 14.757C20.6098 14.1812 20.143 13.7144 19.5672 13.7144C18.9913 13.7144 18.5245 14.1812 18.5245 14.757C18.5245 15.3328 18.9913 15.7996 19.5672 15.7996Z" fill="#FF0000"/>
</g>
<defs>
<clipPath id="clip0_481_3500">
<rect width="24" height="24" fill="white"/>
</clipPath>
</defs>
</svg>
