<svg width="36" height="36" viewBox="0 0 36 36" fill="none" xmlns="http://www.w3.org/2000/svg">
<path d="M33.9836 29.6072C30.7845 26.4228 27.6092 23.2225 24.418 20.0301C24.2513 19.8629 24.2037 19.7435 24.3307 19.5126C25.8072 16.9014 26.3152 14.0991 25.8866 11.1296C25.0927 5.69216 20.7188 1.4091 15.3684 0.326392C14.6619 0.183093 12.5503 0.127365 11.685 0.206976C11.1135 0.254742 10.5419 0.366197 9.98623 0.509497C2.5719 2.34054 -1.67507 10.3096 0.936621 17.4905C3.69913 25.0933 12.4947 28.3414 19.5201 24.3609C19.7344 24.2415 19.8376 24.2654 20.0043 24.4325C21.9016 26.3512 23.8147 28.2618 25.7199 30.1725C27.2281 31.6851 28.7205 33.2056 30.2447 34.7103C31.999 36.4299 34.7933 35.6736 35.476 33.3171C35.4998 33.2375 35.468 33.126 35.5792 33.0783C35.5792 32.728 35.5792 32.3857 35.5792 32.0354C35.3728 31.0084 34.6901 30.3158 33.9836 29.6072ZM13.0901 23.8514C7.16815 23.8434 2.38138 19.019 2.38932 13.088C2.39726 7.14904 7.20785 2.34054 13.1218 2.34851C19.0438 2.35647 23.8306 7.18088 23.8226 13.1119C23.8147 19.0508 19.0041 23.8593 13.0901 23.8514ZM24.0052 23.0075C23.6559 23.3419 23.3146 23.6842 22.9812 24.0345C22.8859 24.138 22.8224 24.1221 22.7351 24.0265C22.3937 23.6762 22.0524 23.3339 21.711 22.9995C21.6237 22.9199 21.6158 22.8642 21.711 22.7846C22.0841 22.4582 22.4334 22.1079 22.7589 21.7337C22.7986 21.6939 22.8383 21.6621 22.9018 21.6064C22.9415 21.6541 22.9653 21.6939 22.997 21.7258C23.3304 22.0601 23.6639 22.4025 23.9973 22.7289C24.1005 22.8403 24.1163 22.904 24.0052 23.0075ZM32.8802 33.3171C32.5547 33.4843 32.2292 33.4445 31.9355 33.2375C31.8403 33.1738 31.7609 33.0862 31.6815 33.0066C29.3318 30.6581 26.99 28.3016 24.6403 25.9531C24.4656 25.778 24.418 25.6824 24.6323 25.4993C24.9499 25.2207 25.2436 24.9102 25.5373 24.5997C25.6643 24.4644 25.7278 24.4723 25.8627 24.5997C28.2601 27.0119 30.6654 29.4241 33.0707 31.8284C33.2533 32.0115 33.3644 32.2344 33.3803 32.521C33.3565 32.8713 33.2056 33.1579 32.8802 33.3171Z" fill="red"/>
</svg>