<svg width="40" height="40" viewBox="0 0 40 40" fill="none" xmlns="http://www.w3.org/2000/svg">
<path d="M36.2601 32.6174C36.2601 32.2734 36.0749 32.097 35.7309 32.0882C35.3957 32.0793 35.0605 32.0617 34.7254 32.0882C34.3725 32.1234 34.2843 32 34.2843 31.6471C34.2932 25.9051 34.2932 20.1543 34.2932 14.4123C34.2932 13.6714 34.2667 13.6449 33.5787 13.3803C30.6857 12.269 27.8014 11.1488 24.8996 10.0374C24.6526 9.94042 24.582 9.81693 24.5908 9.56114C24.5997 7.84119 24.5997 6.11241 24.5997 4.39246C24.5997 3.7574 24.485 3.63391 23.8323 3.63391C18.0462 3.63391 12.2601 3.63391 6.4828 3.63391C5.74189 3.63391 5.65369 3.73093 5.65369 4.48066C5.65369 13.495 5.65369 22.5005 5.65369 31.5148C5.65369 31.5942 5.64487 31.6736 5.65369 31.7442C5.69779 32.0264 5.56549 32.097 5.3097 32.0793C5.01863 32.0617 4.71874 32.0705 4.41885 32.0793C3.81025 32.0793 3.68677 32.194 3.68677 32.7938C3.68677 33.6846 3.68677 34.5667 3.68677 35.4575C3.68677 36.119 3.78379 36.216 4.44531 36.216C9.614 36.216 14.7827 36.216 19.9514 36.216C24.1939 36.216 28.4365 36.216 32.6791 36.216C33.6846 36.216 34.6813 36.216 35.6868 36.216C36.0837 36.216 36.2601 36.0485 36.2601 35.6604C36.2601 34.6549 36.2601 33.6405 36.2601 32.6174ZM24.6085 11.0694C24.6085 11.0606 24.6173 11.043 24.6261 10.9812C26.5225 11.7133 28.4012 12.4366 30.2711 13.1598C31.1884 13.5126 32.1057 13.8743 33.0319 14.2271C33.2435 14.3065 33.3229 14.4035 33.3229 14.6416C33.3141 20.3484 33.3141 26.0551 33.3229 31.7618C33.3229 32.0352 33.2435 32.1058 32.9789 32.097C30.2888 32.0882 27.6074 32.0882 24.9172 32.097C24.7055 32.097 24.5997 32.0793 24.5997 31.8147C24.6085 24.8996 24.6085 17.9845 24.6085 11.0694ZM7.02966 4.6306C12.4365 4.63942 17.8521 4.63942 23.259 4.6306C23.5501 4.6306 23.6206 4.70117 23.6206 4.98341C23.6118 13.9007 23.6118 22.818 23.6206 31.7442C23.6206 32.0441 23.5324 32.1058 23.2502 32.097C22.1741 32.0793 21.0892 32.0793 20.0131 32.097C19.722 32.1058 19.6515 32.0264 19.6515 31.7353C19.6603 28.4542 19.6603 25.1819 19.6603 21.9007C19.6603 21.2657 19.5368 21.1422 18.8929 21.1422C16.3703 21.1422 13.8566 21.1422 11.334 21.1422C10.7254 21.1422 10.6107 21.2568 10.6107 21.8654C10.6107 25.1466 10.6019 28.4189 10.6195 31.7001C10.6195 32.0264 10.5313 32.1058 10.2138 32.1058C9.14652 32.0882 8.07927 32.0882 7.01202 32.1058C6.70331 32.1146 6.63274 32.0176 6.63274 31.7177C6.64156 27.2723 6.64156 22.8269 6.64156 18.3726C6.64156 13.9272 6.64156 9.48176 6.63274 5.02752C6.63274 4.71881 6.70331 4.6306 7.02966 4.6306ZM11.5809 22.474C11.5809 22.183 11.6603 22.1124 11.9426 22.1124C14.0771 22.1212 16.2116 22.1212 18.3373 22.1124C18.6195 22.1124 18.6724 22.2094 18.6636 22.4652C18.6548 24.0176 18.6548 25.5788 18.6548 27.1312C18.6548 28.6747 18.646 30.2183 18.6636 31.753C18.6636 32.0176 18.6019 32.097 18.3284 32.097C16.1939 32.0882 14.0594 32.0882 11.9337 32.097C11.6338 32.097 11.5721 32.0088 11.5721 31.7265C11.5897 28.6482 11.5897 25.5611 11.5809 22.474ZM34.937 35.2458C32.0087 35.237 29.0716 35.237 26.1432 35.237C24.0704 35.237 22.0065 35.237 19.9337 35.237C14.9856 35.237 10.0374 35.237 5.08919 35.2458C4.75402 35.2458 4.64818 35.1753 4.66582 34.8313C4.7011 34.3461 4.68346 33.8522 4.67464 33.3671C4.67464 33.173 4.7011 33.0672 4.93925 33.0672C6.94145 33.076 8.95248 33.076 10.9547 33.076C11.8632 33.076 12.7805 33.0672 13.689 33.076C17.1553 33.0848 20.6305 33.0937 24.0969 33.0937C26.9106 33.0937 29.7243 33.0848 32.5379 33.076C33.3494 33.076 34.1609 33.0848 34.9635 33.0672C35.1928 33.0672 35.281 33.1289 35.2722 33.3671C35.2546 33.8787 35.2546 34.3991 35.2722 34.9106C35.2899 35.1841 35.2017 35.2458 34.937 35.2458Z" fill="#F90000" stroke="#F90000"/>
<path d="M28.9215 16.7761C28.4099 16.7761 27.8984 16.7761 27.378 16.7761C27.0163 16.7761 26.8135 16.5909 26.8135 16.291C26.8135 15.9911 27.0075 15.7882 27.3692 15.7882C28.4188 15.7794 29.4772 15.7794 30.5268 15.7882C30.8443 15.7882 31.0737 15.9294 31.0913 16.2822C31.1001 16.5997 30.8973 16.7761 30.5004 16.7761C29.9711 16.7761 29.4507 16.7761 28.9215 16.7761Z" fill="#F90000" stroke="#F90000"/>
<path d="M28.9215 21.0892C28.4099 21.0892 27.8984 21.098 27.378 21.0892C27.0163 21.0892 26.8135 20.904 26.8135 20.6041C26.8135 20.3042 27.0163 20.1013 27.3692 20.1013C28.4188 20.0925 29.4772 20.0925 30.5268 20.1013C30.8884 20.1013 31.0913 20.2954 31.0913 20.5953C31.0913 20.9128 30.8884 21.0892 30.5004 21.098C29.9711 21.098 29.4507 21.0892 28.9215 21.0892Z" fill="#F90000" stroke="#F90000"/>
<path d="M28.9392 29.7243C28.4276 29.7243 27.916 29.7331 27.3956 29.7243C27.0164 29.7155 26.7958 29.5215 26.8135 29.2127C26.8399 28.8599 27.0605 28.7365 27.3868 28.7365C28.4276 28.7365 29.4684 28.7365 30.5092 28.7365C30.8355 28.7365 31.0649 28.8599 31.0825 29.2127C31.109 29.5303 30.8885 29.7243 30.5092 29.7331C29.9888 29.7331 29.4596 29.7243 28.9392 29.7243Z" fill="#F90000" stroke="#F90000"/>
<path d="M28.9568 25.4112C28.4452 25.4112 27.9337 25.4112 27.4133 25.4112C27.0252 25.4112 26.8135 25.226 26.8135 24.9173C26.8135 24.6086 27.0252 24.4233 27.4133 24.4233C28.4364 24.4233 29.4684 24.4233 30.4915 24.4233C30.8796 24.4233 31.0913 24.5997 31.0913 24.9173C31.0913 25.226 30.8796 25.4112 30.4915 25.42C29.98 25.4112 29.4684 25.4112 28.9568 25.4112Z" fill="#F90000" stroke="#F90000"/>
<path d="M13.8478 6.90628C13.8478 6.43881 13.6802 6.28004 13.2215 6.28004C12.5776 6.28004 11.9338 6.28004 11.2987 6.28004C10.6284 6.28004 9.96684 6.27122 9.29649 6.28004C8.88194 6.28004 8.71436 6.44763 8.71436 6.86218C8.71436 8.15876 8.71436 9.45535 8.71436 10.7519C8.71436 11.1929 8.88194 11.3693 9.31413 11.3693C10.6284 11.3782 11.9338 11.3782 13.248 11.3693C13.6802 11.3693 13.8566 11.1929 13.8566 10.7607C13.8478 9.47299 13.8478 8.18523 13.8478 6.90628ZM12.8687 10.1345C12.8687 10.3197 12.8158 10.3815 12.6306 10.3727C11.7309 10.3638 10.8312 10.3638 9.93155 10.3727C9.74633 10.3727 9.69341 10.3197 9.69341 10.1345C9.70223 9.24366 9.70223 8.36163 9.69341 7.47078C9.69341 7.26792 9.77279 7.24145 9.94037 7.24145C10.3902 7.25027 10.84 7.24145 11.2899 7.24145C11.7309 7.24145 12.1631 7.25027 12.6041 7.24145C12.7981 7.23263 12.8687 7.29438 12.8687 7.49724C12.8599 8.38809 12.8599 9.2613 12.8687 10.1345Z" fill="#F90000" stroke="#F90000"/>
<path d="M21.5568 6.87091C21.5568 6.4299 21.3804 6.27113 20.9394 6.27113C20.2955 6.26231 19.6516 6.27113 19.0165 6.27113C18.3638 6.27113 17.7023 6.27113 17.0496 6.27113C16.5821 6.27113 16.4234 6.4299 16.4146 6.88855C16.4146 8.17631 16.4146 9.45526 16.4146 10.743C16.4146 11.2017 16.5821 11.3693 17.0408 11.3693C18.3374 11.3693 19.634 11.3693 20.9305 11.3693C21.3627 11.3693 21.548 11.1929 21.548 10.7695C21.5656 9.4729 21.5656 8.17631 21.5568 6.87091ZM20.3396 10.3814C19.8897 10.3726 19.4399 10.3814 18.9901 10.3814C18.5491 10.3814 18.1169 10.3726 17.6759 10.3814C17.4994 10.3814 17.4024 10.3637 17.4024 10.1432C17.4201 9.25239 17.4112 8.37036 17.4024 7.47951C17.4024 7.31193 17.4465 7.259 17.6141 7.259C18.5226 7.26782 19.4399 7.26782 20.3484 7.259C20.516 7.259 20.5689 7.32075 20.5689 7.47951C20.5601 8.37036 20.5601 9.25239 20.5689 10.1432C20.5865 10.3373 20.516 10.3814 20.3396 10.3814Z" fill="#F90000" stroke="#F90000"/>
<path d="M13.8478 14.0595C13.8478 13.6185 13.6802 13.4597 13.2392 13.4597C11.925 13.4597 10.6196 13.4597 9.30534 13.4597C8.88196 13.4597 8.71438 13.6273 8.71438 14.033C8.70556 15.3473 8.70556 16.6527 8.71438 17.9669C8.71438 18.3814 8.89078 18.549 9.29652 18.549C9.96686 18.5578 10.6284 18.549 11.2987 18.549C11.9426 18.549 12.5865 18.549 13.2215 18.549C13.6626 18.549 13.839 18.3903 13.839 17.9492C13.8478 16.6527 13.8478 15.3561 13.8478 14.0595ZM12.6218 17.5612C12.1719 17.5523 11.7221 17.5612 11.2723 17.5612C10.8224 17.5612 10.3726 17.5523 9.92276 17.5612C9.73753 17.57 9.68461 17.5082 9.68461 17.323C9.69343 16.441 9.69343 15.5501 9.68461 14.6681C9.68461 14.5005 9.72871 14.4476 9.90512 14.4476C10.8136 14.4564 11.7309 14.4564 12.6394 14.4476C12.807 14.4476 12.8599 14.5005 12.8599 14.6681C12.8511 15.5501 12.8511 16.441 12.8599 17.323C12.8687 17.5082 12.807 17.5612 12.6218 17.5612Z" fill="#F90000" stroke="#F90000"/>
<path d="M21.5566 14.0154C21.5566 13.6273 21.3713 13.4597 20.9744 13.4597C20.3217 13.4509 19.6602 13.4597 19.0075 13.4597C18.3283 13.4597 17.6492 13.4509 16.9612 13.4597C16.5907 13.4597 16.4143 13.6361 16.4143 13.9978C16.4055 15.3296 16.4055 16.6703 16.4143 18.0022C16.4143 18.3638 16.5996 18.5402 16.97 18.5402C18.3019 18.549 19.6426 18.549 20.9744 18.5402C21.3625 18.5402 21.5477 18.3726 21.5477 17.9757C21.5654 16.6615 21.5654 15.3385 21.5566 14.0154ZM20.3217 17.5612C19.8895 17.5523 19.4485 17.5612 19.0075 17.5612C18.5577 17.5612 18.1078 17.5523 17.658 17.57C17.4551 17.5788 17.4022 17.5171 17.4022 17.3142C17.411 16.441 17.411 15.5678 17.4022 14.6946C17.4022 14.5093 17.4463 14.4564 17.6403 14.4564C18.54 14.4652 19.4397 14.4652 20.3394 14.4564C20.5246 14.4564 20.5863 14.5093 20.5863 14.6946C20.5775 15.5678 20.5775 16.441 20.5863 17.3142C20.5863 17.5082 20.5158 17.5612 20.3217 17.5612Z" fill="#F90000" stroke="#F90000"/>
</svg>