<svg width="23" height="23" viewBox="0 0 23 23" fill="none" xmlns="http://www.w3.org/2000/svg">
<g clip-path="url(#clip0_100_5126)">
<path d="M20.6522 2.41483L11.69 -0.000418872C11.5631 -0.0311104 11.4307 -0.0311104 11.3038 -0.000418875L2.34781 2.41483C2.18849 2.45775 2.04765 2.55175 1.94689 2.68241C1.84613 2.81307 1.791 2.97318 1.78998 3.13817V10.3042C1.78998 17.3048 6.14845 22.9996 11.5 22.9996C16.8515 22.9996 21.2039 17.3048 21.2039 10.3042V3.13817C21.2043 2.97372 21.1504 2.81373 21.0507 2.68297C20.9509 2.5522 20.8109 2.45796 20.6522 2.41483ZM11.5 21.4977C6.96988 21.4977 3.28571 16.4772 3.28571 10.3042V3.7144L11.5 1.51984L19.7082 3.7144V10.3042C19.7082 16.4772 16.024 21.4977 11.5 21.4977Z" fill="white"/>
<path d="M15.6807 8.95604H14.0378V7.31932C14.0378 6.9627 13.8966 6.6206 13.645 6.36786C13.3934 6.11513 13.052 5.97232 12.6954 5.9707H10.3046C9.94745 5.97232 9.60536 6.11492 9.3528 6.36749C9.10023 6.62005 8.95763 6.96214 8.95601 7.31932V8.95604H7.31929C6.96211 8.95766 6.62002 9.10026 6.36745 9.35283C6.11489 9.60539 5.97229 9.94748 5.97067 10.3047V12.6954C5.97229 13.052 6.11509 13.3934 6.36783 13.645C6.62057 13.8966 6.96267 14.0379 7.31929 14.0379H8.95601V15.6807C8.95763 16.0373 9.10044 16.3788 9.35317 16.6304C9.60591 16.882 9.94801 17.0232 10.3046 17.0232H12.6954C13.0514 17.0232 13.3929 16.8818 13.6446 16.63C13.8964 16.3782 14.0378 16.0368 14.0378 15.6807V14.0379H15.6807C16.0367 14.0379 16.3782 13.8964 16.63 13.6447C16.8817 13.3929 17.0232 13.0514 17.0232 12.6954V10.3047C17.0232 9.94804 16.8819 9.60594 16.6303 9.3532C16.3788 9.10047 16.0373 8.95766 15.6807 8.95604ZM9.10927 12.5421H7.46641V10.4579H9.10927C9.46644 10.4563 9.80853 10.3137 10.0611 10.0611C10.3137 9.80856 10.4563 9.46647 10.4579 9.1093V7.46644H12.5421V9.1093C12.5421 9.46591 12.6833 9.80801 12.9349 10.0607C13.1865 10.3135 13.528 10.4563 13.8846 10.4579H15.5274V12.5421H13.8846C13.5285 12.5421 13.1871 12.6836 12.9353 12.9353C12.6835 13.1871 12.5421 13.5286 12.5421 13.8846V15.5275H10.4579V13.8846C10.4563 13.528 10.3135 13.1866 10.0607 12.935C9.80798 12.6834 9.46588 12.5421 9.10927 12.5421Z" fill="white"/>
</g>
<defs>
<clipPath id="clip0_100_5126">
<rect width="23" height="23" fill="white"/>
</clipPath>
</defs>
</svg>
