<svg width="144" height="144" viewBox="0 0 144 144" fill="none" xmlns="http://www.w3.org/2000/svg">
<g clip-path="url(#clip0_77_6113)">
<path d="M101.308 46.0851C103.508 45.798 105.573 44.8647 107.241 43.4033C108.91 41.9419 110.108 40.0182 110.683 37.8758C111.257 35.7333 111.184 33.4685 110.47 31.3681C109.757 29.2676 108.437 27.426 106.677 26.0764C104.916 24.7267 102.795 23.9298 100.581 23.7865C98.3678 23.6432 96.1614 24.1599 94.2417 25.2713C92.322 26.3827 90.7752 28.0387 89.7972 30.0297C88.8192 32.0206 88.454 34.257 88.7478 36.4557C89.1407 39.3963 90.6835 42.0612 93.0379 43.8662C95.3923 45.6712 98.3663 46.4692 101.308 46.0851ZM99.3287 31.2726C100.061 31.1747 100.806 31.2962 101.469 31.6217C102.133 31.9473 102.685 32.4622 103.055 33.1014C103.426 33.7406 103.599 34.4754 103.552 35.2128C103.505 35.9503 103.241 36.6572 102.792 37.2443C102.343 37.8314 101.731 38.2723 101.031 38.5112C100.332 38.75 99.5777 38.7762 98.8636 38.5863C98.1495 38.3965 97.5077 37.9991 97.0194 37.4445C96.5311 36.8899 96.2183 36.203 96.1204 35.4705C95.9892 34.4884 96.2535 33.4944 96.8551 32.7071C97.4568 31.9198 98.3466 31.4038 99.3287 31.2726Z" fill="#FF0000"/>
<path d="M18.0106 137.398C18.1962 138.259 18.6822 139.025 19.3816 139.56C20.081 140.094 20.948 140.362 21.827 140.315L51.4215 139.204C52.3398 139.166 53.211 138.788 53.8659 138.143C54.5207 137.499 54.9123 136.633 54.9645 135.716L55.693 124.756L66.0814 121.209C66.7712 120.962 67.3748 120.52 67.8198 119.938C68.2648 119.356 68.5321 118.658 68.5897 117.927L69.381 106.925L79.7694 103.378C80.3817 103.161 80.9277 102.791 81.3546 102.301C81.7815 101.812 82.0748 101.221 82.206 100.585L84.9046 87.4431C93.423 88.69 102.118 87.2279 109.76 83.2636C117.402 79.2992 123.605 73.0331 127.492 65.3511C131.378 57.6691 132.752 48.9598 131.419 40.4544C130.086 31.949 126.113 24.0778 120.062 17.9535C114.011 11.8292 106.189 7.76165 97.7 6.32583C89.2113 4.89002 80.486 6.15858 72.7577 9.9522C65.0293 13.7458 58.6888 19.8726 54.6325 27.4663C50.5761 35.0601 49.0092 43.7367 50.1532 52.2697C50.7142 56.5354 51.9511 60.6846 53.8173 64.5613L15.9165 113.521C15.6192 113.912 15.402 114.358 15.2774 114.833C15.1527 115.308 15.1231 115.804 15.1901 116.29L18.0106 137.398ZM86.304 13.5498C91.2069 12.8699 96.1995 13.282 100.925 14.7565C105.65 16.231 109.99 18.7316 113.636 22.0793C117.282 25.427 120.144 29.5391 122.015 34.1214C123.887 38.7038 124.722 43.6431 124.462 48.5861C124.202 53.529 122.853 58.3535 120.511 62.7142C118.17 67.075 114.893 70.8643 110.916 73.8111C106.939 76.7579 102.36 78.7894 97.506 79.7602C92.6524 80.731 87.6441 80.6171 82.8396 79.4267C82.3501 79.3126 81.8428 79.2976 81.3474 79.3825C80.8521 79.4674 80.3787 79.6505 79.9551 79.921C79.5315 80.1915 79.1663 80.5439 78.8809 80.9576C78.5955 81.3714 78.3957 81.838 78.2933 82.33L75.2832 96.9869L64.5717 100.68C63.8887 100.926 63.2932 101.367 62.8592 101.949C62.4252 102.531 62.1719 103.228 62.1307 103.953L61.4359 114.908L51.0475 118.455C50.3506 118.691 49.7398 119.129 49.293 119.714C48.8463 120.298 48.5838 121.003 48.5392 121.737L47.8665 131.833L29.6735 132.619L71.0675 78.7724C71.3669 78.3851 71.5866 77.9422 71.7137 77.4693C71.8408 76.9965 71.8729 76.5032 71.808 76.0179C71.7432 75.5326 71.5827 75.0649 71.3359 74.6421C71.0891 74.2192 70.7609 73.8495 70.3702 73.5544C65.1158 69.5062 61.1747 63.9958 59.0417 57.7152C56.9087 51.4346 56.6789 44.6637 58.3812 38.2529C60.0836 31.8422 63.6421 26.0773 68.61 21.6823C73.5779 17.2872 79.7336 14.458 86.304 13.5498ZM22.736 116.858L57.7852 71.4325C59.3094 73.4717 61.0193 75.3654 62.8928 77.0892L24.1395 127.362L22.736 116.858Z" fill="#FF0000"/>
</g>
<defs>
<clipPath id="clip0_77_6113">
<rect width="127.434" height="127.434" fill="white" transform="translate(144 126.833) rotate(172.389)"/>
</clipPath>
</defs>
</svg>
