<svg width="49" height="40" viewBox="0 0 40 40" fill="none" xmlns="http://www.w3.org/2000/svg">
<path d="M13.539 8.53608C13.5302 8.77491 13.4244 8.95182 13.2039 9.05797C12.9834 9.17296 12.7805 9.11989 12.6041 8.96067C12.5865 8.94298 12.5688 8.92528 12.56 8.90759C11.8544 7.80189 11.1488 6.69618 10.4608 5.58163C10.3285 5.37818 10.3902 5.15704 10.549 4.98013C10.6989 4.80321 10.9018 4.77668 11.1135 4.82091C11.2811 4.85629 11.3957 4.98013 11.4839 5.11281C12.1278 6.12122 12.7717 7.12962 13.4156 8.13802C13.4773 8.26186 13.5214 8.39455 13.539 8.53608Z" fill="#F90000" stroke="#F90000" stroke-width="0.5"/>
<path d="M34.3726 11.3225C34.3814 11.5259 34.2403 11.694 34.0374 11.8001C32.9613 12.3839 31.8764 12.9766 30.7916 13.5516C30.474 13.7196 30.1477 13.6223 30.0154 13.357C29.8742 13.0827 29.9624 12.7466 30.2623 12.5874C31.3472 11.9859 32.4321 11.3932 33.5347 10.8183C33.958 10.5971 34.3814 10.8448 34.3726 11.3225Z" fill="#F90000" stroke="#F90000" stroke-width="0.5"/>
<path d="M19.0869 4.69704C19.0869 4.11323 19.0869 3.52057 19.0869 2.93676C19.0869 2.52986 19.2986 2.27334 19.625 2.26449C19.9513 2.25564 20.1983 2.52986 20.1983 2.9456C20.1983 4.13092 20.1983 5.31624 20.1983 6.5104C20.1983 6.92614 19.9866 7.17382 19.6602 7.18267C19.3162 7.19151 19.0957 6.92614 19.0957 6.50155C19.0781 5.90005 19.0869 5.29855 19.0869 4.69704Z" fill="#F90000" stroke="#F90000" stroke-width="0.5"/>
<path d="M5.48616 10.7386C5.60964 10.7475 5.75076 10.8006 5.88307 10.8713C6.88858 11.4198 7.89409 11.9682 8.89961 12.5255C9.27888 12.7289 9.41118 13.0739 9.2436 13.3746C9.08483 13.6666 8.75848 13.7196 8.37039 13.5073C7.3296 12.9412 6.29762 12.3751 5.25683 11.809C5.00104 11.6674 4.8511 11.464 4.93048 11.1632C5.00104 10.889 5.19509 10.7563 5.48616 10.7386Z" fill="#F90000" stroke="#F90000" stroke-width="0.5"/>
<path d="M26.5314 9.24362C26.1345 9.25246 25.861 8.86325 25.9845 8.52712C26.0198 8.42097 26.0815 8.32367 26.1433 8.22637C26.7783 7.27104 27.4134 6.30686 28.0485 5.35153C28.1984 5.13039 28.366 4.94464 28.6571 4.98886C29.0804 5.05078 29.2568 5.47537 29.0011 5.86458C28.4718 6.67838 27.9338 7.47449 27.3958 8.27944C27.237 8.51827 27.0782 8.75711 26.9195 8.99594C26.8225 9.14631 26.6725 9.22593 26.5314 9.24362Z" fill="#F90000" stroke="#F90000" stroke-width="0.5"/>
<path d="M23.4003 35.7187C23.1445 35.2234 22.7035 34.9845 22.1566 34.9845C20.472 34.9757 18.7961 34.9757 17.1114 34.9845C16.9968 34.9845 16.8821 35.0022 16.7674 35.0376C16.2294 35.1791 15.8854 35.5153 15.7531 36.0549C15.6208 36.5856 15.7972 37.0279 16.1765 37.3994C16.3529 37.5763 16.591 37.6294 16.8027 37.7444C18.6903 37.7444 20.5778 37.7444 22.4653 37.7444C22.8005 37.594 23.1357 37.4348 23.3297 37.1075C23.612 36.6564 23.6473 36.1875 23.4003 35.7187ZM22.0508 36.5944C20.4455 36.5944 18.8314 36.5944 17.2261 36.5944C17.0232 36.5944 16.8292 36.5679 16.838 36.3202C16.8468 36.0637 17.0585 36.0726 17.2526 36.0726C18.0552 36.0726 18.8578 36.0726 19.6605 36.0726C20.4543 36.0726 21.2481 36.0726 22.042 36.0726C22.236 36.0726 22.4477 36.0726 22.4477 36.3202C22.4477 36.5768 22.2448 36.5944 22.0508 36.5944Z" fill="#F90000" stroke="#F90000" stroke-width="0.5"/>
<path d="M26.3019 12.8351C23.9116 10.314 20.948 9.36756 17.5699 10.1814C12.7363 11.3401 9.84328 15.9222 10.7606 20.805C11.0958 22.6006 11.9249 24.1752 13.2303 25.4666C13.786 26.0151 14.2711 26.5989 14.518 27.3596C14.8267 28.2972 14.9679 29.2614 14.9414 30.2521C14.9238 30.8625 15.1002 31.0394 15.7088 31.0394C17.023 31.0394 18.3372 31.0394 19.6426 31.0394C20.9745 31.0394 22.3152 31.0394 23.647 31.0394C24.1851 31.0394 24.3703 30.8536 24.3791 30.314C24.3791 30.2256 24.3791 30.1283 24.3791 30.0398C24.4056 28.1734 24.8819 26.5546 26.3019 25.1836C27.7485 23.8037 28.4982 21.9814 28.6922 19.9735C28.9745 17.2402 28.1895 14.8253 26.3019 12.8351ZM25.5963 24.3432C25.1465 24.8563 24.6261 25.2986 24.2821 25.8912C23.6382 27.0058 23.3648 28.2176 23.3119 29.4914C23.303 29.8187 23.2148 29.916 22.8797 29.9071C21.7948 29.8806 20.7187 29.8983 19.6338 29.8983C18.5401 29.8983 17.4464 29.8895 16.3527 29.9071C16.088 29.9071 16.0175 29.8275 16.0087 29.5887C15.9646 28.5095 15.7617 27.4657 15.3295 26.4662C15.0649 25.8647 14.7121 25.3251 14.2358 24.8828C12.8069 23.5471 11.9425 21.9107 11.722 19.9735C11.4221 17.3463 12.1983 15.0465 14.1211 13.2243C16.6878 10.7917 20.1277 10.2875 23.2766 11.8886C25.6845 13.1093 27.1046 15.1172 27.5103 17.7975C27.8808 20.2565 27.2369 22.4591 25.5963 24.3432Z" fill="#F90000" stroke="#F90000" stroke-width="0.5"/>
<path d="M23.1354 31.6674C20.7981 31.6585 18.4607 31.6674 16.1321 31.6674C15.9381 31.6674 15.744 31.6939 15.5588 31.7558C14.9326 31.9858 14.5709 32.5873 14.6591 33.2596C14.7474 33.9053 15.2942 34.4095 15.9645 34.4184C17.1729 34.4361 18.3813 34.4184 19.5897 34.4184C20.7981 34.4184 22.0064 34.4272 23.2148 34.4184C24.0528 34.4095 24.6614 33.7903 24.6437 33.0031C24.6173 32.2247 24.0086 31.6674 23.1354 31.6674ZM23.2325 33.2773C23.1443 33.2861 23.0472 33.2773 22.959 33.2773C21.8565 33.2773 20.7451 33.2773 19.6426 33.2773C18.5136 33.2773 17.3846 33.2773 16.2556 33.2773C16.141 33.2773 16.0263 33.2684 15.9116 33.2419C15.7793 33.2065 15.744 33.1004 15.7529 32.9765C15.7617 32.8615 15.8234 32.7819 15.9381 32.7642C16.0351 32.7466 16.141 32.7554 16.2468 32.7554C18.4872 32.7554 20.7363 32.7554 22.9767 32.7554C23.0561 32.7554 23.1354 32.7554 23.2148 32.7554C23.3736 32.7642 23.4706 32.8615 23.4794 33.0208C23.4971 33.18 23.3912 33.2684 23.2325 33.2773Z" fill="#F90000" stroke="#F90000" stroke-width="0.5"/>
<path d="M26.6988 18.9916C26.6988 19.0801 26.6988 19.1774 26.6988 19.2659C26.69 19.602 26.496 19.832 26.1961 19.8585C25.8874 19.8851 25.6404 19.6728 25.5963 19.3189C25.561 19.0447 25.5698 18.7705 25.5257 18.4963C25.1024 15.6215 22.7826 13.4985 19.8896 13.3481C19.8102 13.3481 19.7308 13.3481 19.6514 13.3393C19.3074 13.3039 19.0781 13.0651 19.0869 12.7555C19.1046 12.4459 19.3515 12.2247 19.6955 12.2247C20.6746 12.2336 21.6183 12.4193 22.5004 12.8351C24.9259 13.9762 26.3107 15.8957 26.6635 18.5671C26.6812 18.6997 26.6635 18.8413 26.6635 18.9828C26.6812 18.9916 26.69 18.9916 26.6988 18.9916Z" fill="#F90000" stroke="#F90000" stroke-width="0.5"/>
</svg>