<svg width="26" height="26" viewBox="0 0 26 26" fill="none" xmlns="http://www.w3.org/2000/svg">
<g clip-path="url(#clip0_479_2908)">
<path d="M0.80835 12.8767C0.923013 12.6933 1.02048 12.4926 1.16381 12.3263C2.87803 10.3025 4.87318 8.56536 7.26965 7.26393C8.84628 6.40968 10.5261 5.83636 12.3607 5.71597C14.0348 5.61277 15.6401 5.92236 17.1823 6.54155C19.3839 7.43019 21.2701 8.75456 22.9499 10.3484C23.6436 11.0077 24.28 11.7301 24.9279 12.4353C25.2948 12.8366 25.2776 13.1691 24.9336 13.5876C23.2022 15.6516 21.1898 17.4231 18.759 18.7418C16.8498 19.7795 14.8145 20.4044 12.5786 20.3127C11.0421 20.2496 9.59732 19.8597 8.22136 19.2234C5.33183 17.8875 3.02136 15.9038 1.04914 13.5532C0.945946 13.4328 0.888614 13.2838 0.80835 13.1462C0.80835 13.0544 0.80835 12.9627 0.80835 12.8767ZM2.62577 13.0258C3.09589 13.5074 3.54308 13.9832 4.0132 14.4361C5.57836 15.9268 7.30978 17.211 9.37373 18.0538C10.4057 18.4723 11.4778 18.7532 12.6072 18.8048C14.3272 18.8851 15.9153 18.4322 17.4231 17.6983C19.1259 16.8727 20.5993 15.7548 21.9351 14.482C22.4225 14.0176 22.8811 13.5246 23.3627 13.0315C23.2767 12.934 23.2136 12.8538 23.1448 12.785C22.3995 12.0626 21.6829 11.3058 20.8917 10.6293C19.4125 9.36801 17.7728 8.3303 15.8752 7.69965C13.9545 7.05753 12.0397 7.05753 10.1248 7.69392C8.47362 8.23857 7.02312 9.11001 5.67582 10.1477C4.57505 11.002 3.57748 11.9594 2.62577 13.0258Z" fill="#F90000"/>
<path d="M13.0143 8.47362C15.6859 8.49082 17.8416 10.5376 17.8129 13.0372C17.7843 15.5484 15.6286 17.5607 12.9799 17.5435C10.3082 17.5263 8.15252 15.4796 8.18119 12.9799C8.20986 10.4745 10.3655 8.46215 13.0143 8.47362ZM12.9971 16.0357C14.7686 16.0357 16.2019 14.6827 16.2019 13.0143C16.2077 11.3517 14.7801 9.99865 13.0028 9.98718C11.237 9.97572 9.76928 11.3574 9.78075 13.02C9.79795 14.6884 11.2312 16.0357 12.9971 16.0357Z" fill="#F90000"/>
</g>
<defs>
<clipPath id="clip0_479_2908">
<rect width="26" height="25.9255" fill="white"/>
</clipPath>
</defs>
</svg>
