<svg width="24" height="24" viewBox="0 0 24 24" fill="none" xmlns="http://www.w3.org/2000/svg">
<path d="M11.9488 9.19824C12.3452 9.20698 12.7392 9.13535 13.1071 8.98767C13.475 8.84 13.8092 8.61934 14.0896 8.33901C14.3699 8.05867 14.5906 7.72447 14.7382 7.35654C14.8859 6.98862 14.9575 6.5946 14.9488 6.19824V5.27074C14.9575 4.87438 14.8859 4.48036 14.7382 4.11243C14.5906 3.74451 14.3699 3.4103 14.0896 3.12997C13.8092 2.84963 13.475 2.62898 13.1071 2.4813C12.7392 2.33363 12.3452 2.262 11.9488 2.27074C11.5527 2.26197 11.159 2.33363 10.7914 2.48137C10.4238 2.62911 10.09 2.84987 9.81021 3.1303C9.53037 3.41073 9.31033 3.745 9.16337 4.1129C9.01641 4.4808 8.9456 4.87469 8.95521 5.27074V6.19824C8.9456 6.59429 9.01641 6.98817 9.16337 7.35607C9.31033 7.72397 9.53037 8.05825 9.81021 8.33868C10.09 8.61911 10.4238 8.83987 10.7914 8.98761C11.159 9.13535 11.5527 9.20701 11.9488 9.19824V9.19824ZM13.5991 6.19824C13.6132 6.42318 13.581 6.6486 13.5045 6.86062C13.4281 7.07264 13.309 7.26675 13.1547 7.431C13.0004 7.59524 12.8141 7.72614 12.6072 7.81562C12.4004 7.90509 12.1774 7.95126 11.952 7.95126C11.7266 7.95126 11.5037 7.90509 11.2968 7.81562C11.09 7.72614 10.9036 7.59524 10.7493 7.431C10.595 7.26675 10.4759 7.07264 10.3995 6.86062C10.3231 6.6486 10.2909 6.42318 10.3049 6.19824V5.27074C10.2909 5.0458 10.3231 4.82038 10.3995 4.60836C10.4759 4.39634 10.595 4.20223 10.7493 4.03798C10.9036 3.87373 11.09 3.74284 11.2968 3.65336C11.5037 3.56388 11.7266 3.51772 11.952 3.51772C12.1774 3.51772 12.4004 3.56388 12.6072 3.65336C12.8141 3.74284 13.0004 3.87373 13.1547 4.03798C13.309 4.20223 13.4281 4.39634 13.5045 4.60836C13.581 4.82038 13.6132 5.0458 13.5991 5.27074V6.19824Z" fill="#F90000"/>
<path d="M21.6588 10.1514H22.2985C22.4662 10.1351 22.6217 10.0569 22.7349 9.93219C22.8481 9.80745 22.9108 9.64504 22.9108 9.4766C22.9108 9.30816 22.8481 9.14575 22.7349 9.021C22.6217 8.89625 22.4662 8.8181 22.2985 8.80176H19.7399H19.6183H19.5672H19.484C19.4541 8.81501 19.4262 8.83222 19.4009 8.85293V8.85293L19.2985 8.93609C19.2985 8.93609 19.2985 8.98086 19.2601 8.99366C19.2363 9.03498 19.2149 9.0777 19.1962 9.12159C19.1903 9.16617 19.1903 9.21133 19.1962 9.25592C19.1962 9.25592 19.1962 9.29429 19.1962 9.31988V11.8401C19.2125 12.0078 19.2907 12.1633 19.4154 12.2765C19.5402 12.3897 19.7026 12.4524 19.871 12.4524C20.0394 12.4524 20.2019 12.3897 20.3266 12.2765C20.4513 12.1633 20.5295 12.0078 20.5458 11.8401V10.7527C21.8252 11.8337 22.7143 12.7485 22.7143 14.2836C22.7143 16.305 20.8849 18.1664 17.8017 19.273V13.1259C17.8017 10.9766 14.0597 9.6653 12.0448 9.6653C10.0299 9.6653 6.28785 10.9766 6.28785 13.1259V19.3945C3.26866 18.2815 1.47122 16.4329 1.47122 14.4372C1.47122 12.8828 2.57783 11.3988 4.57996 10.2666C4.65826 10.2252 4.72712 10.168 4.78217 10.0987C4.83723 10.0293 4.87728 9.94924 4.89979 9.86359C4.93595 9.73448 4.93303 9.59754 4.89137 9.47008C4.84972 9.34263 4.77122 9.23039 4.66579 9.14755C4.56035 9.06471 4.43272 9.01499 4.29904 9.00468C4.16535 8.99436 4.0316 9.02392 3.91471 9.0896C1.34968 10.4777 0 12.3711 0 14.4372C0 18.5502 5.27079 21.7485 12 21.7485C13.6734 21.754 15.3402 21.5389 16.9574 21.1088H17.0469C17.216 21.1115 17.3793 21.0471 17.5011 20.9297C21.4989 19.7015 23.9872 17.2133 23.9872 14.4372C24 12.6077 23.1045 11.4244 21.6588 10.1514ZM7.51599 13.1259C7.51599 12.1472 10.2026 11.015 11.9488 11.015C13.6951 11.015 16.3817 12.1472 16.3817 13.1259V19.8295C14.9494 20.1917 13.4773 20.3722 12 20.3668C10.4895 20.3727 8.98447 20.1835 7.52239 19.8039L7.51599 13.1259Z" fill="#F90000"/>
</svg>
