<svg width="30" height="30" viewBox="0 0 30 30" fill="none" xmlns="http://www.w3.org/2000/svg">
<g clip-path="url(#clip0_979_7583)">
<path d="M15.0233 8.54687C13.9913 8.54687 12.9593 8.54687 11.9207 8.54687C11.2393 8.54687 10.7564 8.11027 10.7498 7.49505C10.7432 6.85999 11.2261 6.41016 11.9207 6.41016C13.9847 6.41016 16.0552 6.41016 18.1192 6.41016C18.8005 6.41016 19.2835 6.84676 19.2901 7.46198C19.2967 8.09042 18.8138 8.54687 18.1192 8.54687C17.0872 8.55349 16.0552 8.54687 15.0233 8.54687Z" fill="#F90000"/>
<path d="M21.4268 13.892C20.3948 13.892 19.3629 13.892 18.3243 13.892C17.6429 13.892 17.16 13.4487 17.1534 12.8335C17.1468 12.1985 17.6297 11.7552 18.3309 11.7552C20.3948 11.7552 22.4654 11.7552 24.5294 11.7552C25.2107 11.7552 25.6936 12.1919 25.7002 12.8071C25.7069 13.4355 25.224 13.8853 24.5227 13.8853C23.4908 13.892 22.4588 13.892 21.4268 13.892Z" fill="#F90000"/>
<path d="M22.4852 19.2304C21.7972 19.2304 21.1092 19.237 20.4212 19.2304C19.7729 19.2238 19.2966 18.774 19.2966 18.1654C19.2966 17.5568 19.7663 17.0937 20.4146 17.0937C21.8038 17.0871 23.193 17.0871 24.5822 17.0937C25.2305 17.0937 25.7068 17.5502 25.7068 18.1521C25.7068 18.7607 25.2371 19.2172 24.5888 19.2238C23.8876 19.237 23.1864 19.2304 22.4852 19.2304Z" fill="#F90000"/>
<path d="M22.4654 24.5755C21.7906 24.5755 21.1093 24.5755 20.4345 24.5755C19.7796 24.5689 19.3033 24.1257 19.2967 23.5237C19.2901 22.9019 19.7664 22.4454 20.4345 22.4388C21.8105 22.4322 23.1864 22.4322 24.5624 22.4388C25.2173 22.4388 25.6936 22.8886 25.7002 23.4906C25.7068 24.1124 25.2305 24.5689 24.5624 24.5755C23.8612 24.5755 23.1666 24.5755 22.4654 24.5755Z" fill="#F90000"/>
<path d="M29.9802 7.61411C29.9802 7.22381 29.8546 6.90628 29.5767 6.62844C27.4929 4.55788 25.4157 2.48071 23.3452 0.396913C23.0673 0.125689 22.7564 0 22.3661 0C20.3948 0.00661521 18.4301 0.00661521 16.4587 0.00661521C14.1897 0.00661521 11.9207 -0.00661521 9.65169 0.0132304C7.96481 0.0264609 6.52931 1.36273 6.49623 3.00992C6.44993 5.22602 6.47639 7.4355 6.483 9.6516C6.483 10.108 6.73438 10.4322 7.14452 10.6108C7.84574 10.9151 8.60649 10.3793 8.6131 9.57883C8.61972 7.48842 8.6131 5.39802 8.6131 3.30099C8.6131 2.59316 9.04971 2.14994 9.75092 2.14333C13.5547 2.14333 17.3584 2.14333 21.1688 2.13671C21.3871 2.13671 21.44 2.19625 21.44 2.40794C21.4268 3.35391 21.4334 4.29989 21.4334 5.24586C21.44 7.15766 22.8226 8.54024 24.741 8.54686C25.6539 8.55347 26.5668 8.56009 27.4797 8.54024C27.784 8.53363 27.8568 8.61301 27.8568 8.91731C27.8501 14.7585 27.8501 20.5998 27.8501 26.441C27.8501 27.4002 27.4797 27.7773 26.5271 27.7773C23.8016 27.7773 21.0762 27.7773 18.3507 27.7773C17.8413 27.7773 17.4576 27.9691 17.2526 28.4388C16.9417 29.1599 17.4775 29.914 18.3044 29.914C21.0629 29.9206 23.8215 29.914 26.58 29.914C28.6241 29.914 29.9802 28.5579 29.9802 26.5072C29.9802 23.4046 29.9802 20.3021 29.9802 17.1929C29.9736 14.0044 29.9736 10.8093 29.9802 7.61411ZM24.4036 6.37707C23.9339 6.33738 23.5899 5.88754 23.5767 5.41786C23.5569 4.85557 23.5701 4.28666 23.5701 3.67806C24.4962 4.60419 25.3827 5.48401 26.2823 6.3903C25.6473 6.3903 25.0188 6.42999 24.4036 6.37707Z" fill="#F90000"/>
<path d="M8.62628 12.8203C3.9361 12.8071 0.0794269 16.6307 0.0661965 21.3143C0.052966 26.0574 3.86333 29.9008 8.59321 29.9141C13.29 29.9273 17.1401 26.1037 17.1533 21.4201C17.1665 16.6704 13.3694 12.8402 8.62628 12.8203ZM8.65275 27.7773C5.11361 27.784 2.20291 24.9196 2.20291 21.4135C2.20291 17.8148 5.05407 14.9637 8.65275 14.9571C12.139 14.9504 15.0034 17.8413 15.0166 21.3672C15.0298 24.8733 12.1588 27.7707 8.65275 27.7773Z" fill="#F90000"/>
<path d="M6.47625 24.5755C6.04626 24.5755 5.64273 24.3109 5.48397 23.9073C5.31197 23.4575 5.40458 23.0606 5.74857 22.7166C6.76732 21.6979 7.79268 20.6725 8.81142 19.6538C9.18849 19.2767 9.56555 18.8996 9.94262 18.5226C10.4255 18.0529 11.0738 18.033 11.5104 18.4762C11.9404 18.9129 11.9272 19.5545 11.4641 20.0242C10.0683 21.4333 8.66588 22.8224 7.27007 24.2249C7.05177 24.4498 6.79378 24.5755 6.47625 24.5755Z" fill="#F90000"/>
<path d="M7.5413 19.2172C7.54792 19.806 7.065 20.3021 6.47625 20.3021C5.90073 20.3021 5.41782 19.8258 5.4112 19.2503C5.40459 18.6549 5.88088 18.1654 6.47625 18.1654C7.05177 18.1654 7.53468 18.6417 7.5413 19.2172Z" fill="#F90000"/>
<path d="M10.7565 22.4388C11.332 22.4388 11.8149 22.9151 11.8215 23.4972C11.8281 24.086 11.3386 24.5821 10.7499 24.5755C10.1611 24.5755 9.6782 24.0794 9.69143 23.484C9.69143 22.9019 10.1743 22.4322 10.7565 22.4388Z" fill="#F90000"/>
</g>
<defs>
<clipPath id="clip0_979_7583">
<rect width="30" height="29.914" fill="white"/>
</clipPath>
</defs>
</svg>