<svg width="15" height="15" viewBox="0 0 15 15" fill="none" xmlns="http://www.w3.org/2000/svg">
<g clip-path="url(#clip0_481_3423)">
<path d="M8.43998 3.24023H7.03998V8.24023H10.52V6.84023H8.43998V3.24023Z" fill="white"/>
<path d="M7.72 0.240234C3.72 0.240234 0.440002 3.48023 0.440002 7.52023C0.440002 11.5602 3.72 14.8002 7.72 14.8002C11.72 14.8002 15 11.5602 15 7.52023C15 3.48023 11.76 0.240234 7.72 0.240234ZM7.72 13.4002C4.48 13.4002 1.84 10.7602 1.84 7.52023C1.84 4.24023 4.48 1.60023 7.72 1.60023C10.96 1.60023 13.6 4.24023 13.6 7.48023C13.6 10.7602 10.96 13.4002 7.72 13.4002Z" fill="white"/>
</g>
<defs>
<clipPath id="clip0_481_3423">
<rect width="15" height="15" fill="white"/>
</clipPath>
</defs>
</svg>
