<svg width="44" height="50" viewBox="0 0 44 50" fill="none" xmlns="http://www.w3.org/2000/svg">
<path d="M36.4722 10.1279C36.401 10.0165 36.3631 9.88702 36.3631 9.75479C36.3631 9.62255 36.401 9.49308 36.4722 9.38165C36.5242 9.26246 36.61 9.1611 36.7189 9.09007C36.8278 9.01903 36.9551 8.98141 37.0852 8.98187H39.7504C39.9696 8.98187 40.1797 8.89482 40.3347 8.73987C40.4896 8.58492 40.5767 8.37477 40.5767 8.15564V1.41257C40.5802 1.30185 40.5615 1.19154 40.5216 1.0882C40.4817 0.984857 40.4214 0.890601 40.3443 0.811033C40.2672 0.731466 40.1749 0.668212 40.0729 0.625034C39.9709 0.581855 39.8612 0.559635 39.7504 0.559692H27.97C27.7439 0.559692 27.5269 0.649547 27.367 0.809493C27.207 0.969439 27.1172 1.18637 27.1172 1.41257V9.40831C27.1248 10.2453 27.4375 11.0509 27.9967 11.6738C31.3725 15.2746 33.1838 20.0665 33.034 25C33.0745 26.4495 32.8188 27.892 32.2826 29.2393C31.7464 30.5866 30.941 31.8104 29.9156 32.8358C28.8903 33.8611 27.6665 34.6665 26.3192 35.2027C24.9719 35.7389 23.5294 35.9946 22.0799 35.9541C20.6303 35.9946 19.1878 35.7389 17.8405 35.2027C16.4932 34.6665 15.2694 33.8611 14.2441 32.8358C13.2187 31.8104 12.4133 30.5866 11.8771 29.2393C11.341 27.892 11.0853 26.4495 11.1257 25C11.0428 22.556 11.4452 20.1199 12.3099 17.8324C13.1745 15.545 14.4842 13.4518 16.163 11.6738C16.7147 11.0483 17.0181 10.2423 17.0159 9.40831V1.41257C17.0195 1.30185 17.0007 1.19154 16.9608 1.0882C16.9209 0.984857 16.8606 0.890601 16.7835 0.811033C16.7064 0.731466 16.6142 0.668212 16.5121 0.625034C16.4101 0.581855 16.3004 0.559635 16.1897 0.559692H4.30267C4.19067 0.559692 4.07977 0.581753 3.97629 0.624615C3.87281 0.667476 3.77879 0.730296 3.6996 0.809493C3.6204 0.88869 3.55758 0.982712 3.51472 1.08619C3.47186 1.18966 3.44979 1.30057 3.44979 1.41257V8.15564C3.45672 8.37719 3.54963 8.58733 3.70883 8.74156C3.86803 8.89579 4.08102 8.98197 4.30267 8.98187H6.96792C7.09796 8.98141 7.2253 9.01903 7.33422 9.09007C7.44315 9.1611 7.52891 9.26246 7.58092 9.38165C7.65213 9.49308 7.68996 9.62255 7.68996 9.75479C7.68996 9.88702 7.65213 10.0165 7.58092 10.1279C5.09743 12.7963 3.16465 15.9283 1.89324 19.3446C0.621827 22.761 0.036763 26.3945 0.171542 30.0373C0.171542 41.791 9.97965 49.4136 22.0799 49.4136C34.1801 49.4136 43.9615 41.791 43.9615 30.0373C44.0913 26.3929 43.5013 22.7586 42.2254 19.3424C40.9494 15.9262 39.0125 12.795 36.5255 10.1279H36.4722ZM11.9786 3.94455C12.3107 3.94455 12.6353 4.04303 12.9114 4.22753C13.1876 4.41204 13.4028 4.67427 13.5299 4.98109C13.657 5.28791 13.6902 5.62552 13.6254 5.95123C13.5606 6.27695 13.4007 6.57614 13.1659 6.81096C12.9311 7.04579 12.6319 7.20571 12.3062 7.2705C11.9804 7.33529 11.6428 7.30204 11.336 7.17495C11.0292 7.04786 10.767 6.83265 10.5825 6.55652C10.398 6.28039 10.2995 5.95575 10.2995 5.62366C10.3063 5.18047 10.4855 4.75737 10.7989 4.44395C11.1123 4.13054 11.5354 3.95142 11.9786 3.94455ZM6.08839 26.6791C5.75629 26.6791 5.43165 26.5806 5.15553 26.3961C4.8794 26.2116 4.66419 25.9494 4.5371 25.6426C4.41001 25.3357 4.37676 24.9981 4.44154 24.6724C4.50633 24.3467 4.66625 24.0475 4.90108 23.8127C5.13591 23.5779 5.4351 23.4179 5.76081 23.3531C6.08652 23.2884 6.42414 23.3216 6.73095 23.4487C7.03777 23.5758 7.30001 23.791 7.48451 24.0671C7.66901 24.3433 7.76749 24.6679 7.76749 25C7.76795 25.2298 7.72126 25.4572 7.63029 25.6682C7.53932 25.8792 7.40601 26.0692 7.23862 26.2266C7.07123 26.384 6.87332 26.5054 6.65713 26.5832C6.44094 26.6611 6.21108 26.6937 5.98178 26.6791H6.08839ZM9.31333 39.3124C8.86801 39.3124 8.44092 39.1354 8.12603 38.8206C7.81113 38.5057 7.63423 38.0786 7.63423 37.6333C7.63423 37.1879 7.81113 36.7608 8.12603 36.4459C8.44092 36.1311 8.86801 35.9541 9.31333 35.9541C9.75866 35.9541 10.1857 36.1311 10.5006 36.4459C10.8155 36.7608 10.9924 37.1879 10.9924 37.6333C10.9924 38.0786 10.8155 38.5057 10.5006 38.8206C10.1857 39.1354 9.75866 39.3124 9.31333 39.3124ZM21.9466 45.2025C21.6145 45.2025 21.2899 45.1041 21.0137 44.9196C20.7376 44.7351 20.5224 44.4728 20.3953 44.166C20.2682 43.8592 20.235 43.5216 20.2998 43.1959C20.3645 42.8702 20.5245 42.571 20.7593 42.3361C20.9941 42.1013 21.2933 41.9414 21.619 41.8766C21.9447 41.8118 22.2823 41.8451 22.5892 41.9722C22.896 42.0992 23.1582 42.3145 23.3427 42.5906C23.5272 42.8667 23.6257 43.1913 23.6257 43.5234C23.6259 43.9597 23.4564 44.3789 23.1529 44.6923C22.8494 45.0057 22.4359 45.1887 21.9999 45.2025H21.9466ZM32.0479 7.30276C31.7158 7.30276 31.3911 7.20428 31.115 7.01978C30.8389 6.83528 30.6237 6.57304 30.4966 6.26622C30.3695 5.95941 30.3362 5.62179 30.401 5.29608C30.4658 4.97037 30.6257 4.67118 30.8606 4.43635C31.0954 4.20152 31.3946 4.04161 31.7203 3.97682C32.046 3.91203 32.3836 3.94528 32.6904 4.07237C32.9973 4.19946 33.2595 4.41467 33.444 4.6908C33.6285 4.96692 33.727 5.29156 33.727 5.62366C33.7272 6.0599 33.5576 6.4791 33.2542 6.79251C32.9507 7.10591 32.5372 7.28891 32.1012 7.30276H32.0479ZM34.5799 39.2857C34.2478 39.2857 33.9231 39.1872 33.647 39.0027C33.3709 38.8182 33.1557 38.556 33.0286 38.2492C32.9015 37.9423 32.8682 37.6047 32.933 37.279C32.9978 36.9533 33.1577 36.6541 33.3926 36.4193C33.6274 36.1845 33.9266 36.0245 34.2523 35.9598C34.578 35.895 34.9156 35.9282 35.2224 36.0553C35.5292 36.1824 35.7915 36.3976 35.976 36.6737C36.1605 36.9499 36.259 37.2745 36.259 37.6066C36.2662 38.0474 36.0997 38.4734 35.7955 38.7926C35.4913 39.1117 35.0738 39.2984 34.6332 39.3124L34.5799 39.2857ZM37.9381 26.6524C37.4927 26.6524 37.0657 26.4755 36.7508 26.1606C36.4359 25.8457 36.259 25.4187 36.259 24.9733C36.259 24.528 36.4359 24.1009 36.7508 23.786C37.0657 23.4711 37.4927 23.2942 37.9381 23.2942C38.3859 23.2942 38.8158 23.4702 39.1349 23.7844C39.454 24.0985 39.6368 24.5256 39.6438 24.9733C39.644 25.4166 39.4717 25.8426 39.1632 26.161C38.8548 26.4794 38.4345 26.6652 37.9914 26.6791L37.9381 26.6524Z" fill="#F79F00"/>
</svg>
