<svg width="40" height="40" viewBox="0 0 40 40" fill="none" xmlns="http://www.w3.org/2000/svg">
<path d="M36.0308 14.7457C30.8092 12.2777 25.5876 9.80979 20.3748 7.34186C20.1278 7.22687 19.9161 7.22687 19.6692 7.34186C14.4652 9.80979 9.25242 12.2689 4.04845 14.728C3.82794 14.8341 3.61625 14.9314 3.60743 15.2233C3.59861 15.5329 3.81912 15.6479 4.05727 15.7541C5.55672 16.4617 7.04735 17.1782 8.55561 17.8682C8.82022 17.992 8.88197 18.1335 8.88197 18.4078C8.87314 20.345 8.88197 22.2822 8.87315 24.2282C8.87315 24.5024 8.92607 24.7324 9.19068 24.8828C10.9724 25.9 12.8335 26.7227 14.8092 27.2622C17.5082 27.9964 20.2337 28.1645 23.0032 27.7045C25.6052 27.2711 28.0132 26.3335 30.3241 25.0774C30.8268 24.8032 30.9944 24.4936 30.9856 23.9363C30.9503 22.0964 30.9768 20.2653 30.9768 18.4255C30.9768 18.2839 30.9503 18.1424 31.1355 18.0628C31.7353 17.7886 32.3351 17.5055 32.979 17.1959C32.979 19.77 32.979 22.2822 32.9878 24.8032C32.9878 24.9978 32.9172 25.0685 32.7408 25.1304C31.4972 25.6081 31.0297 27.0146 31.7353 28.1557C31.8235 28.306 31.85 28.4299 31.8147 28.5979C31.5942 29.8009 31.3737 31.004 31.1532 32.207C31.1003 32.4812 31.1444 32.7112 31.4178 32.835C32.7408 33.4454 34.0639 33.525 35.3957 32.8704C35.6868 32.7289 35.8015 32.5254 35.7309 32.1893C35.5016 30.9863 35.2987 29.7833 35.0694 28.5802C35.0341 28.4122 35.0606 28.2883 35.1488 28.138C35.8456 27.0146 35.3869 25.617 34.1521 25.1393C33.958 25.0597 33.8963 24.9801 33.8963 24.7766C33.9051 22.1937 33.9051 19.6108 33.8963 17.019C33.8963 16.7979 33.9757 16.7006 34.1609 16.6121C34.7871 16.329 35.4046 16.0283 36.0308 15.7364C36.2425 15.6391 36.4365 15.5241 36.4454 15.2499C36.4542 14.9668 36.2513 14.8518 36.0308 14.7457ZM29.786 24.2813C27.431 25.5727 24.9525 26.4927 22.28 26.8465C19.6868 27.1915 17.1466 26.9615 14.6416 26.2185C13.0363 25.7496 11.5104 25.0774 10.0462 24.2724C9.92276 24.2017 9.79045 24.1574 9.79927 23.9628C9.80809 22.1495 9.80809 20.345 9.80809 18.4697C11.1752 19.1154 12.4895 19.7258 13.8037 20.345C15.753 21.2649 17.6934 22.1848 19.6339 23.1136C19.9338 23.2552 20.1808 23.2286 20.463 23.096C23.5236 21.6453 26.5931 20.1946 29.6626 18.7439C29.7684 18.6908 29.8742 18.6112 30.0242 18.6201C30.033 18.7085 30.0418 18.797 30.0418 18.8854C30.0418 20.5396 30.0418 22.1937 30.0507 23.8478C30.033 24.069 29.9713 24.184 29.786 24.2813ZM34.5843 32.1804C34.205 32.3043 33.8257 32.3839 33.42 32.375C33.0319 32.375 32.6615 32.2954 32.291 32.1716C32.1499 32.1274 32.1058 32.0654 32.1411 31.9062C32.3175 30.9863 32.4762 30.0575 32.635 29.1375C32.6615 28.9871 32.7144 28.9518 32.8643 29.0048C33.2436 29.1198 33.6229 29.1198 33.9933 29.0048C34.1344 28.9606 34.1785 28.9871 34.205 29.1464C34.3726 30.084 34.549 31.0128 34.7166 31.9416C34.7607 32.0743 34.7254 32.1362 34.5843 32.1804ZM34.5402 27.0411C34.5402 27.6338 34.0374 28.1468 33.4465 28.1557C32.8555 28.1645 32.3439 27.6603 32.3351 27.0676C32.3175 26.4573 32.8202 25.9531 33.4465 25.9531C34.0374 25.9442 34.5402 26.4396 34.5402 27.0411ZM32.2998 16.4617C28.2954 18.3547 24.291 20.2388 20.2866 22.1406C20.1278 22.2202 19.9955 22.2556 19.8191 22.1672C14.9768 19.8761 10.1344 17.5851 5.29211 15.3029C5.27447 15.2941 5.25683 15.2852 5.17744 15.241C6.2006 14.7634 7.16201 14.3034 8.13224 13.8523C11.9955 12.0301 15.8588 10.199 19.7221 8.3768C19.9073 8.28834 20.0661 8.24412 20.2866 8.35026C25.0672 10.6147 29.8478 12.8704 34.6284 15.126C34.6989 15.1614 34.7607 15.1968 34.8665 15.2587C33.9845 15.6656 33.1378 16.0637 32.2998 16.4617Z" fill="#F90000" stroke="#F90000"/>
</svg>